<svg viewBox="0 0 902 1132" fill="none" xmlns="http://www.w3.org/2000/svg">
<path d="M575.96 854.8C575.96 876.85 589.46 890.17 604.4 890.17C619.34 890.17 632.84 876.85 632.84 854.8C632.84 832.75 619.34 819.43 604.4 819.43C589.46 819.43 575.96 832.75 575.96 854.8ZM628.79 854.8C628.79 874.6 616.91 886.66 604.4 886.66C591.89 886.66 580.01 874.6 580.01 854.8C580.01 835 591.89 822.94 604.4 822.94C616.91 822.94 628.79 835 628.79 854.8ZM648.475 836.35L650.815 839.23L666.115 826.27V888.37H670.165V821.23H666.475L648.475 836.35ZM695.004 893.32H701.484V886.84H695.004V893.32ZM718.7 836.35L721.04 839.23L736.34 826.27V888.37H740.39V821.23H736.7L718.7 836.35ZM763.519 854.8C763.519 876.85 777.019 890.17 791.959 890.17C806.899 890.17 820.399 876.85 820.399 854.8C820.399 832.75 806.899 819.43 791.959 819.43C777.019 819.43 763.519 832.75 763.519 854.8ZM816.349 854.8C816.349 874.6 804.469 886.66 791.959 886.66C779.449 886.66 767.569 874.6 767.569 854.8C767.569 835 779.449 822.94 791.959 822.94C804.469 822.94 816.349 835 816.349 854.8ZM830.004 893.32H836.484V886.84H830.004V893.32Z" fill="#2454A6"/>
<path d="M692.68 422.76C686.19 433.98 675.08 440.03 662.21 440.03C642.52 440.03 626.79 424.63 626.79 401.2C626.79 377.77 642.52 362.37 662.21 362.37C674.53 362.37 685.2 367.98 691.58 377.99L695.54 375.46C688.28 364.35 676.29 357.97 662.21 357.97C639.22 357.97 621.73 375.46 621.73 401.2C621.73 426.94 639.22 444.43 662.21 444.43C676.73 444.43 689.38 437.39 696.42 425.51L692.68 422.76ZM743.004 360.17H737.944V442.23H743.004V399.44L790.634 442.23H797.674L749.164 398.67L794.264 360.17H787.334L743.004 398.23V360.17ZM665.84 556.69H669.8L703.35 494.21V569.23H708.41V487.17H701.81L667.82 550.86L634.05 487.17H627.45V569.23H632.51V494.21L665.84 556.69ZM800.016 549.76C793.526 560.98 782.416 567.03 769.546 567.03C749.856 567.03 734.126 551.63 734.126 528.2C734.126 504.77 749.856 489.37 769.546 489.37C781.866 489.37 792.536 494.98 798.916 504.99L802.876 502.46C795.616 491.35 783.626 484.97 769.546 484.97C746.556 484.97 729.066 502.46 729.066 528.2C729.066 553.94 746.556 571.43 769.546 571.43C784.066 571.43 796.716 564.39 803.756 552.51L800.016 549.76Z" fill="#2454A6"/>
<path d="M132 805.15C132 787.3 117 773.05 93.6 773.05C77.4 773.05 65.4 782.5 57.75 795.4L62.85 798.7C69.9 787.45 79.2 778.9 93.6 778.9C112.5 778.9 125.25 790.45 125.25 805.15C125.25 819.7 114.75 829.9 105.15 838.6L56.25 882.4V887.95H135V882.1H64.5L109.05 842.65C120.15 832.9 132 821.95 132 805.15ZM146.955 832C146.955 868.75 169.455 890.95 194.355 890.95C219.255 890.95 241.755 868.75 241.755 832C241.755 795.25 219.255 773.05 194.355 773.05C169.455 773.05 146.955 795.25 146.955 832ZM235.005 832C235.005 865 215.205 885.1 194.355 885.1C173.505 885.1 153.705 865 153.705 832C153.705 799 173.505 778.9 194.355 778.9C215.205 778.9 235.005 799 235.005 832ZM329.314 805.15C329.314 787.3 314.314 773.05 290.914 773.05C274.714 773.05 262.714 782.5 255.064 795.4L260.164 798.7C267.214 787.45 276.514 778.9 290.914 778.9C309.814 778.9 322.564 790.45 322.564 805.15C322.564 819.7 312.064 829.9 302.464 838.6L253.564 882.4V887.95H332.314V882.1H261.814L306.364 842.65C317.464 832.9 329.314 821.95 329.314 805.15ZM418.67 805.15C418.67 787.3 403.67 773.05 380.27 773.05C364.07 773.05 352.07 782.5 344.42 795.4L349.52 798.7C356.57 787.45 365.87 778.9 380.27 778.9C399.17 778.9 411.92 790.45 411.92 805.15C411.92 819.7 401.42 829.9 391.82 838.6L342.92 882.4V887.95H421.67V882.1H351.17L395.72 842.65C406.82 832.9 418.67 821.95 418.67 805.15ZM436.475 896.2H447.275V885.4H436.475V896.2Z" fill="#2454A6"/>
<path d="M59.1453 677.82H107.105C107.765 677.82 108.425 677.71 109.085 677.49L113.265 676.28L111.175 705.65H117.885L121.625 652.19C121.735 651.2 121.185 650.21 120.415 649.44L118.215 647.46C117.555 646.8 116.675 646.58 115.795 646.58H58.5953L59.6953 652.41H114.915L113.485 671.99H58.0453L59.1453 677.82ZM45.8353 724.02H135.045V718.19H45.8353V724.02ZM226.934 642.07H217.364C216.154 642.07 215.934 643.06 216.594 643.83L220.004 648.23V739.64H226.934V642.07ZM197.784 684.64V653.29C197.784 652.3 197.344 651.31 196.574 650.54L194.374 648.56C193.714 647.9 192.834 647.68 191.954 647.68H152.354V653.51H190.854V678.81H152.134V710.71C152.134 711.7 152.574 712.69 153.344 713.46L155.544 715.44C156.204 716.1 157.084 716.32 157.964 716.32H207.464V710.49H159.064V684.64H197.784ZM323.553 739.64H330.483V642.07H323.553V739.64ZM303.093 643.17C301.883 643.17 301.663 644.16 302.323 644.93L305.733 649.33V677.16H288.683V668.58C288.683 653.18 281.533 646.03 268.223 646.03C254.913 646.03 247.763 653.18 247.763 668.58V695.42C247.763 710.82 254.913 717.97 268.223 717.97C281.533 717.97 288.683 710.82 288.683 695.42V682.99H305.733V738.54H312.663V643.17H303.093ZM281.753 694.98C281.753 706.42 277.353 712.14 268.223 712.14C259.093 712.14 254.693 706.42 254.693 694.98V669.02C254.693 657.58 259.093 651.86 268.223 651.86C277.353 651.86 281.753 657.58 281.753 669.02V694.98ZM428.311 642.07H418.741C417.531 642.07 417.311 643.06 417.971 643.83L421.381 648.23V739.64H428.311V642.07ZM375.841 646.03C359.341 646.03 350.211 655.27 350.211 674.08V689.92C350.211 708.73 359.341 717.97 375.841 717.97C392.341 717.97 401.471 708.73 401.471 689.92V674.08C401.471 655.27 392.341 646.03 375.841 646.03ZM394.541 689.48C394.541 704.22 388.271 712.14 375.841 712.14C363.411 712.14 357.141 704.22 357.141 689.48V674.52C357.141 659.78 363.411 651.86 375.841 651.86C388.271 651.86 394.541 659.78 394.541 674.52V689.48ZM527.35 642.07H517.78C516.57 642.07 516.35 643.06 517.01 643.83L520.42 648.23V739.64H527.35V642.07ZM500.18 684.64V678.81H464.43V653.51H504.58L503.48 647.68H454.86C453.65 647.68 453.43 648.67 454.09 649.44L457.5 653.84V710.71C457.5 711.7 457.94 712.69 458.71 713.46L460.91 715.44C461.57 716.1 462.45 716.32 463.33 716.32H509.31V710.49H464.43V684.64H500.18ZM559.729 692.34C559.729 693.33 560.169 694.32 560.939 695.09L563.139 697.07C563.799 697.73 564.679 697.95 565.559 697.95H622.539V646.58H615.609V667.15H566.659V646.58H557.089C555.879 646.58 555.659 647.57 556.319 648.34L559.729 652.74V692.34ZM615.609 672.98V692.12H566.659V672.98H615.609ZM546.529 724.02H635.739V718.19H546.529V724.02ZM724.107 739.64H731.037V642.07H724.107V739.64ZM703.647 643.17C702.437 643.17 702.217 644.16 702.877 644.93L706.287 649.33V677.71H691.767V683.54H706.287V738.54H713.217V643.17H703.647ZM664.817 706.64V653.51H698.147L699.247 647.68H645.787V653.51H657.887V706.64H664.817ZM680.877 657.36L677.467 710.49H645.787V716.32H699.797V710.49H684.507L687.807 657.36H680.877ZM828.866 642.07H819.296C818.086 642.07 817.866 643.06 818.526 643.83L821.936 648.23V677.16H800.926V674.08C800.926 655.27 792.016 646.03 775.846 646.03C759.676 646.03 750.766 655.27 750.766 674.08V689.92C750.766 708.73 759.676 717.97 775.846 717.97C792.016 717.97 800.926 708.73 800.926 689.92V682.99H821.936V739.64H828.866V642.07ZM793.996 689.48C793.996 704.22 787.946 712.14 775.846 712.14C763.746 712.14 757.696 704.22 757.696 689.48V674.52C757.696 659.78 763.746 651.86 775.846 651.86C787.946 651.86 793.996 659.78 793.996 674.52V689.48Z" fill="#2454A6"/>
<path d="M241.08 34.99H217.59C214.62 34.99 214.08 37.42 215.7 39.31L224.07 50.11V274.48H241.08V139.48H285.9V125.17H241.08V34.99ZM110.13 193.48V63.07H205.44L208.14 48.76H56.67V63.07H93.12V193.48H110.13ZM159 72.52L150.63 202.93H56.67V217.24H209.49V202.93H167.91L176.01 72.52H159ZM349.175 139.48C349.175 141.91 350.255 144.34 352.145 146.23L357.545 151.09C359.165 152.71 361.325 153.25 363.485 153.25H506.045V138.94H366.185V60.37H504.695V46.06H342.695C339.725 46.06 339.185 48.49 340.805 50.38L349.175 61.18V139.48ZM434.765 162.7H417.755V221.83H316.775V236.14H535.745V221.83H434.765V162.7ZM777.49 34.99H754C751.03 34.99 750.49 37.42 752.11 39.31L760.48 50.11V274.48H777.49V34.99ZM663.55 160C704.32 160 728.35 139.48 728.35 106V96.01C728.35 62.53 704.32 42.01 663.55 42.01C622.78 42.01 598.75 62.53 598.75 96.01V106C598.75 139.48 622.78 160 663.55 160ZM615.76 96.55C615.76 71.98 632.77 56.32 663.55 56.32C694.33 56.32 711.34 71.98 711.34 96.55V105.46C711.34 130.03 694.33 145.69 663.55 145.69C632.77 145.69 615.76 130.03 615.76 105.46V96.55ZM749.68 225.34V211.03H580.39V225.34H749.68ZM239.73 380.08H191.94V394.39H239.73V415.18H191.94V429.49H239.73V514.81H256.74V334.99H233.25C230.28 334.99 229.74 337.42 231.36 339.31L239.73 350.11V380.08ZM116.88 443.53V360.37H209.49L212.19 346.06H62.07V360.37H99.87V443.53H116.88ZM171.15 451.63L178.71 368.47H161.7L153.87 451.63H62.07V465.94H213.54V451.63H171.15ZM121.74 494.56H104.73V560.71C104.73 563.14 105.81 565.57 107.7 567.46L113.1 572.32C114.72 573.94 116.88 574.48 119.04 574.48H259.44V560.17H121.74V494.56ZM518.195 334.99H494.705C491.735 334.99 491.195 337.42 492.815 339.31L501.185 350.11V574.48H518.195V334.99ZM472.835 363.07V348.76H328.385V363.07H395.075C387.515 417.88 358.625 469.99 324.065 514L337.565 522.37C359.705 493.48 380.225 461.08 394.265 425.44C413.705 458.92 435.035 489.97 465.005 522.37L477.695 512.65C446.375 477.82 425.315 448.66 401.015 406.27C405.605 392.23 409.115 377.92 411.005 363.07H472.835Z" fill="#2454A6"/>
<path d="M297.521 1104.39L298.028 1105.06L300.017 1103.41V1111.93H300.953V1102.18H300.16L297.521 1104.39ZM304.164 1102.99H309.741L305.62 1111.93H306.608L310.794 1102.81V1102.18H304.164V1102.99ZM315.145 1111.39C314.092 1111.39 312.974 1110.66 312.428 1109.69L311.7 1110.17C312.337 1111.36 313.65 1112.2 315.145 1112.2C317.394 1112.2 318.746 1110.8 318.746 1109.06C318.746 1107.4 317.563 1106.03 315.249 1106.01L318.421 1102.9V1102.18H312.155V1102.99H317.16L313.611 1106.45L313.975 1107.1C314.079 1107.05 314.651 1106.8 315.106 1106.8C316.77 1106.8 317.81 1107.77 317.81 1109.06C317.81 1110.35 316.861 1111.39 315.145 1111.39ZM322.863 1101.92C320.809 1101.92 319.418 1103.41 319.418 1105.24C319.418 1107.06 320.809 1108.55 322.863 1108.55C323.37 1108.55 323.981 1108.35 324.254 1108.14L322.135 1111.93H323.136L325.697 1107.41C326.009 1106.85 326.308 1106.07 326.308 1105.37C326.308 1103.5 325.06 1101.92 322.863 1101.92ZM325.372 1105.24C325.372 1106.7 324.371 1107.75 322.863 1107.75C321.355 1107.75 320.354 1106.66 320.354 1105.24C320.354 1103.82 321.355 1102.73 322.863 1102.73C324.332 1102.73 325.372 1103.9 325.372 1105.24ZM327.344 1107.06C327.344 1110.26 329.32 1112.2 331.504 1112.2C333.688 1112.2 335.664 1110.26 335.664 1107.06C335.664 1103.86 333.688 1101.92 331.504 1101.92C329.32 1101.92 327.344 1103.86 327.344 1107.06ZM334.728 1107.06C334.728 1109.76 333.142 1111.39 331.504 1111.39C329.866 1111.39 328.28 1109.76 328.28 1107.06C328.28 1104.36 329.866 1102.73 331.504 1102.73C333.142 1102.73 334.728 1104.36 334.728 1107.06ZM347.622 1107.59C345.438 1107.59 343.93 1108.79 343.93 1110.4C343.93 1112.01 345.438 1113.21 347.622 1113.21C349.806 1113.21 351.314 1112.01 351.314 1110.4C351.314 1108.79 349.806 1107.59 347.622 1107.59ZM347.622 1112.38C345.906 1112.38 344.918 1111.51 344.918 1110.4C344.918 1109.3 345.906 1108.42 347.622 1108.42C349.338 1108.42 350.326 1109.3 350.326 1110.4C350.326 1111.51 349.338 1112.38 347.622 1112.38ZM341.772 1102.64H346.66C346.426 1104.69 344.19 1106.47 341.161 1107.07L341.629 1107.88C344.684 1107.22 347.778 1105.17 347.752 1101.78H341.772V1102.64ZM348.103 1103.93H350.352V1105.42H347.752V1106.27H350.352V1107.71H351.34V1101.38H350.352V1103.08H348.103V1103.93ZM363.578 1112.98V1101.38H362.59V1112.98H363.578ZM354.049 1102.73H359.041C358.911 1105.84 356.909 1108.91 353.685 1110.48L354.335 1111.21C357.689 1109.43 360.159 1106.15 360.107 1101.87H354.049V1102.73ZM365.441 1111.02V1111.88H376.829V1111.02H371.707V1108.09H375.789V1107.22H367.716V1102.73H375.529V1101.87H366.728V1108.09H370.693V1111.02H365.441ZM392.526 1112.98V1101.38H391.538V1112.98H392.526ZM385.961 1101.92C383.881 1101.92 382.282 1103.51 382.282 1105.85C382.282 1108.2 383.881 1109.79 385.961 1109.79C388.041 1109.79 389.64 1108.2 389.64 1105.85C389.64 1103.51 388.041 1101.92 385.961 1101.92ZM385.961 1102.81C387.508 1102.81 388.626 1103.97 388.626 1105.84C388.626 1107.67 387.599 1108.91 385.961 1108.91C384.323 1108.91 383.296 1107.67 383.296 1105.84C383.296 1103.97 384.414 1102.81 385.961 1102.81ZM402.163 1103.9V1103.07H394.961V1103.9H398.224C397.808 1105.76 396.235 1107.27 394.129 1108.05L394.701 1108.78C396.092 1108.22 397.535 1107.2 398.432 1105.89C399.381 1107.09 400.785 1107.98 402.176 1108.41L402.709 1107.59C401.11 1107.16 399.719 1106.31 398.887 1105.12C399.069 1104.73 399.212 1104.33 399.29 1103.9H402.163ZM404.841 1110.06V1101.38H403.853V1104.97H401.552V1105.82H403.853V1110.06H404.841ZM405.166 1112.85V1111.99H397.236V1109.39H396.248V1112.85H405.166ZM400.655 1102.04V1101.21H396.469V1102.04H400.655ZM414.739 1110.15C413.062 1109.07 411.684 1107.42 410.878 1105.72C411.229 1104.54 411.411 1103.22 411.411 1101.74H410.397C410.358 1105.86 408.876 1108.83 406.341 1110.57L407.004 1111.26C408.512 1110.15 409.734 1108.68 410.501 1106.8C411.346 1108.37 412.724 1109.93 414.063 1110.91L414.739 1110.15ZM417.209 1112.98V1101.38H416.221V1112.98H417.209ZM428.629 1109.88H424.638V1102.73H428.629V1109.88ZM423.65 1101.87V1110.74H429.617V1101.87H423.65ZM432.841 1112.98V1106.42H434.726V1105.54H432.841V1101.38H431.853V1112.98H432.841ZM441.984 1107.72C439.8 1107.72 438.292 1108.88 438.292 1110.47C438.292 1112.05 439.8 1113.21 441.984 1113.21C444.168 1113.21 445.676 1112.05 445.676 1110.47C445.676 1108.88 444.168 1107.72 441.984 1107.72ZM441.984 1112.35C440.268 1112.35 439.28 1111.56 439.28 1110.47C439.28 1109.37 440.268 1108.58 441.984 1108.58C443.7 1108.58 444.688 1109.37 444.688 1110.47C444.688 1111.56 443.7 1112.35 441.984 1112.35ZM443.05 1101.78H435.783V1102.64H439.111C438.708 1104.6 437.122 1106.16 435.042 1106.92L435.614 1107.66C437.005 1107.11 438.435 1106.07 439.319 1104.72C440.281 1105.77 441.737 1106.63 442.972 1107.03L443.492 1106.21C442.049 1105.81 440.567 1104.99 439.748 1103.98C439.943 1103.55 440.086 1103.11 440.164 1102.64H443.05V1101.78ZM445.52 1107.84V1104.8H447.119V1103.91H445.52V1101.38H444.532V1107.84H445.52ZM458.082 1109.93V1101.38H457.094V1102.95H454.52V1101.78H448.345V1107.67H454.52V1106.36H457.094V1109.93H458.082ZM453.532 1106.81H449.333V1102.64H453.532V1106.81ZM458.407 1112.85V1111.99H450.477V1109.02H449.489V1112.85H458.407ZM454.52 1103.8H457.094V1105.51H454.52V1103.8ZM471.036 1107.98C468.852 1107.98 467.344 1109.09 467.344 1110.6C467.344 1112.1 468.852 1113.21 471.036 1113.21C473.22 1113.21 474.728 1112.1 474.728 1110.6C474.728 1109.09 473.22 1107.98 471.036 1107.98ZM471.036 1112.38C469.32 1112.38 468.332 1111.62 468.332 1110.6C468.332 1109.57 469.32 1108.81 471.036 1108.81C472.752 1108.81 473.74 1109.57 473.74 1110.6C473.74 1111.62 472.752 1112.38 471.036 1112.38ZM472.076 1103.72V1102.91H464.874V1103.72H468.124C467.695 1105.4 466.083 1106.64 464.068 1107.2L464.627 1107.94C466.018 1107.54 467.539 1106.59 468.462 1105.33C469.385 1106.38 470.815 1107.15 472.115 1107.4L472.622 1106.57C471.127 1106.33 469.697 1105.64 468.904 1104.59C469.034 1104.3 469.138 1104.02 469.203 1103.72H472.076ZM474.754 1108.1V1101.38H473.766V1104.51H471.517V1105.34H473.766V1108.1H474.754ZM470.568 1102.02V1101.21H466.382V1102.02H470.568ZM486.485 1107.71V1104.93H488.084V1104.04H486.485V1101.38H485.497V1107.71H486.485ZM482.949 1107.59C480.765 1107.59 479.257 1108.79 479.257 1110.4C479.257 1112.01 480.765 1113.21 482.949 1113.21C485.133 1113.21 486.641 1112.01 486.641 1110.4C486.641 1108.79 485.133 1107.59 482.949 1107.59ZM482.949 1112.38C481.233 1112.38 480.245 1111.51 480.245 1110.4C480.245 1109.3 481.233 1108.42 482.949 1108.42C484.665 1108.42 485.653 1109.3 485.653 1110.4C485.653 1111.51 484.665 1112.38 482.949 1112.38ZM477.125 1102.64H482.013C481.779 1104.69 479.543 1106.47 476.514 1107.07L476.982 1107.88C480.037 1107.22 483.131 1105.17 483.105 1101.78H477.125V1102.64ZM498.488 1112.98V1106.8H500.373V1105.92H498.488V1101.38H497.5V1112.98H498.488ZM489.349 1102.73H494.341C494.211 1105.84 492.209 1108.91 488.985 1110.48L489.635 1111.21C492.989 1109.43 495.459 1106.15 495.407 1101.87H489.349V1102.73ZM507.632 1107.98C505.448 1107.98 503.94 1109.09 503.94 1110.6C503.94 1112.1 505.448 1113.21 507.632 1113.21C509.816 1113.21 511.324 1112.1 511.324 1110.6C511.324 1109.09 509.816 1107.98 507.632 1107.98ZM507.632 1112.38C505.916 1112.38 504.928 1111.62 504.928 1110.6C504.928 1109.57 505.916 1108.81 507.632 1108.81C509.348 1108.81 510.336 1109.57 510.336 1110.6C510.336 1111.62 509.348 1112.38 507.632 1112.38ZM508.776 1103.72V1102.91H501.574V1103.72H504.824C504.395 1105.4 502.783 1106.64 500.768 1107.2L501.327 1107.94C502.718 1107.54 504.239 1106.59 505.162 1105.33C506.085 1106.38 507.515 1107.15 508.815 1107.4L509.322 1106.57C507.827 1106.33 506.397 1105.64 505.604 1104.59C505.734 1104.3 505.838 1104.02 505.903 1103.72H508.776ZM511.168 1108.1V1105.06H512.767V1104.17H511.168V1101.38H510.18V1108.1H511.168ZM507.268 1102.02V1101.21H503.082V1102.02H507.268ZM513.278 1111.02V1111.88H524.666V1111.02H519.544V1108.66H523.561V1107.79H515.553V1105.66H523.366V1101.87H514.565V1102.73H522.378V1104.8H514.565V1108.66H518.53V1111.02H513.278ZM533.187 1111.39C532.134 1111.39 531.016 1110.66 530.47 1109.69L529.742 1110.17C530.379 1111.36 531.692 1112.2 533.187 1112.2C535.436 1112.2 536.788 1110.8 536.788 1109.06C536.788 1107.4 535.605 1106.03 533.291 1106.01L536.463 1102.9V1102.18H530.197V1102.99H535.202L531.653 1106.45L532.017 1107.1C532.121 1107.05 532.693 1106.8 533.148 1106.8C534.812 1106.8 535.852 1107.77 535.852 1109.06C535.852 1110.35 534.903 1111.39 533.187 1111.39ZM541.386 1101.92C539.371 1101.92 538.227 1103.13 538.227 1104.5C538.227 1105.62 538.942 1106.38 539.748 1106.68C538.825 1106.98 537.642 1107.81 537.642 1109.3C537.642 1110.95 539.137 1112.2 541.386 1112.2C543.635 1112.2 545.13 1110.95 545.13 1109.3C545.13 1107.81 543.96 1106.98 543.037 1106.68C543.843 1106.38 544.545 1105.62 544.545 1104.5C544.545 1103.13 543.401 1101.92 541.386 1101.92ZM541.386 1111.39C539.631 1111.39 538.578 1110.5 538.578 1109.3C538.578 1108.11 539.748 1107.14 541.386 1107.14C543.024 1107.14 544.194 1108.11 544.194 1109.3C544.194 1110.5 543.141 1111.39 541.386 1111.39ZM541.386 1102.73C542.79 1102.73 543.609 1103.46 543.609 1104.5C543.609 1105.46 542.699 1106.33 541.386 1106.33C540.073 1106.33 539.163 1105.46 539.163 1104.5C539.163 1103.46 539.982 1102.73 541.386 1102.73ZM549.436 1101.92C547.382 1101.92 545.991 1103.41 545.991 1105.24C545.991 1107.06 547.382 1108.55 549.436 1108.55C549.943 1108.55 550.554 1108.35 550.827 1108.14L548.708 1111.93H549.709L552.27 1107.41C552.582 1106.85 552.881 1106.07 552.881 1105.37C552.881 1103.5 551.633 1101.92 549.436 1101.92ZM551.945 1105.24C551.945 1106.7 550.944 1107.75 549.436 1107.75C547.928 1107.75 546.927 1106.66 546.927 1105.24C546.927 1103.82 547.928 1102.73 549.436 1102.73C550.905 1102.73 551.945 1103.9 551.945 1105.24ZM559.169 1106.62H553.735V1107.42H559.169V1106.62ZM563.287 1101.92C561.233 1101.92 559.842 1103.41 559.842 1105.24C559.842 1107.06 561.233 1108.55 563.287 1108.55C563.794 1108.55 564.405 1108.35 564.678 1108.14L562.559 1111.93H563.56L566.121 1107.41C566.433 1106.85 566.732 1106.07 566.732 1105.37C566.732 1103.5 565.484 1101.92 563.287 1101.92ZM565.796 1105.24C565.796 1106.7 564.795 1107.75 563.287 1107.75C561.779 1107.75 560.778 1106.66 560.778 1105.24C560.778 1103.82 561.779 1102.73 563.287 1102.73C564.756 1102.73 565.796 1103.9 565.796 1105.24ZM573.007 1108.5H568.756L573.007 1103.61V1108.5ZM567.573 1109.31H573.007V1111.93H573.943V1109.31H575.464V1108.5H573.943V1102.18H573.137L567.573 1108.62V1109.31ZM577.344 1107.01C577.344 1104.34 578.67 1102.15 580.126 1100.87L579.736 1100.25C578.02 1101.56 576.395 1104.06 576.395 1107.01C576.395 1109.96 578.02 1112.46 579.736 1113.77L580.126 1113.14C578.67 1111.87 577.344 1109.67 577.344 1107.01ZM586.803 1108.28C586.803 1106.59 585.685 1105.14 583.956 1105.14C582.227 1105.14 581.109 1106.59 581.109 1108.28C581.109 1109.97 582.227 1111.43 583.956 1111.43C585.685 1111.43 586.803 1109.97 586.803 1108.28ZM588.87 1112.65V1107.01H590.547V1112.96H591.535V1101.38H590.547V1106.12H588.87V1101.51H587.895V1112.65H588.87ZM585.828 1108.28C585.828 1109.53 585.178 1110.58 583.956 1110.58C582.734 1110.58 582.084 1109.53 582.084 1108.28C582.084 1107.03 582.734 1105.98 583.956 1105.98C585.178 1105.98 585.828 1107.03 585.828 1108.28ZM587.102 1104.33V1103.47H580.68V1104.33H587.102ZM585.737 1102.39V1101.53H582.175V1102.39H585.737ZM603.785 1112.9V1112.08H595.686V1111.18H603.525V1108.76H594.698V1109.57H602.537V1110.4H594.698V1112.9H603.785ZM597.285 1101.09C595.426 1101.09 594.035 1101.94 594.035 1103.2C594.035 1104.46 595.426 1105.3 597.285 1105.3C599.144 1105.3 600.535 1104.46 600.535 1103.2C600.535 1101.94 599.144 1101.09 597.285 1101.09ZM597.285 1104.49C595.946 1104.49 595.023 1103.94 595.023 1103.2C595.023 1102.44 595.946 1101.9 597.285 1101.9C598.624 1101.9 599.547 1102.44 599.547 1103.2C599.547 1103.94 598.624 1104.49 597.285 1104.49ZM603.551 1108.29V1101.38H602.563V1107.14H599.469V1107.92H602.563V1108.29H603.551ZM601.809 1106.58V1105.8L593.086 1105.9V1106.71L596.596 1106.66V1108.29H597.61V1106.64L601.809 1106.58ZM615.542 1112.98V1101.38H614.554V1112.98H615.542ZM613.657 1110.63V1109.79L606.949 1110.11V1106.71H611.733V1101.79H605.961V1102.65H610.745V1105.85H605.961V1111.05L613.657 1110.63ZM619.758 1107.01C619.758 1109.67 618.432 1111.87 616.976 1113.14L617.366 1113.77C619.082 1112.46 620.707 1109.96 620.707 1107.01C620.707 1104.06 619.082 1101.56 617.366 1100.25L616.976 1100.87C618.432 1102.15 619.758 1104.34 619.758 1107.01ZM633.079 1107.98C630.895 1107.98 629.387 1109.09 629.387 1110.6C629.387 1112.1 630.895 1113.21 633.079 1113.21C635.263 1113.21 636.771 1112.1 636.771 1110.6C636.771 1109.09 635.263 1107.98 633.079 1107.98ZM633.079 1112.38C631.363 1112.38 630.375 1111.62 630.375 1110.6C630.375 1109.57 631.363 1108.81 633.079 1108.81C634.795 1108.81 635.783 1109.57 635.783 1110.6C635.783 1111.62 634.795 1112.38 633.079 1112.38ZM634.119 1103.72V1102.91H626.917V1103.72H630.167C629.738 1105.4 628.126 1106.64 626.111 1107.2L626.67 1107.94C628.061 1107.54 629.582 1106.59 630.505 1105.33C631.428 1106.38 632.858 1107.15 634.158 1107.4L634.665 1106.57C633.17 1106.33 631.74 1105.64 630.947 1104.59C631.077 1104.3 631.181 1104.02 631.246 1103.72H634.119ZM636.797 1108.1V1101.38H635.809V1104.51H633.56V1105.34H635.809V1108.1H636.797ZM632.611 1102.02V1101.21H628.425V1102.02H632.611ZM648.528 1107.71V1104.93H650.127V1104.04H648.528V1101.38H647.54V1107.71H648.528ZM644.992 1107.59C642.808 1107.59 641.3 1108.79 641.3 1110.4C641.3 1112.01 642.808 1113.21 644.992 1113.21C647.176 1113.21 648.684 1112.01 648.684 1110.4C648.684 1108.79 647.176 1107.59 644.992 1107.59ZM644.992 1112.38C643.276 1112.38 642.288 1111.51 642.288 1110.4C642.288 1109.3 643.276 1108.42 644.992 1108.42C646.708 1108.42 647.696 1109.3 647.696 1110.4C647.696 1111.51 646.708 1112.38 644.992 1112.38ZM639.168 1102.64H644.056C643.822 1104.69 641.586 1106.47 638.557 1107.07L639.025 1107.88C642.08 1107.22 645.174 1105.17 645.148 1101.78H639.168V1102.64ZM660.856 1106.01V1101.59H652.055V1106.01H660.856ZM653.043 1102.42H659.868V1105.17H653.043V1102.42ZM657.099 1110.89V1108.31H662.156V1107.45H650.768V1108.31H656.085V1110.89H657.099ZM661.311 1112.85V1111.99H653.03V1109.41H652.042V1112.85H661.311ZM671.56 1111.1V1110.27L667.673 1110.32V1109.02C669.103 1108.85 670.26 1107.98 670.26 1106.77C670.26 1105.42 668.817 1104.5 667.166 1104.5C665.515 1104.5 664.072 1105.42 664.072 1106.77C664.072 1107.98 665.229 1108.85 666.659 1109.02V1110.34L662.954 1110.38V1111.23L671.56 1111.1ZM673.068 1112.98V1107.2H674.745V1106.32H673.068V1101.38H672.08V1112.98H673.068ZM667.166 1108.22C665.905 1108.22 665.06 1107.61 665.06 1106.77C665.06 1105.94 665.905 1105.33 667.166 1105.33C668.427 1105.33 669.272 1105.94 669.272 1106.77C669.272 1107.61 668.427 1108.22 667.166 1108.22ZM671.04 1104.02V1103.16H663.292V1104.02H671.04ZM665.021 1101.53V1102.39H669.311V1101.53H665.021ZM683.251 1107.2C681.691 1106.58 680.313 1105.47 679.572 1104.06C679.871 1103.29 680.04 1102.46 680.066 1101.59H679.052C678.909 1104.17 677.505 1106.51 675.009 1107.64L675.633 1108.33C677.115 1107.59 678.376 1106.41 679.169 1104.95C680.014 1106.27 681.34 1107.37 682.653 1107.97L683.251 1107.2ZM685.864 1112.85V1111.99H678.064V1109.02H677.076V1112.85H685.864ZM685.487 1109.93V1105.25H687.086V1104.37H685.487V1101.38H684.499V1109.93H685.487ZM691.302 1101.29C689.469 1101.29 688 1102.55 688 1104.32C688 1106.08 689.469 1107.35 691.302 1107.35C692.979 1107.35 694.357 1106.28 694.565 1104.73H697.061V1107.51H698.049V1101.38H697.061V1103.88H694.565C694.344 1102.34 692.979 1101.29 691.302 1101.29ZM697.035 1108.11V1109.52H690.431V1108.11H689.443V1112.9H698.023V1108.11H697.035ZM691.302 1106.51C689.911 1106.51 688.988 1105.59 688.988 1104.32C688.988 1103.04 689.911 1102.12 691.302 1102.12C692.693 1102.12 693.616 1103.04 693.616 1104.32C693.616 1105.59 692.693 1106.51 691.302 1106.51ZM690.431 1112.04V1110.35H697.035V1112.04H690.431ZM707.713 1112.65V1106.62H709.585V1112.96H710.573V1101.38H709.585V1105.73H707.713V1101.51H706.738V1112.65H707.713ZM700.628 1101.95V1110.87L706.088 1110.56V1109.71L701.603 1109.91V1102.81H705.282V1101.95H700.628ZM722.316 1108.8V1105.64H723.915V1104.76H722.316V1101.38H721.328V1108.8H722.316ZM722.29 1113.03V1109.45H713.45V1110.28H721.302V1113.03H722.29ZM718.286 1102.04V1101.21H713.944V1102.04H718.286ZM719.976 1103.64V1102.81H712.254V1103.64H719.976ZM716.219 1108.63C718.104 1108.63 719.417 1107.68 719.417 1106.41C719.417 1105.14 718.104 1104.19 716.219 1104.19C714.334 1104.19 713.021 1105.14 713.021 1106.41C713.021 1107.68 714.334 1108.63 716.219 1108.63ZM716.219 1107.83C714.893 1107.83 714.009 1107.32 714.009 1106.41C714.009 1105.5 714.893 1104.99 716.219 1104.99C717.545 1104.99 718.429 1105.5 718.429 1106.41C718.429 1107.32 717.545 1107.83 716.219 1107.83ZM724.426 1111.02V1111.88H735.814V1111.02H731.615V1106.41H730.614V1111.02H728.365V1106.41H727.364V1111.02H724.426ZM733.955 1109.26C734.462 1107.14 734.696 1104.5 734.696 1101.92H725.531V1102.78H733.682C733.682 1104.49 733.448 1107.16 732.993 1109.26H733.955ZM302.136 1116.81C299.12 1116.81 296.663 1119.29 296.663 1122.35C296.663 1125.4 299.12 1127.88 302.136 1127.88C305.152 1127.88 307.609 1125.4 307.609 1122.35C307.609 1119.29 305.152 1116.81 302.136 1116.81ZM302.136 1117.3C304.866 1117.3 307.076 1119.56 307.076 1122.35C307.076 1125.13 304.866 1127.39 302.136 1127.39C299.406 1127.39 297.196 1125.13 297.196 1122.35C297.196 1119.56 299.406 1117.3 302.136 1117.3ZM303.553 1123.41C303.397 1123.93 302.955 1124.4 302.214 1124.4C301.291 1124.4 300.68 1123.49 300.68 1122.35C300.68 1121.24 301.291 1120.32 302.214 1120.32C303.085 1120.32 303.462 1120.89 303.566 1121.32H304.567C304.411 1120.46 303.579 1119.52 302.214 1119.52C300.667 1119.52 299.705 1120.8 299.705 1122.35C299.705 1123.92 300.667 1125.19 302.214 1125.19C303.566 1125.19 304.32 1124.36 304.567 1123.41H303.553ZM317.025 1124.27C316.336 1125.62 315.075 1126.36 313.606 1126.36C311.461 1126.36 309.745 1124.65 309.745 1122.06C309.745 1119.47 311.461 1117.76 313.606 1117.76C314.984 1117.76 316.206 1118.48 316.895 1119.66L317.675 1119.15C316.83 1117.74 315.348 1116.92 313.606 1116.92C310.876 1116.92 308.783 1119 308.783 1122.06C308.783 1125.11 310.876 1127.2 313.606 1127.2C315.413 1127.2 316.947 1126.3 317.766 1124.8L317.025 1124.27ZM320.501 1117.18H319.539V1126.93H320.501V1122.22H326.117V1126.93H327.079V1117.18H326.117V1121.38H320.501V1117.18ZM333.186 1127.2C335.396 1127.2 336.956 1125.65 336.956 1123.24V1117.18H335.994V1123.24C335.994 1125.17 334.811 1126.36 333.186 1126.36C331.561 1126.36 330.378 1125.17 330.378 1123.24V1117.18H329.416V1123.24C329.416 1125.65 330.976 1127.2 333.186 1127.2ZM345.845 1126.93H346.833V1117.18H345.871V1124.39L345.897 1125.56L345.325 1124.61L340.281 1117.18H339.293V1126.93H340.255V1119.45L340.229 1118.55L340.658 1119.33L345.845 1126.93ZM353.473 1122.53H357.087C357.009 1124.74 355.683 1126.36 353.33 1126.36C351.185 1126.36 349.495 1124.65 349.495 1122.06C349.495 1119.47 351.185 1117.76 353.33 1117.76C354.682 1117.76 355.891 1118.45 356.567 1119.63L357.36 1119.12C356.515 1117.76 355.059 1116.92 353.33 1116.92C350.6 1116.92 348.52 1119 348.52 1122.06C348.52 1125.11 350.6 1127.2 353.33 1127.2C356.359 1127.2 358.062 1125 358.036 1122.03C358.036 1121.9 358.036 1121.75 358.023 1121.71H353.473V1122.53ZM365.487 1126.93H366.8L361.483 1121.77L366.41 1117.18H365.136L360.352 1121.73V1117.18H359.39V1126.93H360.352V1121.85L365.487 1126.93ZM374.914 1126.93H375.889L371.716 1117.18H371.066L366.893 1126.93H367.868L368.96 1124.31H373.809L374.914 1126.93ZM371.391 1118.52L373.458 1123.48H369.311L371.391 1118.52ZM383.702 1126.93H384.69V1117.18H383.728V1124.39L383.754 1125.56L383.182 1124.61L378.138 1117.18H377.15V1126.93H378.112V1119.45L378.086 1118.55L378.515 1119.33L383.702 1126.93ZM391.33 1122.53H394.944C394.866 1124.74 393.54 1126.36 391.187 1126.36C389.042 1126.36 387.352 1124.65 387.352 1122.06C387.352 1119.47 389.042 1117.76 391.187 1117.76C392.539 1117.76 393.748 1118.45 394.424 1119.63L395.217 1119.12C394.372 1117.76 392.916 1116.92 391.187 1116.92C388.457 1116.92 386.377 1119 386.377 1122.06C386.377 1125.11 388.457 1127.2 391.187 1127.2C394.216 1127.2 395.919 1125 395.893 1122.03C395.893 1121.9 395.893 1121.75 395.88 1121.71H391.33V1122.53ZM409.092 1124.27C408.403 1125.62 407.142 1126.36 405.673 1126.36C403.528 1126.36 401.812 1124.65 401.812 1122.06C401.812 1119.47 403.528 1117.76 405.673 1117.76C407.051 1117.76 408.273 1118.48 408.962 1119.66L409.742 1119.15C408.897 1117.74 407.415 1116.92 405.673 1116.92C402.943 1116.92 400.85 1119 400.85 1122.06C400.85 1125.11 402.943 1127.2 405.673 1127.2C407.48 1127.2 409.014 1126.3 409.833 1124.8L409.092 1124.27ZM410.956 1122.06C410.956 1125.11 413.036 1127.2 415.766 1127.2C418.496 1127.2 420.576 1125.11 420.576 1122.06C420.576 1119 418.496 1116.92 415.766 1116.92C413.036 1116.92 410.956 1119 410.956 1122.06ZM419.614 1122.06C419.614 1124.65 417.911 1126.36 415.766 1126.36C413.621 1126.36 411.918 1124.65 411.918 1122.06C411.918 1119.47 413.621 1117.76 415.766 1117.76C417.911 1117.76 419.614 1119.47 419.614 1122.06ZM423.232 1117.18H422.27V1126.93H428.822V1126.1H423.232V1117.18ZM431.103 1117.18H430.141V1126.93H436.693V1126.1H431.103V1117.18ZM438.974 1122.35H443.667V1121.51H438.974V1118.02H444.564V1117.18H438.012V1126.93H444.772V1126.1H438.974V1122.35ZM450.554 1122.53H454.168C454.09 1124.74 452.764 1126.36 450.411 1126.36C448.266 1126.36 446.576 1124.65 446.576 1122.06C446.576 1119.47 448.266 1117.76 450.411 1117.76C451.763 1117.76 452.972 1118.45 453.648 1119.63L454.441 1119.12C453.596 1117.76 452.14 1116.92 450.411 1116.92C447.681 1116.92 445.601 1119 445.601 1122.06C445.601 1125.11 447.681 1127.2 450.411 1127.2C453.44 1127.2 455.143 1125 455.117 1122.03C455.117 1121.9 455.117 1121.75 455.104 1121.71H450.554V1122.53ZM457.433 1122.35H462.126V1121.51H457.433V1118.02H463.023V1117.18H456.471V1126.93H463.231V1126.1H457.433V1122.35ZM468.326 1122.06C468.326 1125.11 470.406 1127.2 473.136 1127.2C475.866 1127.2 477.946 1125.11 477.946 1122.06C477.946 1119 475.866 1116.92 473.136 1116.92C470.406 1116.92 468.326 1119 468.326 1122.06ZM476.984 1122.06C476.984 1124.65 475.281 1126.36 473.136 1126.36C470.991 1126.36 469.288 1124.65 469.288 1122.06C469.288 1119.47 470.991 1117.76 473.136 1117.76C475.281 1117.76 476.984 1119.47 476.984 1122.06ZM480.602 1122.57H485.165V1121.73H480.602V1118.02H486.075V1117.18H479.64V1126.93H480.602V1122.57ZM499.609 1124.27C498.92 1125.62 497.659 1126.36 496.19 1126.36C494.045 1126.36 492.329 1124.65 492.329 1122.06C492.329 1119.47 494.045 1117.76 496.19 1117.76C497.568 1117.76 498.79 1118.48 499.479 1119.66L500.259 1119.15C499.414 1117.74 497.932 1116.92 496.19 1116.92C493.46 1116.92 491.367 1119 491.367 1122.06C491.367 1125.11 493.46 1127.2 496.19 1127.2C497.997 1127.2 499.531 1126.3 500.35 1124.8L499.609 1124.27ZM505.703 1127.2C507.913 1127.2 509.473 1125.65 509.473 1123.24V1117.18H508.511V1123.24C508.511 1125.17 507.328 1126.36 505.703 1126.36C504.078 1126.36 502.895 1125.17 502.895 1123.24V1117.18H501.933V1123.24C501.933 1125.65 503.493 1127.2 505.703 1127.2ZM512.772 1117.18H511.81V1126.93H518.362V1126.1H512.772V1117.18ZM521.149 1126.93H522.111V1118.02H525.53V1117.18H517.73V1118.02H521.149V1126.93ZM530.725 1127.2C532.935 1127.2 534.495 1125.65 534.495 1123.24V1117.18H533.533V1123.24C533.533 1125.17 532.35 1126.36 530.725 1126.36C529.1 1126.36 527.917 1125.17 527.917 1123.24V1117.18H526.955V1123.24C526.955 1125.65 528.515 1127.2 530.725 1127.2ZM540.264 1123.29C540.511 1123.29 540.745 1123.28 540.966 1123.24L543.15 1126.93H544.307L541.876 1123.01C543.033 1122.54 543.722 1121.54 543.722 1120.24C543.722 1118.5 542.422 1117.18 540.277 1117.18H536.832V1126.93H537.794V1123.29H540.264ZM537.794 1122.46V1118.02H540.277C541.811 1118.02 542.76 1118.95 542.76 1120.24C542.76 1121.53 541.811 1122.46 540.277 1122.46H537.794ZM552.356 1126.93H553.331L549.158 1117.18H548.508L544.335 1126.93H545.31L546.402 1124.31H551.251L552.356 1126.93ZM548.833 1118.52L550.9 1123.48H546.753L548.833 1118.52ZM555.555 1117.18H554.593V1126.93H561.145V1126.1H555.555V1117.18ZM567.692 1117.18H566.73V1126.93H567.692V1117.18ZM576.582 1126.93H577.57V1117.18H576.608V1124.39L576.634 1125.56L576.062 1124.61L571.018 1117.18H570.03V1126.93H570.992V1119.45L570.966 1118.55L571.395 1119.33L576.582 1126.93ZM579.907 1117.18V1126.93H582.494C585.627 1126.93 587.707 1124.84 587.707 1122.06C587.707 1119.28 585.627 1117.18 582.494 1117.18H579.907ZM582.494 1118.02C585.016 1118.02 586.745 1119.72 586.745 1122.06C586.745 1124.4 585.016 1126.1 582.494 1126.1H580.869V1118.02H582.494ZM593.173 1127.2C595.383 1127.2 596.943 1125.65 596.943 1123.24V1117.18H595.981V1123.24C595.981 1125.17 594.798 1126.36 593.173 1126.36C591.548 1126.36 590.365 1125.17 590.365 1123.24V1117.18H589.403V1123.24C589.403 1125.65 590.963 1127.2 593.173 1127.2ZM604.792 1118.15C604.142 1117.43 603.18 1116.92 601.893 1116.92C600.073 1116.92 598.903 1118 598.903 1119.38C598.903 1120.46 599.475 1121.31 601.113 1121.99L602.53 1122.57C604.025 1123.19 604.272 1123.85 604.272 1124.43C604.272 1125.52 603.336 1126.36 601.906 1126.36C600.606 1126.36 599.488 1125.44 599.046 1124.57L598.396 1125.19C598.877 1126.05 600.151 1127.2 601.906 1127.2C603.895 1127.2 605.234 1125.93 605.234 1124.43C605.234 1122.61 603.635 1122.06 602.777 1121.7L601.386 1121.11C600.294 1120.64 599.865 1120.14 599.865 1119.38C599.865 1118.52 600.593 1117.76 601.893 1117.76C602.829 1117.76 603.622 1118.13 604.181 1118.72L604.792 1118.15ZM609.229 1126.93H610.191V1118.02H613.61V1117.18H605.81V1118.02H609.229V1126.93ZM618.467 1123.29C618.714 1123.29 618.948 1123.28 619.169 1123.24L621.353 1126.93H622.51L620.079 1123.01C621.236 1122.54 621.925 1121.54 621.925 1120.24C621.925 1118.5 620.625 1117.18 618.48 1117.18H615.035V1126.93H615.997V1123.29H618.467ZM615.997 1122.46V1118.02H618.48C620.014 1118.02 620.963 1118.95 620.963 1120.24C620.963 1121.53 620.014 1122.46 618.48 1122.46H615.997ZM624.579 1117.18H623.617V1126.93H624.579V1117.18ZM627.88 1122.35H632.573V1121.51H627.88V1118.02H633.47V1117.18H626.918V1126.93H633.678V1126.1H627.88V1122.35ZM640.669 1118.15C640.019 1117.43 639.057 1116.92 637.77 1116.92C635.95 1116.92 634.78 1118 634.78 1119.38C634.78 1120.46 635.352 1121.31 636.99 1121.99L638.407 1122.57C639.902 1123.19 640.149 1123.85 640.149 1124.43C640.149 1125.52 639.213 1126.36 637.783 1126.36C636.483 1126.36 635.365 1125.44 634.923 1124.57L634.273 1125.19C634.754 1126.05 636.028 1127.2 637.783 1127.2C639.772 1127.2 641.111 1125.93 641.111 1124.43C641.111 1122.61 639.512 1122.06 638.654 1121.7L637.263 1121.11C636.171 1120.64 635.742 1120.14 635.742 1119.38C635.742 1118.52 636.47 1117.76 637.77 1117.76C638.706 1117.76 639.499 1118.13 640.058 1118.72L640.669 1118.15ZM642.09 1127.65H643.338V1126.4H642.09V1127.65ZM656.356 1126.93H657.331L653.158 1117.18H652.508L648.335 1126.93H649.31L650.402 1124.31H655.251L656.356 1126.93ZM652.833 1118.52L654.9 1123.48H650.753L652.833 1118.52ZM659.555 1117.18H658.593V1126.93H665.145V1126.1H659.555V1117.18ZM667.426 1117.18H666.464V1126.93H673.016V1126.1H667.426V1117.18ZM682.033 1123.29C682.28 1123.29 682.514 1123.28 682.735 1123.24L684.919 1126.93H686.076L683.645 1123.01C684.802 1122.54 685.491 1121.54 685.491 1120.24C685.491 1118.5 684.191 1117.18 682.046 1117.18H678.601V1126.93H679.563V1123.29H682.033ZM679.563 1122.46V1118.02H682.046C683.58 1118.02 684.529 1118.95 684.529 1120.24C684.529 1121.53 683.58 1122.46 682.046 1122.46H679.563ZM688.145 1117.18H687.183V1126.93H688.145V1117.18ZM694.786 1122.53H698.4C698.322 1124.74 696.996 1126.36 694.643 1126.36C692.498 1126.36 690.808 1124.65 690.808 1122.06C690.808 1119.47 692.498 1117.76 694.643 1117.76C695.995 1117.76 697.204 1118.45 697.88 1119.63L698.673 1119.12C697.828 1117.76 696.372 1116.92 694.643 1116.92C691.913 1116.92 689.833 1119 689.833 1122.06C689.833 1125.11 691.913 1127.2 694.643 1127.2C697.672 1127.2 699.375 1125 699.349 1122.03C699.349 1121.9 699.349 1121.75 699.336 1121.71H694.786V1122.53ZM701.665 1117.18H700.703V1126.93H701.665V1122.22H707.281V1126.93H708.243V1117.18H707.281V1121.38H701.665V1117.18ZM713.089 1126.93H714.051V1118.02H717.47V1117.18H709.67V1118.02H713.089V1126.93ZM724.154 1118.15C723.504 1117.43 722.542 1116.92 721.255 1116.92C719.435 1116.92 718.265 1118 718.265 1119.38C718.265 1120.46 718.837 1121.31 720.475 1121.99L721.892 1122.57C723.387 1123.19 723.634 1123.85 723.634 1124.43C723.634 1125.52 722.698 1126.36 721.268 1126.36C719.968 1126.36 718.85 1125.44 718.408 1124.57L717.758 1125.19C718.239 1126.05 719.513 1127.2 721.268 1127.2C723.257 1127.2 724.596 1125.93 724.596 1124.43C724.596 1122.61 722.997 1122.06 722.139 1121.7L720.748 1121.11C719.656 1120.64 719.227 1120.14 719.227 1119.38C719.227 1118.52 719.955 1117.76 721.255 1117.76C722.191 1117.76 722.984 1118.13 723.543 1118.72L724.154 1118.15ZM733.779 1123.29C734.026 1123.29 734.26 1123.28 734.481 1123.24L736.665 1126.93H737.822L735.391 1123.01C736.548 1122.54 737.237 1121.54 737.237 1120.24C737.237 1118.5 735.937 1117.18 733.792 1117.18H730.347V1126.93H731.309V1123.29H733.779ZM731.309 1122.46V1118.02H733.792C735.326 1118.02 736.275 1118.95 736.275 1120.24C736.275 1121.53 735.326 1122.46 733.792 1122.46H731.309ZM739.891 1122.35H744.584V1121.51H739.891V1118.02H745.481V1117.18H738.929V1126.93H745.689V1126.1H739.891V1122.35ZM752.68 1118.15C752.03 1117.43 751.068 1116.92 749.781 1116.92C747.961 1116.92 746.791 1118 746.791 1119.38C746.791 1120.46 747.363 1121.31 749.001 1121.99L750.418 1122.57C751.913 1123.19 752.16 1123.85 752.16 1124.43C752.16 1125.52 751.224 1126.36 749.794 1126.36C748.494 1126.36 747.376 1125.44 746.934 1124.57L746.284 1125.19C746.765 1126.05 748.039 1127.2 749.794 1127.2C751.783 1127.2 753.122 1125.93 753.122 1124.43C753.122 1122.61 751.523 1122.06 750.665 1121.7L749.274 1121.11C748.182 1120.64 747.753 1120.14 747.753 1119.38C747.753 1118.52 748.481 1117.76 749.781 1117.76C750.717 1117.76 751.51 1118.13 752.069 1118.72L752.68 1118.15ZM755.57 1122.35H760.263V1121.51H755.57V1118.02H761.16V1117.18H754.608V1126.93H761.368V1126.1H755.57V1122.35ZM766.279 1123.29C766.526 1123.29 766.76 1123.28 766.981 1123.24L769.165 1126.93H770.322L767.891 1123.01C769.048 1122.54 769.737 1121.54 769.737 1120.24C769.737 1118.5 768.437 1117.18 766.292 1117.18H762.847V1126.93H763.809V1123.29H766.279ZM763.809 1122.46V1118.02H766.292C767.826 1118.02 768.775 1118.95 768.775 1120.24C768.775 1121.53 767.826 1122.46 766.292 1122.46H763.809ZM770.389 1117.18L774.38 1126.93H775.16L779.151 1117.18H778.137L775.03 1124.88L774.77 1125.69L774.51 1124.88L771.403 1117.18H770.389ZM781.417 1122.35H786.11V1121.51H781.417V1118.02H787.007V1117.18H780.455V1126.93H787.215V1126.1H781.417V1122.35ZM788.694 1117.18V1126.93H791.281C794.414 1126.93 796.494 1124.84 796.494 1122.06C796.494 1119.28 794.414 1117.18 791.281 1117.18H788.694ZM791.281 1118.02C793.803 1118.02 795.532 1119.72 795.532 1122.06C795.532 1124.4 793.803 1126.1 791.281 1126.1H789.656V1118.02H791.281ZM797.684 1127.65H798.932V1126.4H797.684V1127.65Z" fill="#2454A6"/>
<path d="M573.96 976.8C573.96 998.85 587.46 1012.17 602.4 1012.17C617.34 1012.17 630.84 998.85 630.84 976.8C630.84 954.75 617.34 941.43 602.4 941.43C587.46 941.43 573.96 954.75 573.96 976.8ZM626.79 976.8C626.79 996.6 614.91 1008.66 602.4 1008.66C589.89 1008.66 578.01 996.6 578.01 976.8C578.01 957 589.89 944.94 602.4 944.94C614.91 944.94 626.79 957 626.79 976.8ZM646.475 958.35L648.815 961.23L664.115 948.27V1010.37H668.165V943.23H664.475L646.475 958.35ZM693.004 1015.32H699.484V1008.84H693.004V1015.32ZM753.6 960.69C753.6 949.98 744.6 941.43 730.56 941.43C720.84 941.43 713.64 947.1 709.05 954.84L712.11 956.82C716.34 950.07 721.92 944.94 730.56 944.94C741.9 944.94 749.55 951.87 749.55 960.69C749.55 969.42 743.25 975.54 737.49 980.76L708.15 1007.04V1010.37H755.4V1006.86H713.1L739.83 983.19C746.49 977.34 753.6 970.77 753.6 960.69ZM800.193 988.14H766.173L800.193 948.81V988.14ZM761.223 991.65H800.193V1010.37H804.243V991.65H815.133V988.14H804.243V943.23H800.373L761.223 988.05V991.65ZM822.027 1015.32H828.507V1008.84H822.027V1015.32Z" fill="#2454A6"/>
<path d="M466 1020.21L516 970.21L466 920.21" stroke="#2454A6"/>
<path d="M516 970.506L40 970.506" stroke="#2454A6"/>
<path d="M0 1080L902 1080" stroke="#2454A6"/>
<g clip-path="url(#clip0_271_150)">
<path d="M40.87 1123.12C40.3129 1122.56 40.0002 1121.79 40.0002 1121C40.0002 1120.21 40.3129 1119.44 40.87 1118.88L48.5214 1111.18C49.1702 1110.53 49.5512 1110.19 51.0238 1110.19H61.1878C61.586 1110.17 61.9834 1110.24 62.3561 1110.38C62.7289 1110.52 63.0693 1110.74 63.3569 1111.02C63.6445 1111.29 63.8734 1111.63 64.0297 1111.99C64.186 1112.36 64.2666 1112.76 64.2666 1113.16C64.2666 1113.56 64.186 1113.96 64.0297 1114.32C63.8734 1114.69 63.6445 1115.02 63.3569 1115.3C63.0693 1115.58 62.7289 1115.8 62.3561 1115.94C61.9834 1116.08 61.586 1116.14 61.1878 1116.13H51.966L47.1003 1121L51.966 1125.87H61.1878C61.9717 1125.87 62.7234 1126.18 63.2777 1126.74C63.8319 1127.3 64.1433 1128.05 64.1433 1128.84C64.1433 1129.63 63.8319 1130.38 63.2777 1130.94C62.7234 1131.5 61.9717 1131.81 61.1878 1131.81H51.0341C49.5821 1131.81 49.1753 1131.47 48.5317 1130.82L40.87 1123.12Z" fill="#2454A6"/>
<path d="M71.9852 1131.09L62.8201 1121.87C62.5944 1121.64 62.4685 1121.32 62.4685 1120.99C62.4685 1120.66 62.5944 1120.35 62.8201 1120.11L71.9749 1110.91C72.2619 1110.62 72.6027 1110.39 72.9777 1110.24C73.3527 1110.08 73.7547 1110 74.1606 1110C74.5666 1110 74.9685 1110.08 75.3435 1110.24C75.7186 1110.39 76.0593 1110.62 76.3464 1110.91C76.6334 1111.2 76.8611 1111.54 77.0164 1111.92C77.1718 1112.3 77.2517 1112.7 77.2517 1113.11C77.2517 1113.51 77.1718 1113.92 77.0164 1114.3C76.8611 1114.67 76.6334 1115.01 76.3464 1115.3L70.6825 1120.99L76.3464 1126.69C76.7796 1127.12 77.075 1127.67 77.195 1128.28C77.315 1128.88 77.2542 1129.5 77.0204 1130.07C76.7866 1130.64 76.3902 1131.13 75.8816 1131.47C75.3729 1131.81 74.7749 1131.99 74.1632 1131.99C73.3474 1131.99 72.5644 1131.67 71.9852 1131.09V1131.09Z" fill="#2454A6"/>
<path d="M90.9746 1123.01C89.8134 1123.52 88.5674 1123.79 87.3034 1123.83C83.1842 1123.83 81.6395 1120.53 81.6395 1116.84C81.6395 1113.39 83.0246 1110.37 86.9532 1110.37C90.0169 1110.37 91.4998 1111.84 91.4998 1114.13H88.6833C88.6833 1113.09 88.3538 1111.61 86.773 1111.61C84.6053 1111.61 84.1986 1114.69 84.1986 1116.43C84.1986 1117.94 84.2603 1122.26 87.7204 1122.26C88.9097 1122.22 90.0468 1121.76 90.9385 1120.97L90.9746 1123.01Z" fill="#2454A6"/>
<path d="M94.275 1110.55H96.7414V1116.02H101.252V1110.55H103.718V1123.6H101.252V1117.52H96.7414V1123.6H94.275V1110.55Z" fill="#2454A6"/>
<path d="M116.436 1119.16C116.436 1121.48 115.952 1123.82 111.72 1123.82C107.487 1123.82 107.055 1121.49 107.055 1119.16V1110.55H109.516V1119.16C109.516 1121.21 109.835 1122.56 111.72 1122.56C113.712 1122.56 113.975 1121.21 113.975 1119.16V1110.55H116.436V1119.16Z" fill="#2454A6"/>
<path d="M119.773 1110.55H122.466L127.486 1120.25H127.522V1110.55H129.535V1123.6H127.089L121.822 1113.45H121.786V1123.6H119.773V1110.55Z" fill="#2454A6"/>
<path d="M142.315 1122.6C141.051 1123.38 139.601 1123.8 138.118 1123.81C134.04 1123.81 132.341 1120.79 132.341 1116.97C132.341 1113.15 133.567 1110.36 137.573 1110.36C140.394 1110.36 142.207 1111.49 142.207 1113.98H139.534C139.478 1113.19 139.385 1111.59 137.578 1111.59C134.947 1111.59 134.947 1115.01 134.947 1116.77C134.947 1119.9 135.534 1122.57 138.335 1122.57C138.614 1122.6 138.894 1122.56 139.16 1122.47C139.426 1122.39 139.67 1122.24 139.879 1122.06V1117.52H137.542V1115.97H142.341L142.315 1122.6Z" fill="#2454A6"/>
<path d="M146.177 1110.55H148.638V1116.25H148.679L152.855 1110.55H155.429L150.795 1116.44L155.944 1123.6H152.932L148.684 1117.28H148.643V1123.6H146.182L146.177 1110.55Z" fill="#2454A6"/>
<path d="M163.266 1112.75H163.302L165.053 1118.52H161.479L163.266 1112.75ZM157.7 1123.61H159.878L161.047 1119.9H165.465L166.597 1123.61H169.208L164.692 1110.57H162.174L157.7 1123.61Z" fill="#2454A6"/>
<path d="M171.494 1110.55H174.187L179.207 1120.25H179.243V1110.55H181.256V1123.6H178.79L173.523 1113.45H173.487V1123.6H171.473L171.494 1110.55Z" fill="#2454A6"/>
<path d="M194 1122.6C192.736 1123.38 191.286 1123.8 189.804 1123.81C185.726 1123.81 184.032 1120.79 184.032 1116.97C184.032 1113.15 185.252 1110.36 189.258 1110.36C192.085 1110.36 193.892 1111.49 193.892 1113.98H191.22C191.168 1113.19 191.07 1111.59 189.263 1111.59C186.632 1111.59 186.632 1115.01 186.632 1116.77C186.632 1119.9 187.214 1122.57 190.02 1122.57C190.295 1122.6 190.572 1122.56 190.833 1122.47C191.094 1122.38 191.335 1122.24 191.539 1122.06V1117.52H189.211V1115.97H194.005L194 1122.6Z" fill="#2454A6"/>
<path d="M114.392 1128.77C114.392 1127.42 114.392 1126.13 116.143 1126.13C117.893 1126.13 117.888 1127.42 117.888 1128.77C117.888 1130.12 117.888 1131.4 116.143 1131.4C114.397 1131.4 114.392 1130.1 114.392 1128.77ZM116.817 1128.77C116.817 1127.46 116.74 1126.89 116.143 1126.89C115.545 1126.89 115.468 1127.46 115.468 1128.77C115.468 1130.08 115.545 1130.63 116.143 1130.63C116.74 1130.63 116.817 1130.07 116.817 1128.77Z" fill="#2454A6"/>
<path d="M118.743 1131.29V1126.19H120.174L121.523 1129.73V1126.19H122.512V1131.29H121.122L119.742 1127.57V1131.29H118.743Z" fill="#2454A6"/>
<path d="M123.429 1131.29V1126.19H124.489V1130.45H126.075V1131.29H123.429Z" fill="#2454A6"/>
<path d="M126.956 1129.55L125.627 1126.22H126.786L127.542 1128.37L128.351 1126.22H129.432L128.016 1129.55V1131.29H126.956V1129.55Z" fill="#2454A6"/>
<path d="M131.996 1128.77C131.996 1127.42 131.996 1126.13 133.747 1126.13C135.498 1126.13 135.498 1127.42 135.498 1128.77C135.498 1130.12 135.498 1131.4 133.747 1131.4C131.996 1131.4 131.996 1130.1 131.996 1128.77ZM134.421 1128.77C134.421 1127.46 134.344 1126.89 133.747 1126.89C133.15 1126.89 133.072 1127.46 133.072 1128.77C133.072 1130.08 133.15 1130.63 133.747 1130.63C134.344 1130.63 134.421 1130.07 134.421 1128.77Z" fill="#2454A6"/>
<path d="M136.347 1131.29V1126.19H137.779L139.143 1129.74V1126.21H140.132V1131.29H138.736L137.351 1127.57V1131.29H136.347Z" fill="#2454A6"/>
<path d="M141.028 1131.29V1126.19H143.777V1126.98H142.073V1128.24H143.617V1129.02H142.073V1130.51H143.834V1131.29H141.028Z" fill="#2454A6"/>
<path d="M144.56 1130.38H145.481L144.967 1132H144.292L144.56 1130.38Z" fill="#2454A6"/>
<path d="M148.174 1128.77C148.174 1127.42 148.174 1126.13 149.92 1126.13C151.665 1126.13 151.67 1127.42 151.67 1128.77C151.67 1130.12 151.67 1131.4 149.92 1131.4C148.169 1131.4 148.174 1130.1 148.174 1128.77ZM150.594 1128.77C150.594 1127.46 150.517 1126.89 149.92 1126.89C149.323 1126.89 149.245 1127.46 149.245 1128.77C149.245 1130.08 149.323 1130.63 149.92 1130.63C150.517 1130.63 150.594 1130.07 150.594 1128.77Z" fill="#2454A6"/>
<path d="M152.53 1131.29V1126.19H153.967L155.311 1129.73V1126.19H156.305V1131.29H154.904L153.519 1127.57V1131.29H152.53Z" fill="#2454A6"/>
<path d="M157.206 1131.29V1126.19H158.266V1130.45H159.857V1131.29H157.206Z" fill="#2454A6"/>
<path d="M160.733 1129.55L159.404 1126.22H160.568L161.325 1128.37L162.133 1126.22H163.214L161.798 1129.55V1131.29H160.738L160.733 1129.55Z" fill="#2454A6"/>
<path d="M168.847 1126.22V1127.06H167.668V1131.29H166.608V1127.04H165.428V1126.19L168.847 1126.22Z" fill="#2454A6"/>
<path d="M171.654 1128.26V1126.22H172.714V1131.29H171.654V1129.02H170.438V1131.29H169.378V1126.19H170.438V1128.24L171.654 1128.26Z" fill="#2454A6"/>
<path d="M173.641 1131.29V1126.19H176.406V1126.98H174.702V1128.24H176.272V1129.02H174.702V1130.51H176.463V1131.29H173.641Z" fill="#2454A6"/>
<path d="M179.305 1131.29V1126.19H181.184C181.993 1126.19 182.662 1126.43 182.662 1127.51C182.687 1127.78 182.612 1128.04 182.451 1128.25C182.29 1128.46 182.056 1128.6 181.797 1128.64V1128.64C182.549 1128.75 182.744 1129.23 182.744 1129.93C182.744 1131.22 181.627 1131.28 181.2 1131.28L179.305 1131.29ZM180.366 1128.28H181.076C181.157 1128.28 181.236 1128.26 181.309 1128.23C181.382 1128.19 181.446 1128.14 181.498 1128.08C181.551 1128.02 181.589 1127.95 181.611 1127.87C181.633 1127.79 181.639 1127.71 181.627 1127.63C181.632 1127.54 181.62 1127.46 181.592 1127.38C181.563 1127.3 181.519 1127.23 181.462 1127.17C181.405 1127.11 181.337 1127.06 181.261 1127.03C181.184 1127 181.102 1126.98 181.019 1126.98H180.335L180.366 1128.28ZM180.366 1130.51H180.952C181.051 1130.53 181.152 1130.52 181.248 1130.49C181.344 1130.46 181.431 1130.41 181.502 1130.34C181.574 1130.27 181.628 1130.18 181.659 1130.09C181.691 1129.99 181.699 1129.89 181.684 1129.79C181.684 1129.34 181.514 1129.06 180.983 1129.06H180.335L180.366 1130.51Z" fill="#2454A6"/>
<path d="M183.563 1131.29V1126.19H186.328V1126.98H184.624V1128.24H186.194V1129.02H184.624V1130.51H186.385V1131.29H183.563Z" fill="#2454A6"/>
<path d="M188.449 1131.4C187.136 1131.4 186.905 1130.62 186.946 1129.74H188.007C188.007 1130.23 188.032 1130.63 188.614 1130.63C188.687 1130.63 188.759 1130.62 188.825 1130.59C188.892 1130.56 188.951 1130.52 189 1130.46C189.049 1130.41 189.085 1130.35 189.107 1130.28C189.13 1130.21 189.137 1130.13 189.129 1130.06C189.129 1129.14 186.992 1129.08 186.992 1127.57C186.992 1126.77 187.368 1126.13 188.661 1126.13C189.69 1126.13 190.205 1126.6 190.138 1127.69H189.108C189.108 1127.3 189.047 1126.91 188.619 1126.91C188.547 1126.91 188.473 1126.92 188.405 1126.94C188.336 1126.97 188.274 1127.01 188.222 1127.06C188.17 1127.11 188.129 1127.17 188.103 1127.24C188.076 1127.31 188.065 1127.38 188.068 1127.46C188.068 1128.43 190.205 1128.34 190.205 1129.95C190.221 1131.24 189.258 1131.4 188.449 1131.4Z" fill="#2454A6"/>
<path d="M194 1126.22V1127.06H192.821V1131.29H191.76V1127.04H190.581V1126.19L194 1126.22Z" fill="#2454A6"/>
</g>
<path d="M590 320L840 320" stroke="#2454A6"/>
<path d="M40 610H839" stroke="#2454A6"/>
<defs>
<clipPath id="clip0_271_150">
<rect width="154" height="22" fill="white" transform="translate(40 1110)"/>
</clipPath>
</defs>
</svg>
