<svg viewBox="0 0 278 50" fill="none" xmlns="http://www.w3.org/2000/svg">
<path d="M0.88 17.24L13.3 16.62V15.84L10.06 16L10.34 5.74H9.4L9.12 16.04L4.46 16.24L4.2 5.74H3.26L3.54 16.28L0.88 16.4V17.24ZM15.46 20.46V10.12H18.56V9.32H15.46V2.7H14.5V20.46H15.46ZM12.06 4.3V3.5H1.28V4.3H12.06ZM37.0867 18.62V17.82H29.0067V12.86H35.3667V12.04H22.6467V4.3H34.9667V3.5H21.6867V12.86H28.0467V17.82H19.5667V18.62H37.0867ZM54.5534 20.46V2.7H53.5934V20.46H54.5534ZM52.5934 17.22V16.42L38.9534 16.58V17.42L52.5934 17.22ZM45.4334 13.06C48.5734 13.06 50.7334 10.72 50.7334 8.1C50.7334 5.48 48.5734 3.14 45.4334 3.14C42.2934 3.14 40.1334 5.48 40.1334 8.1C40.1334 10.72 42.2934 13.06 45.4334 13.06ZM45.4334 3.94C48.1534 3.94 49.7734 5.94 49.7734 8.1C49.7734 10.26 48.1534 12.26 45.4334 12.26C42.7134 12.26 41.0934 10.26 41.0934 8.1C41.0934 5.94 42.7134 3.94 45.4334 3.94ZM64.2627 12.92L76.9027 12.42V11.64L73.3027 11.78L73.5627 4.12H75.5427V3.32H64.8027V4.12H66.8627L67.1427 11.98L64.2627 12.08V12.92ZM67.8027 4.12H72.6227L72.3627 11.8L68.0627 11.96L67.8027 4.12ZM78.8227 15.94H79.7827V2.7H78.8227V5.74H75.4227V6.52H78.8227V8.84H75.4227V9.62H78.8227V15.94ZM66.9427 14.74V20.26H80.2827V19.46H67.9027V14.74H66.9427ZM83.4294 17.82C85.8694 16.02 87.7894 13.86 88.9494 10.88C90.2094 13.48 92.1494 15.6 94.6294 17.24L95.3094 16.44C92.5294 14.8 90.4294 12.34 89.3294 9.76C89.8094 8.18 90.0894 6.38 90.1494 4.3H94.6494V3.5H83.7894V4.3H89.1294C88.9294 10.56 86.7094 14.44 82.7894 17.14L83.4294 17.82ZM98.9694 20.46V2.7H98.0094V20.46H98.9694ZM13.76 40.32C12.58 42.36 10.56 43.46 8.22 43.46C4.64 43.46 1.78 40.66 1.78 36.4C1.78 32.14 4.64 29.34 8.22 29.34C10.46 29.34 12.4 30.36 13.56 32.18L14.28 31.72C12.96 29.7 10.78 28.54 8.22 28.54C4.04 28.54 0.86 31.72 0.86 36.4C0.86 41.08 4.04 44.26 8.22 44.26C10.86 44.26 13.16 42.98 14.44 40.82L13.76 40.32ZM18.3473 28.94H17.4273V43.86H18.3473V36.08L27.0073 43.86H28.2873L19.4673 35.94L27.6673 28.94H26.4073L18.3473 35.86V28.94ZM37.6105 41.58H38.3305L44.4305 30.22V43.86H45.3505V28.94H44.1505L37.9705 40.52L31.8305 28.94H30.6305V43.86H31.5505V30.22L37.6105 41.58ZM61.0061 40.32C59.8261 42.36 57.8061 43.46 55.4661 43.46C51.8861 43.46 49.0261 40.66 49.0261 36.4C49.0261 32.14 51.8861 29.34 55.4661 29.34C57.7061 29.34 59.6461 30.36 60.8061 32.18L61.5261 31.72C60.2061 29.7 58.0261 28.54 55.4661 28.54C51.2861 28.54 48.1061 31.72 48.1061 36.4C48.1061 41.08 51.2861 44.26 55.4661 44.26C58.1061 44.26 60.4061 42.98 61.6861 40.82L61.0061 40.32ZM80.9734 43.32V42.52H77.4334C78.3934 39.1 79.0934 33.2 79.1334 28.5H65.3534V29.3H78.1734C78.1534 30.78 78.0334 32.72 77.8334 34.7L64.9534 34.86V35.66L77.7534 35.48C77.4734 38.08 77.0334 40.72 76.5134 42.52H63.4534V43.32H80.9734ZM84.7002 41.58V35.6H92.4202V28.38H83.7402V29.18H91.4602V34.82H83.7402V42.46L95.5402 41.82V41.04L84.7002 41.58ZM98.1202 45.46V27.7H97.1602V45.46H98.1202ZM105.967 28.66C103.287 28.66 101.127 31.08 101.127 34.52C101.127 37.96 103.287 40.38 105.967 40.38C108.547 40.38 110.647 38.14 110.787 34.9H113.287V45H114.227V27.9H113.287V34.1H110.787C110.627 30.88 108.527 28.66 105.967 28.66ZM105.967 39.58C103.667 39.58 102.067 37.54 102.067 34.52C102.067 31.5 103.667 29.46 105.967 29.46C108.267 29.46 109.867 31.5 109.867 34.52C109.867 37.54 108.267 39.58 105.967 39.58ZM116.747 45.44H117.687V27.7H116.747V45.44ZM136.094 45.46V27.7H135.134V45.46H136.094ZM126.254 40.5C129.354 40.5 131.814 37.9 131.814 34.54C131.814 31.18 129.354 28.58 126.254 28.58C123.154 28.58 120.694 31.18 120.694 34.54C120.694 37.9 123.154 40.5 126.254 40.5ZM126.254 39.7C123.614 39.7 121.654 37.48 121.654 34.54C121.654 31.6 123.614 29.38 126.254 29.38C128.894 29.38 130.854 31.6 130.854 34.54C130.854 37.48 128.894 39.7 126.254 39.7ZM154.78 45.46V27.7H153.82V45.46H154.78ZM149.28 34.82H141.36V29.18H149.52V28.38H140.4V42.46L152.2 41.82V41.04L141.36 41.58V35.6H149.28V34.82ZM175.407 43.42V42.62H157.887V43.42H175.407ZM172.327 28.3V32.3H160.967V28.3H160.007V38.46H173.287V28.3H172.327ZM160.967 37.66V33.1H172.327V37.66H160.967ZM183.576 42.24L193.596 41.72V40.96L190.976 41.08L191.236 30.86H190.296L190.056 41.12L186.816 41.26L186.576 30.86H185.636L185.896 41.3L183.576 41.4V42.24ZM192.356 35.44H194.896V45H195.836V27.9H194.896V34.64H192.356V35.44ZM198.656 45.44H199.596V27.7H198.656V45.44ZM192.836 29.42V28.62H183.936V29.42H192.836ZM208.363 40.5C211.343 40.5 213.723 38.1 213.903 34.92H217.243V45.46H218.203V27.7H217.243V34.12H213.903C213.723 30.98 211.323 28.58 208.363 28.58C205.263 28.58 202.803 31.18 202.803 34.54C202.803 37.9 205.263 40.5 208.363 40.5ZM208.363 39.7C205.723 39.7 203.763 37.48 203.763 34.54C203.763 31.6 205.723 29.38 208.363 29.38C211.003 29.38 212.963 31.6 212.963 34.54C212.963 37.48 211.003 39.7 208.363 39.7ZM237.792 32.82C237.792 30.44 235.792 28.54 232.672 28.54C230.512 28.54 228.912 29.8 227.892 31.52L228.572 31.96C229.512 30.46 230.752 29.32 232.672 29.32C235.192 29.32 236.892 30.86 236.892 32.82C236.892 34.76 235.492 36.12 234.212 37.28L227.692 43.12V43.86H238.192V43.08H228.792L234.732 37.82C236.212 36.52 237.792 35.06 237.792 32.82ZM239.786 36.4C239.786 41.3 242.786 44.26 246.106 44.26C249.426 44.26 252.426 41.3 252.426 36.4C252.426 31.5 249.426 28.54 246.106 28.54C242.786 28.54 239.786 31.5 239.786 36.4ZM251.526 36.4C251.526 40.8 248.886 43.48 246.106 43.48C243.326 43.48 240.686 40.8 240.686 36.4C240.686 32 243.326 29.32 246.106 29.32C248.886 29.32 251.526 32 251.526 36.4ZM264.101 32.82C264.101 30.44 262.101 28.54 258.981 28.54C256.821 28.54 255.221 29.8 254.201 31.52L254.881 31.96C255.821 30.46 257.061 29.32 258.981 29.32C261.501 29.32 263.201 30.86 263.201 32.82C263.201 34.76 261.801 36.12 260.521 37.28L254.001 43.12V43.86H264.501V43.08H255.101L261.041 37.82C262.521 36.52 264.101 35.06 264.101 32.82ZM276.015 32.82C276.015 30.44 274.015 28.54 270.895 28.54C268.735 28.54 267.135 29.8 266.115 31.52L266.795 31.96C267.735 30.46 268.975 29.32 270.895 29.32C273.415 29.32 275.115 30.86 275.115 32.82C275.115 34.76 273.715 36.12 272.435 37.28L265.915 43.12V43.86H276.415V43.08H267.015L272.955 37.82C274.435 36.52 276.015 35.06 276.015 32.82Z" fill="#2454A6"/>
<g clip-path="url(#clip0_465_98)">
<path d="M194.474 7.15712C194.171 6.84945 194 6.43352 194 6.00002C194 5.56651 194.171 5.15058 194.474 4.84291L198.648 0.64348C199.002 0.290705 199.21 0.104439 200.013 0.104439H205.557C205.774 0.0953237 205.991 0.130436 206.194 0.207666C206.397 0.284896 206.583 0.402651 206.74 0.553843C206.897 0.705036 207.022 0.886544 207.107 1.08746C207.192 1.28837 207.236 1.50455 207.236 1.72297C207.236 1.9414 207.192 2.15756 207.107 2.35848C207.022 2.55939 206.897 2.74091 206.74 2.8921C206.583 3.04329 206.397 3.16105 206.194 3.23828C205.991 3.31551 205.774 3.35062 205.557 3.3415H200.527L197.873 6.00002L200.527 8.65571H205.557C205.984 8.65571 206.394 8.82638 206.697 9.13018C206.999 9.43397 207.169 9.84601 207.169 10.2756C207.169 10.7053 206.999 11.1173 206.697 11.4211C206.394 11.7249 205.984 11.8956 205.557 11.8956H200.018C199.226 11.8956 199.005 11.7121 198.654 11.3566L194.474 7.15712Z" fill="#2454A6"/>
<path d="M211.447 11.5033L206.447 6.47697C206.324 6.34731 206.256 6.17499 206.256 5.99578C206.256 5.81658 206.324 5.64426 206.447 5.5146L211.441 0.496725C211.598 0.339398 211.783 0.214599 211.988 0.129454C212.192 0.0443098 212.412 0.000488286 212.633 0.000488281C212.855 0.000488277 213.074 0.0443098 213.278 0.129454C213.483 0.214599 213.669 0.339398 213.825 0.496725C213.982 0.654051 214.106 0.840824 214.191 1.04638C214.276 1.25194 214.319 1.47225 214.319 1.69475C214.319 1.91724 214.276 2.13756 214.191 2.34311C214.106 2.54867 213.982 2.73545 213.825 2.89277L210.736 5.9972L213.825 9.10162C214.062 9.33828 214.223 9.64011 214.288 9.96886C214.354 10.2976 214.321 10.6385 214.193 10.9483C214.066 11.2581 213.849 11.5229 213.572 11.7091C213.294 11.8954 212.968 11.9946 212.635 11.9944C212.19 11.9947 211.763 11.8182 211.447 11.5033Z" fill="#2454A6"/>
<path d="M221.804 7.09825C221.171 7.37255 220.491 7.52294 219.802 7.54134C217.555 7.54134 216.712 5.74642 216.712 3.73137C216.712 1.85178 217.468 0.203613 219.611 0.203613C221.282 0.203613 222.091 1.00229 222.091 2.25253H220.554C220.554 1.68809 220.375 0.88094 219.512 0.88094C218.33 0.88094 218.108 2.55733 218.108 3.50841C218.108 4.33249 218.142 6.68903 220.029 6.68903C220.678 6.66475 221.298 6.41544 221.785 5.98348L221.804 7.09825Z" fill="#2454A6"/>
<path d="M223.604 0.302734H224.95V3.2858H227.41V0.302734H228.755V7.4175H227.41V4.10142H224.95V7.4175H223.604V0.302734Z" fill="#2454A6"/>
<path d="M235.693 4.99888C235.693 6.26322 235.429 7.53886 233.12 7.53886C230.811 7.53886 230.575 6.26887 230.575 4.99888V0.302734H231.918V4.99888C231.918 6.11365 232.092 6.85024 233.12 6.85024C234.207 6.85024 234.35 6.11365 234.35 4.99888V0.302734H235.693V4.99888Z" fill="#2454A6"/>
<path d="M237.512 0.302734H238.981L241.72 5.58871H241.739V0.302734H242.837V7.4175H241.503L238.63 1.88317H238.611V7.4175H237.512V0.302734Z" fill="#2454A6"/>
<path d="M249.808 6.87264C249.119 7.29705 248.328 7.52531 247.519 7.53303C245.295 7.53303 244.368 5.88487 244.368 3.80209C244.368 1.7193 245.036 0.195312 247.221 0.195312C248.76 0.195312 249.749 0.813375 249.749 2.17085H248.291C248.261 1.74188 248.21 0.869818 247.224 0.869818C245.789 0.869818 245.789 2.73529 245.789 3.69202C245.789 5.40227 246.109 6.85853 247.637 6.85853C247.789 6.8715 247.942 6.85316 248.087 6.80464C248.232 6.75612 248.366 6.67842 248.48 6.57631V4.10406H247.205V3.2574H249.822L249.808 6.87264Z" fill="#2454A6"/>
<path d="M251.915 0.302734H253.257V3.40715H253.279L255.557 0.302734H256.961L254.434 3.51157L257.242 7.4175H255.599L253.282 3.97159H253.26V7.4175H251.917L251.915 0.302734Z" fill="#2454A6"/>
<path d="M261.236 1.4987H261.256L262.211 4.64827H260.261L261.236 1.4987ZM258.2 7.42532H259.388L260.025 5.4018H262.435L263.053 7.42532H264.477L262.014 0.310547H260.641L258.2 7.42532Z" fill="#2454A6"/>
<path d="M265.724 0.302734H267.193L269.931 5.58871H269.951V0.302734H271.049V7.4175H269.704L266.831 1.88317H266.811V7.4175H265.713L265.724 0.302734Z" fill="#2454A6"/>
<path d="M278 6.87264C277.311 7.29705 276.52 7.52531 275.711 7.53303C273.487 7.53303 272.563 5.88487 272.563 3.80209C272.563 1.7193 273.228 0.195312 275.413 0.195312C276.955 0.195312 277.941 0.813375 277.941 2.17085H276.483C276.455 1.74188 276.402 0.869818 275.416 0.869818C273.981 0.869818 273.981 2.73529 273.981 3.69202C273.981 5.40227 274.298 6.85853 275.829 6.85853C275.979 6.87122 276.13 6.85271 276.273 6.80415C276.415 6.75559 276.546 6.67803 276.658 6.57631V4.10406H275.388V3.2574H278.003L278 6.87264Z" fill="#2454A6"/>
<path d="M234.577 10.2363C234.577 9.49971 234.577 8.7998 235.532 8.7998C236.487 8.7998 236.484 9.49971 236.484 10.2363C236.484 10.9729 236.484 11.6728 235.532 11.6728C234.58 11.6728 234.577 10.9644 234.577 10.2363ZM235.9 10.2363C235.9 9.52229 235.858 9.21467 235.532 9.21467C235.207 9.21467 235.164 9.52229 235.164 10.2363C235.164 10.9503 235.207 11.2551 235.532 11.2551C235.858 11.2551 235.9 10.9475 235.9 10.2363Z" fill="#2454A6"/>
<path d="M236.951 11.6139V8.83398H237.731L238.467 10.7615V8.83398H239.007V11.6139H238.248L237.496 9.58187V11.6139H236.951Z" fill="#2454A6"/>
<path d="M239.507 11.6139V8.83398H240.085V11.1538H240.95V11.6139H239.507Z" fill="#2454A6"/>
<path d="M241.43 10.6622L240.706 8.84473H241.337L241.75 10.0188L242.191 8.84473H242.781L242.009 10.6622V11.6133H241.43V10.6622Z" fill="#2454A6"/>
<path d="M244.18 10.2363C244.18 9.49971 244.18 8.7998 245.135 8.7998C246.089 8.7998 246.089 9.49971 246.089 10.2363C246.089 10.9729 246.089 11.6728 245.135 11.6728C244.18 11.6728 244.18 10.9644 244.18 10.2363ZM245.502 10.2363C245.502 9.52229 245.46 9.21467 245.135 9.21467C244.809 9.21467 244.767 9.52229 244.767 10.2363C244.767 10.9503 244.809 11.2551 245.135 11.2551C245.46 11.2551 245.502 10.9475 245.502 10.2363Z" fill="#2454A6"/>
<path d="M246.553 11.6139V8.83398H247.334L248.078 10.7672V8.83963H248.617V11.6139H247.856L247.101 9.58187V11.6139H246.553Z" fill="#2454A6"/>
<path d="M249.106 11.6139V8.83398H250.606V9.26296H249.676V9.94876H250.519V10.3749H249.676V11.1877H250.637V11.6139H249.106Z" fill="#2454A6"/>
<path d="M251.033 11.1167H251.535L251.255 12H250.887L251.033 11.1167Z" fill="#2454A6"/>
<path d="M253.004 10.2363C253.004 9.49971 253.004 8.7998 253.956 8.7998C254.908 8.7998 254.911 9.49971 254.911 10.2363C254.911 10.9729 254.911 11.6728 253.956 11.6728C253.001 11.6728 253.004 10.9644 253.004 10.2363ZM254.324 10.2363C254.324 9.52229 254.282 9.21467 253.956 9.21467C253.63 9.21467 253.588 9.52229 253.588 10.2363C253.588 10.9503 253.63 11.2551 253.956 11.2551C254.282 11.2551 254.324 10.9475 254.324 10.2363Z" fill="#2454A6"/>
<path d="M255.38 11.6139V8.83398H256.164L256.897 10.7615V8.83398H257.439V11.6139H256.675L255.919 9.58187V11.6139H255.38Z" fill="#2454A6"/>
<path d="M257.93 11.6139V8.83398H258.509V11.1538H259.377V11.6139H257.93Z" fill="#2454A6"/>
<path d="M259.854 10.6622L259.13 8.84473H259.764L260.177 10.0188L260.618 8.84473H261.208L260.436 10.6622V11.6133H259.857L259.854 10.6622Z" fill="#2454A6"/>
<path d="M264.28 8.84528V9.30812H263.637V11.6139H263.059V9.29682H262.416V8.83398L264.28 8.84528Z" fill="#2454A6"/>
<path d="M265.811 9.96004V8.84528H266.39V11.6139H265.811V10.3749H265.148V11.6139H264.57V8.83398H265.148V9.94876L265.811 9.96004Z" fill="#2454A6"/>
<path d="M266.895 11.6139V8.83398H268.403V9.26296H267.474V9.94876H268.33V10.3749H267.474V11.1877H268.434V11.6139H266.895Z" fill="#2454A6"/>
<path d="M269.984 11.6139V8.83398H271.009C271.45 8.83398 271.816 8.96098 271.816 9.55365C271.829 9.69694 271.788 9.84016 271.701 9.95401C271.613 10.0678 271.485 10.1437 271.344 10.1661C271.754 10.2253 271.86 10.4906 271.86 10.8716C271.86 11.5772 271.251 11.6054 271.018 11.6054L269.984 11.6139ZM270.563 9.97133H270.95C270.994 9.9706 271.038 9.96046 271.077 9.94158C271.117 9.92271 271.152 9.89554 271.181 9.86188C271.209 9.82823 271.23 9.78886 271.242 9.74641C271.254 9.70397 271.257 9.65942 271.251 9.61573C271.254 9.57037 271.247 9.52493 271.232 9.48222C271.216 9.43951 271.192 9.40042 271.161 9.36738C271.13 9.33433 271.093 9.30802 271.051 9.29006C271.01 9.2721 270.965 9.26288 270.92 9.26296H270.546L270.563 9.97133ZM270.563 11.1877H270.883C270.937 11.1974 270.992 11.194 271.044 11.1778C271.096 11.1617 271.144 11.1332 271.183 11.0948C271.222 11.0564 271.251 11.0092 271.269 10.9572C271.286 10.9051 271.29 10.8496 271.282 10.7954C271.282 10.5499 271.189 10.3975 270.9 10.3975H270.546L270.563 11.1877Z" fill="#2454A6"/>
<path d="M272.307 11.6139V8.83398H273.815V9.26296H272.886V9.94876H273.742V10.3749H272.886V11.1877H273.846V11.6139H272.307Z" fill="#2454A6"/>
<path d="M274.972 11.6728C274.256 11.6728 274.13 11.2495 274.152 10.7669H274.731C274.731 11.0322 274.745 11.2551 275.062 11.2551C275.102 11.2554 275.141 11.2472 275.177 11.2311C275.214 11.215 275.246 11.1914 275.273 11.1618C275.299 11.1322 275.319 11.0973 275.331 11.0594C275.343 11.0215 275.347 10.9814 275.343 10.9419C275.343 10.4395 274.178 10.4085 274.178 9.58155C274.178 9.14694 274.383 8.7998 275.088 8.7998C275.649 8.7998 275.93 9.0538 275.894 9.64646H275.332C275.332 9.43762 275.298 9.22595 275.065 9.22595C275.025 9.2231 274.985 9.22876 274.948 9.24256C274.911 9.25637 274.877 9.278 274.848 9.30602C274.82 9.33404 274.798 9.36782 274.783 9.40511C274.769 9.44239 274.762 9.48233 274.765 9.52229C274.765 10.05 275.93 10.0049 275.93 10.8798C275.939 11.5881 275.413 11.6728 274.972 11.6728Z" fill="#2454A6"/>
<path d="M278 8.84528V9.30812H277.357V11.6139H276.778V9.29682H276.135V8.83398L278 8.84528Z" fill="#2454A6"/>
</g>
<defs>
<clipPath id="clip0_465_98">
<rect width="84" height="12" fill="white" transform="translate(194)"/>
</clipPath>
</defs>
</svg>
