<svg width="320" height="31" viewBox="0 0 320 31" fill="none" xmlns="http://www.w3.org/2000/svg">
<path d="M320 1H0" stroke="#8EAEC9"/>
<path d="M126.585 21.075L126.78 21.33L127.545 20.695V23.975H127.905V20.225H127.6L126.585 21.075ZM129.14 20.535H131.285L129.7 23.975H130.08L131.69 20.465V20.225H129.14V20.535ZM133.363 23.765C132.958 23.765 132.528 23.485 132.318 23.11L132.038 23.295C132.283 23.755 132.788 24.075 133.363 24.075C134.228 24.075 134.748 23.54 134.748 22.87C134.748 22.23 134.293 21.705 133.403 21.695L134.623 20.5V20.225H132.213V20.535H134.138L132.773 21.865L132.913 22.115C132.953 22.095 133.173 22 133.348 22C133.988 22 134.388 22.375 134.388 22.87C134.388 23.365 134.023 23.765 133.363 23.765ZM136.332 20.125C135.542 20.125 135.007 20.695 135.007 21.4C135.007 22.1 135.542 22.675 136.332 22.675C136.527 22.675 136.762 22.595 136.867 22.515L136.052 23.975H136.437L137.422 22.235C137.542 22.02 137.657 21.72 137.657 21.45C137.657 20.73 137.177 20.125 136.332 20.125ZM137.297 21.4C137.297 21.96 136.912 22.365 136.332 22.365C135.752 22.365 135.367 21.945 135.367 21.4C135.367 20.855 135.752 20.435 136.332 20.435C136.897 20.435 137.297 20.885 137.297 21.4ZM138.055 22.1C138.055 23.33 138.815 24.075 139.655 24.075C140.495 24.075 141.255 23.33 141.255 22.1C141.255 20.87 140.495 20.125 139.655 20.125C138.815 20.125 138.055 20.87 138.055 22.1ZM140.895 22.1C140.895 23.14 140.285 23.765 139.655 23.765C139.025 23.765 138.415 23.14 138.415 22.1C138.415 21.06 139.025 20.435 139.655 20.435C140.285 20.435 140.895 21.06 140.895 22.1ZM145.855 22.305C145.015 22.305 144.435 22.765 144.435 23.385C144.435 24.005 145.015 24.465 145.855 24.465C146.695 24.465 147.275 24.005 147.275 23.385C147.275 22.765 146.695 22.305 145.855 22.305ZM145.855 24.145C145.195 24.145 144.815 23.81 144.815 23.385C144.815 22.96 145.195 22.625 145.855 22.625C146.515 22.625 146.895 22.96 146.895 23.385C146.895 23.81 146.515 24.145 145.855 24.145ZM143.605 20.4H145.485C145.395 21.19 144.535 21.875 143.37 22.105L143.55 22.415C144.725 22.16 145.915 21.375 145.905 20.07H143.605V20.4ZM146.04 20.895H146.905V21.47H145.905V21.795H146.905V22.35H147.285V19.915H146.905V20.57H146.04V20.895ZM151.991 24.375V19.915H151.611V24.375H151.991ZM148.326 20.435H150.246C150.196 21.63 149.426 22.81 148.186 23.415L148.436 23.695C149.726 23.01 150.676 21.75 150.656 20.105H148.326V20.435ZM152.708 23.625V23.955H157.088V23.625H155.118V22.495H156.688V22.16H153.583V20.435H156.588V20.105H153.203V22.495H154.728V23.625H152.708ZM163.125 24.375V19.915H162.745V24.375H163.125ZM160.6 20.125C159.8 20.125 159.185 20.735 159.185 21.635C159.185 22.54 159.8 23.15 160.6 23.15C161.4 23.15 162.015 22.54 162.015 21.635C162.015 20.735 161.4 20.125 160.6 20.125ZM160.6 20.465C161.195 20.465 161.625 20.91 161.625 21.63C161.625 22.335 161.23 22.81 160.6 22.81C159.97 22.81 159.575 22.335 159.575 21.63C159.575 20.91 160.005 20.465 160.6 20.465ZM166.832 20.885V20.565H164.062V20.885H165.317C165.157 21.6 164.552 22.18 163.742 22.48L163.962 22.76C164.497 22.545 165.052 22.155 165.397 21.65C165.762 22.11 166.302 22.455 166.837 22.62L167.042 22.305C166.427 22.14 165.892 21.81 165.572 21.355C165.642 21.205 165.697 21.05 165.727 20.885H166.832ZM167.862 23.255V19.915H167.482V21.295H166.597V21.625H167.482V23.255H167.862ZM167.987 24.325V23.995H164.937V22.995H164.557V24.325H167.987ZM166.252 20.17V19.85H164.642V20.17H166.252ZM171.669 23.29C171.024 22.875 170.494 22.24 170.184 21.585C170.319 21.13 170.389 20.625 170.389 20.055H169.999C169.984 21.64 169.414 22.78 168.439 23.45L168.694 23.715C169.274 23.29 169.744 22.725 170.039 22C170.364 22.605 170.894 23.205 171.409 23.58L171.669 23.29ZM172.619 24.375V19.915H172.239V24.375H172.619ZM177.011 23.185H175.476V20.435H177.011V23.185ZM175.096 20.105V23.515H177.391V20.105H175.096ZM178.631 24.375V21.855H179.356V21.515H178.631V19.915H178.251V24.375H178.631ZM182.148 22.355C181.308 22.355 180.728 22.8 180.728 23.41C180.728 24.02 181.308 24.465 182.148 24.465C182.988 24.465 183.568 24.02 183.568 23.41C183.568 22.8 182.988 22.355 182.148 22.355ZM182.148 24.135C181.488 24.135 181.108 23.83 181.108 23.41C181.108 22.99 181.488 22.685 182.148 22.685C182.808 22.685 183.188 22.99 183.188 23.41C183.188 23.83 182.808 24.135 182.148 24.135ZM182.558 20.07H179.763V20.4H181.043C180.888 21.155 180.278 21.755 179.478 22.045L179.698 22.33C180.233 22.12 180.783 21.72 181.123 21.2C181.493 21.605 182.053 21.935 182.528 22.09L182.728 21.775C182.173 21.62 181.603 21.305 181.288 20.915C181.363 20.75 181.418 20.58 181.448 20.4H182.558V20.07ZM183.508 22.4V21.23H184.123V20.89H183.508V19.915H183.128V22.4H183.508ZM188.339 23.205V19.915H187.959V20.52H186.969V20.07H184.594V22.335H186.969V21.83H187.959V23.205H188.339ZM186.589 22.005H184.974V20.4H186.589V22.005ZM188.464 24.325V23.995H185.414V22.855H185.034V24.325H188.464ZM186.969 20.845H187.959V21.505H186.969V20.845ZM193.322 22.455C192.482 22.455 191.902 22.88 191.902 23.46C191.902 24.04 192.482 24.465 193.322 24.465C194.162 24.465 194.742 24.04 194.742 23.46C194.742 22.88 194.162 22.455 193.322 22.455ZM193.322 24.145C192.662 24.145 192.282 23.855 192.282 23.46C192.282 23.065 192.662 22.775 193.322 22.775C193.982 22.775 194.362 23.065 194.362 23.46C194.362 23.855 193.982 24.145 193.322 24.145ZM193.722 20.815V20.505H190.952V20.815H192.202C192.037 21.46 191.417 21.94 190.642 22.155L190.857 22.44C191.392 22.285 191.977 21.92 192.332 21.435C192.687 21.84 193.237 22.135 193.737 22.23L193.932 21.91C193.357 21.82 192.807 21.555 192.502 21.15C192.552 21.04 192.592 20.93 192.617 20.815H193.722ZM194.752 22.5V19.915H194.372V21.12H193.507V21.44H194.372V22.5H194.752ZM193.142 20.16V19.85H191.532V20.16H193.142ZM199.263 22.35V21.28H199.878V20.94H199.263V19.915H198.883V22.35H199.263ZM197.903 22.305C197.063 22.305 196.483 22.765 196.483 23.385C196.483 24.005 197.063 24.465 197.903 24.465C198.743 24.465 199.323 24.005 199.323 23.385C199.323 22.765 198.743 22.305 197.903 22.305ZM197.903 24.145C197.243 24.145 196.863 23.81 196.863 23.385C196.863 22.96 197.243 22.625 197.903 22.625C198.563 22.625 198.943 22.96 198.943 23.385C198.943 23.81 198.563 24.145 197.903 24.145ZM195.663 20.4H197.543C197.453 21.19 196.593 21.875 195.428 22.105L195.608 22.415C196.783 22.16 197.973 21.375 197.963 20.07H195.663V20.4ZM203.88 24.375V22H204.605V21.66H203.88V19.915H203.5V24.375H203.88ZM200.365 20.435H202.285C202.235 21.63 201.465 22.81 200.225 23.415L200.475 23.695C201.765 23.01 202.715 21.75 202.695 20.105H200.365V20.435ZM207.397 22.455C206.557 22.455 205.977 22.88 205.977 23.46C205.977 24.04 206.557 24.465 207.397 24.465C208.237 24.465 208.817 24.04 208.817 23.46C208.817 22.88 208.237 22.455 207.397 22.455ZM207.397 24.145C206.737 24.145 206.357 23.855 206.357 23.46C206.357 23.065 206.737 22.775 207.397 22.775C208.057 22.775 208.437 23.065 208.437 23.46C208.437 23.855 208.057 24.145 207.397 24.145ZM207.837 20.815V20.505H205.067V20.815H206.317C206.152 21.46 205.532 21.94 204.757 22.155L204.972 22.44C205.507 22.285 206.092 21.92 206.447 21.435C206.802 21.84 207.352 22.135 207.852 22.23L208.047 21.91C207.472 21.82 206.922 21.555 206.617 21.15C206.667 21.04 206.707 20.93 206.732 20.815H207.837ZM208.757 22.5V21.33H209.372V20.99H208.757V19.915H208.377V22.5H208.757ZM207.257 20.16V19.85H205.647V20.16H207.257ZM209.568 23.625V23.955H213.948V23.625H211.978V22.715H213.523V22.38H210.443V21.56H213.448V20.105H210.063V20.435H213.068V21.23H210.063V22.715H211.588V23.625H209.568ZM217.226 23.765C216.821 23.765 216.391 23.485 216.181 23.11L215.901 23.295C216.146 23.755 216.651 24.075 217.226 24.075C218.091 24.075 218.611 23.54 218.611 22.87C218.611 22.23 218.156 21.705 217.266 21.695L218.486 20.5V20.225H216.076V20.535H218.001L216.636 21.865L216.776 22.115C216.816 22.095 217.036 22 217.211 22C217.851 22 218.251 22.375 218.251 22.87C218.251 23.365 217.886 23.765 217.226 23.765ZM220.379 20.125C219.604 20.125 219.164 20.59 219.164 21.115C219.164 21.545 219.439 21.84 219.749 21.955C219.394 22.07 218.939 22.39 218.939 22.96C218.939 23.595 219.514 24.075 220.379 24.075C221.244 24.075 221.819 23.595 221.819 22.96C221.819 22.39 221.369 22.07 221.014 21.955C221.324 21.84 221.594 21.545 221.594 21.115C221.594 20.59 221.154 20.125 220.379 20.125ZM220.379 23.765C219.704 23.765 219.299 23.425 219.299 22.96C219.299 22.505 219.749 22.13 220.379 22.13C221.009 22.13 221.459 22.505 221.459 22.96C221.459 23.425 221.054 23.765 220.379 23.765ZM220.379 20.435C220.919 20.435 221.234 20.715 221.234 21.115C221.234 21.485 220.884 21.82 220.379 21.82C219.874 21.82 219.524 21.485 219.524 21.115C219.524 20.715 219.839 20.435 220.379 20.435ZM223.476 20.125C222.686 20.125 222.151 20.695 222.151 21.4C222.151 22.1 222.686 22.675 223.476 22.675C223.671 22.675 223.906 22.595 224.011 22.515L223.196 23.975H223.581L224.566 22.235C224.686 22.02 224.801 21.72 224.801 21.45C224.801 20.73 224.321 20.125 223.476 20.125ZM224.441 21.4C224.441 21.96 224.056 22.365 223.476 22.365C222.896 22.365 222.511 21.945 222.511 21.4C222.511 20.855 222.896 20.435 223.476 20.435C224.041 20.435 224.441 20.885 224.441 21.4ZM227.219 21.93H225.129V22.24H227.219V21.93ZM228.803 20.125C228.013 20.125 227.478 20.695 227.478 21.4C227.478 22.1 228.013 22.675 228.803 22.675C228.998 22.675 229.233 22.595 229.338 22.515L228.523 23.975H228.908L229.893 22.235C230.013 22.02 230.128 21.72 230.128 21.45C230.128 20.73 229.648 20.125 228.803 20.125ZM229.768 21.4C229.768 21.96 229.383 22.365 228.803 22.365C228.223 22.365 227.838 21.945 227.838 21.4C227.838 20.855 228.223 20.435 228.803 20.435C229.368 20.435 229.768 20.885 229.768 21.4ZM232.541 22.655H230.906L232.541 20.775V22.655ZM230.451 22.965H232.541V23.975H232.901V22.965H233.486V22.655H232.901V20.225H232.591L230.451 22.7V22.965ZM234.209 22.08C234.209 21.055 234.719 20.21 235.279 19.72L235.129 19.48C234.469 19.985 233.844 20.945 233.844 22.08C233.844 23.215 234.469 24.175 235.129 24.68L235.279 24.44C234.719 23.95 234.209 23.105 234.209 22.08ZM237.847 22.57C237.847 21.92 237.417 21.36 236.752 21.36C236.087 21.36 235.657 21.92 235.657 22.57C235.657 23.22 236.087 23.78 236.752 23.78C237.417 23.78 237.847 23.22 237.847 22.57ZM238.642 24.25V22.08H239.287V24.37H239.667V19.915H239.287V21.74H238.642V19.965H238.267V24.25H238.642ZM237.472 22.57C237.472 23.05 237.222 23.455 236.752 23.455C236.282 23.455 236.032 23.05 236.032 22.57C236.032 22.09 236.282 21.685 236.752 21.685C237.222 21.685 237.472 22.09 237.472 22.57ZM237.962 21.05V20.72H235.492V21.05H237.962ZM237.437 20.305V19.975H236.067V20.305H237.437ZM244.379 24.345V24.03H241.264V23.685H244.279V22.755H240.884V23.065H243.899V23.385H240.884V24.345H244.379ZM241.879 19.805C241.164 19.805 240.629 20.13 240.629 20.615C240.629 21.1 241.164 21.425 241.879 21.425C242.594 21.425 243.129 21.1 243.129 20.615C243.129 20.13 242.594 19.805 241.879 19.805ZM241.879 21.11C241.364 21.11 241.009 20.9 241.009 20.615C241.009 20.325 241.364 20.115 241.879 20.115C242.394 20.115 242.749 20.325 242.749 20.615C242.749 20.9 242.394 21.11 241.879 21.11ZM244.289 22.575V19.915H243.909V22.13H242.719V22.43H243.909V22.575H244.289ZM243.619 21.915V21.615L240.264 21.655V21.965L241.614 21.945V22.575H242.004V21.94L243.619 21.915ZM248.901 24.375V19.915H248.521V24.375H248.901ZM248.176 23.475V23.15L245.596 23.275V21.965H247.436V20.075H245.216V20.405H247.056V21.635H245.216V23.635L248.176 23.475ZM250.522 22.08C250.522 23.105 250.012 23.95 249.452 24.44L249.602 24.68C250.262 24.175 250.887 23.215 250.887 22.08C250.887 20.945 250.262 19.985 249.602 19.48L249.452 19.72C250.012 20.21 250.522 21.055 250.522 22.08ZM255.646 22.455C254.806 22.455 254.226 22.88 254.226 23.46C254.226 24.04 254.806 24.465 255.646 24.465C256.486 24.465 257.066 24.04 257.066 23.46C257.066 22.88 256.486 22.455 255.646 22.455ZM255.646 24.145C254.986 24.145 254.606 23.855 254.606 23.46C254.606 23.065 254.986 22.775 255.646 22.775C256.306 22.775 256.686 23.065 256.686 23.46C256.686 23.855 256.306 24.145 255.646 24.145ZM256.046 20.815V20.505H253.276V20.815H254.526C254.361 21.46 253.741 21.94 252.966 22.155L253.181 22.44C253.716 22.285 254.301 21.92 254.656 21.435C255.011 21.84 255.561 22.135 256.061 22.23L256.256 21.91C255.681 21.82 255.131 21.555 254.826 21.15C254.876 21.04 254.916 20.93 254.941 20.815H256.046ZM257.076 22.5V19.915H256.696V21.12H255.831V21.44H256.696V22.5H257.076ZM255.466 20.16V19.85H253.856V20.16H255.466ZM261.588 22.35V21.28H262.203V20.94H261.588V19.915H261.208V22.35H261.588ZM260.228 22.305C259.388 22.305 258.808 22.765 258.808 23.385C258.808 24.005 259.388 24.465 260.228 24.465C261.068 24.465 261.648 24.005 261.648 23.385C261.648 22.765 261.068 22.305 260.228 22.305ZM260.228 24.145C259.568 24.145 259.188 23.81 259.188 23.385C259.188 22.96 259.568 22.625 260.228 22.625C260.888 22.625 261.268 22.96 261.268 23.385C261.268 23.81 260.888 24.145 260.228 24.145ZM257.988 20.4H259.868C259.778 21.19 258.918 21.875 257.753 22.105L257.933 22.415C259.108 22.16 260.298 21.375 260.288 20.07H257.988V20.4ZM266.329 21.695V19.995H262.944V21.695H266.329ZM263.324 20.315H265.949V21.375H263.324V20.315ZM264.884 23.575V22.58H266.829V22.25H262.449V22.58H264.494V23.575H264.884ZM266.504 24.325V23.995H263.319V23.005H262.939V24.325H266.504ZM270.446 23.655V23.335L268.951 23.355V22.855C269.501 22.79 269.946 22.455 269.946 21.99C269.946 21.47 269.391 21.115 268.756 21.115C268.121 21.115 267.566 21.47 267.566 21.99C267.566 22.455 268.011 22.79 268.561 22.855V23.36L267.136 23.375V23.705L270.446 23.655ZM271.026 24.375V22.155H271.671V21.815H271.026V19.915H270.646V24.375H271.026ZM268.756 22.545C268.271 22.545 267.946 22.31 267.946 21.99C267.946 21.67 268.271 21.435 268.756 21.435C269.241 21.435 269.566 21.67 269.566 21.99C269.566 22.31 269.241 22.545 268.756 22.545ZM270.246 20.93V20.6H267.266V20.93H270.246ZM267.931 19.975V20.305H269.581V19.975H267.931ZM274.943 22.155C274.343 21.915 273.813 21.49 273.528 20.945C273.643 20.65 273.708 20.33 273.718 19.995H273.328C273.273 20.99 272.733 21.89 271.773 22.325L272.013 22.59C272.583 22.305 273.068 21.85 273.373 21.29C273.698 21.795 274.208 22.22 274.713 22.45L274.943 22.155ZM275.948 24.325V23.995H272.948V22.855H272.568V24.325H275.948ZM275.803 23.205V21.405H276.418V21.065H275.803V19.915H275.423V23.205H275.803ZM278.039 19.88C277.334 19.88 276.769 20.365 276.769 21.045C276.769 21.725 277.334 22.21 278.039 22.21C278.684 22.21 279.214 21.8 279.294 21.205H280.254V22.275H280.634V19.915H280.254V20.875H279.294C279.209 20.285 278.684 19.88 278.039 19.88ZM280.244 22.505V23.045H277.704V22.505H277.324V24.345H280.624V22.505H280.244ZM278.039 21.89C277.504 21.89 277.149 21.535 277.149 21.045C277.149 20.555 277.504 20.2 278.039 20.2C278.574 20.2 278.929 20.555 278.929 21.045C278.929 21.535 278.574 21.89 278.039 21.89ZM277.704 24.015V23.365H280.244V24.015H277.704ZM284.351 24.25V21.93H285.071V24.37H285.451V19.915H285.071V21.59H284.351V19.965H283.976V24.25H284.351ZM281.626 20.135V23.565L283.726 23.445V23.12L282.001 23.195V20.465H283.416V20.135H281.626ZM289.968 22.77V21.555H290.583V21.215H289.968V19.915H289.588V22.77H289.968ZM289.958 24.395V23.02H286.558V23.34H289.578V24.395H289.958ZM288.418 20.17V19.85H286.748V20.17H288.418ZM289.068 20.785V20.465H286.098V20.785H289.068ZM287.623 22.705C288.348 22.705 288.853 22.34 288.853 21.85C288.853 21.36 288.348 20.995 287.623 20.995C286.898 20.995 286.393 21.36 286.393 21.85C286.393 22.34 286.898 22.705 287.623 22.705ZM287.623 22.395C287.113 22.395 286.773 22.2 286.773 21.85C286.773 21.5 287.113 21.305 287.623 21.305C288.133 21.305 288.473 21.5 288.473 21.85C288.473 22.2 288.133 22.395 287.623 22.395ZM290.779 23.625V23.955H295.159V23.625H293.544V21.85H293.159V23.625H292.294V21.85H291.909V23.625H290.779ZM294.444 22.945C294.639 22.13 294.729 21.115 294.729 20.125H291.204V20.455H294.339C294.339 21.11 294.249 22.14 294.074 22.945H294.444ZM128.36 26.08C127.2 26.08 126.255 27.035 126.255 28.21C126.255 29.385 127.2 30.34 128.36 30.34C129.52 30.34 130.465 29.385 130.465 28.21C130.465 27.035 129.52 26.08 128.36 26.08ZM128.36 26.27C129.41 26.27 130.26 27.14 130.26 28.21C130.26 29.28 129.41 30.15 128.36 30.15C127.31 30.15 126.46 29.28 126.46 28.21C126.46 27.14 127.31 26.27 128.36 26.27ZM128.905 28.62C128.845 28.82 128.675 29 128.39 29C128.035 29 127.8 28.65 127.8 28.21C127.8 27.785 128.035 27.43 128.39 27.43C128.725 27.43 128.87 27.65 128.91 27.815H129.295C129.235 27.485 128.915 27.125 128.39 27.125C127.795 27.125 127.425 27.615 127.425 28.21C127.425 28.815 127.795 29.305 128.39 29.305C128.91 29.305 129.2 28.985 129.295 28.62H128.905ZM134.087 28.95C133.822 29.47 133.337 29.755 132.772 29.755C131.947 29.755 131.287 29.095 131.287 28.1C131.287 27.105 131.947 26.445 132.772 26.445C133.302 26.445 133.772 26.725 134.037 27.175L134.337 26.98C134.012 26.44 133.442 26.125 132.772 26.125C131.722 26.125 130.917 26.925 130.917 28.1C130.917 29.275 131.722 30.075 132.772 30.075C133.467 30.075 134.057 29.73 134.372 29.155L134.087 28.95ZM135.424 26.225H135.054V29.975H135.424V28.16H137.584V29.975H137.954V26.225H137.584V27.84H135.424V26.225ZM140.302 30.075C141.152 30.075 141.752 29.48 141.752 28.555V26.225H141.382V28.555C141.382 29.295 140.927 29.755 140.302 29.755C139.677 29.755 139.222 29.295 139.222 28.555V26.225H138.852V28.555C138.852 29.48 139.452 30.075 140.302 30.075ZM145.171 29.975H145.551V26.225H145.181V28.995L145.191 29.445L144.971 29.08L143.031 26.225H142.651V29.975H143.021V27.095L143.011 26.75L143.176 27.05L145.171 29.975ZM148.105 28.28H149.495C149.465 29.13 148.955 29.755 148.05 29.755C147.225 29.755 146.575 29.095 146.575 28.1C146.575 27.105 147.225 26.445 148.05 26.445C148.57 26.445 149.035 26.71 149.295 27.165L149.6 26.97C149.275 26.445 148.715 26.125 148.05 26.125C147 26.125 146.2 26.925 146.2 28.1C146.2 29.275 147 30.075 148.05 30.075C149.215 30.075 149.87 29.23 149.86 28.09C149.86 28.04 149.86 27.98 149.855 27.965H148.105V28.28ZM152.726 29.975H153.231L151.186 27.99L153.081 26.225H152.591L150.751 27.975V26.225H150.381V29.975H150.751V28.02L152.726 29.975ZM156.351 29.975H156.726L155.121 26.225H154.871L153.266 29.975H153.641L154.061 28.965H155.926L156.351 29.975ZM154.996 26.74L155.791 28.645H154.196L154.996 26.74ZM159.732 29.975H160.112V26.225H159.742V28.995L159.752 29.445L159.532 29.08L157.592 26.225H157.212V29.975H157.582V27.095L157.572 26.75L157.737 27.05L159.732 29.975ZM162.666 28.28H164.056C164.026 29.13 163.516 29.755 162.611 29.755C161.786 29.755 161.136 29.095 161.136 28.1C161.136 27.105 161.786 26.445 162.611 26.445C163.131 26.445 163.596 26.71 163.856 27.165L164.161 26.97C163.836 26.445 163.276 26.125 162.611 26.125C161.561 26.125 160.761 26.925 160.761 28.1C160.761 29.275 161.561 30.075 162.611 30.075C163.776 30.075 164.431 29.23 164.421 28.09C164.421 28.04 164.421 27.98 164.416 27.965H162.666V28.28ZM169.497 28.95C169.232 29.47 168.747 29.755 168.182 29.755C167.357 29.755 166.697 29.095 166.697 28.1C166.697 27.105 167.357 26.445 168.182 26.445C168.712 26.445 169.182 26.725 169.447 27.175L169.747 26.98C169.422 26.44 168.852 26.125 168.182 26.125C167.132 26.125 166.327 26.925 166.327 28.1C166.327 29.275 167.132 30.075 168.182 30.075C168.877 30.075 169.467 29.73 169.782 29.155L169.497 28.95ZM170.214 28.1C170.214 29.275 171.014 30.075 172.064 30.075C173.114 30.075 173.914 29.275 173.914 28.1C173.914 26.925 173.114 26.125 172.064 26.125C171.014 26.125 170.214 26.925 170.214 28.1ZM173.544 28.1C173.544 29.095 172.889 29.755 172.064 29.755C171.239 29.755 170.584 29.095 170.584 28.1C170.584 27.105 171.239 26.445 172.064 26.445C172.889 26.445 173.544 27.105 173.544 28.1ZM174.935 26.225H174.565V29.975H177.085V29.655H174.935V26.225ZM177.963 26.225H177.593V29.975H180.113V29.655H177.963V26.225ZM180.99 28.21H182.795V27.89H180.99V26.545H183.14V26.225H180.62V29.975H183.22V29.655H180.99V28.21ZM185.444 28.28H186.834C186.804 29.13 186.294 29.755 185.389 29.755C184.564 29.755 183.914 29.095 183.914 28.1C183.914 27.105 184.564 26.445 185.389 26.445C185.909 26.445 186.374 26.71 186.634 27.165L186.939 26.97C186.614 26.445 186.054 26.125 185.389 26.125C184.339 26.125 183.539 26.925 183.539 28.1C183.539 29.275 184.339 30.075 185.389 30.075C186.554 30.075 187.209 29.23 187.199 28.09C187.199 28.04 187.199 27.98 187.194 27.965H185.444V28.28ZM188.09 28.21H189.895V27.89H188.09V26.545H190.24V26.225H187.72V29.975H190.32V29.655H188.09V28.21ZM192.279 28.1C192.279 29.275 193.079 30.075 194.129 30.075C195.179 30.075 195.979 29.275 195.979 28.1C195.979 26.925 195.179 26.125 194.129 26.125C193.079 26.125 192.279 26.925 192.279 28.1ZM195.609 28.1C195.609 29.095 194.954 29.755 194.129 29.755C193.304 29.755 192.649 29.095 192.649 28.1C192.649 27.105 193.304 26.445 194.129 26.445C194.954 26.445 195.609 27.105 195.609 28.1ZM197.001 28.295H198.756V27.975H197.001V26.545H199.106V26.225H196.631V29.975H197.001V28.295ZM204.311 28.95C204.046 29.47 203.561 29.755 202.996 29.755C202.171 29.755 201.511 29.095 201.511 28.1C201.511 27.105 202.171 26.445 202.996 26.445C203.526 26.445 203.996 26.725 204.261 27.175L204.561 26.98C204.236 26.44 203.666 26.125 202.996 26.125C201.946 26.125 201.141 26.925 201.141 28.1C201.141 29.275 201.946 30.075 202.996 30.075C203.691 30.075 204.281 29.73 204.596 29.155L204.311 28.95ZM206.655 30.075C207.505 30.075 208.105 29.48 208.105 28.555V26.225H207.735V28.555C207.735 29.295 207.28 29.755 206.655 29.755C206.03 29.755 205.575 29.295 205.575 28.555V26.225H205.205V28.555C205.205 29.48 205.805 30.075 206.655 30.075ZM209.374 26.225H209.004V29.975H211.524V29.655H209.374V26.225ZM212.596 29.975H212.966V26.545H214.281V26.225H211.281V26.545H212.596V29.975ZM216.279 30.075C217.129 30.075 217.729 29.48 217.729 28.555V26.225H217.359V28.555C217.359 29.295 216.904 29.755 216.279 29.755C215.654 29.755 215.199 29.295 215.199 28.555V26.225H214.829V28.555C214.829 29.48 215.429 30.075 216.279 30.075ZM219.948 28.575C220.043 28.575 220.133 28.57 220.218 28.555L221.058 29.975H221.503L220.568 28.465C221.013 28.285 221.278 27.9 221.278 27.4C221.278 26.73 220.778 26.225 219.953 26.225H218.628V29.975H218.998V28.575H219.948ZM218.998 28.255V26.545H219.953C220.543 26.545 220.908 26.905 220.908 27.4C220.908 27.895 220.543 28.255 219.953 28.255H218.998ZM224.599 29.975H224.974L223.369 26.225H223.119L221.514 29.975H221.889L222.309 28.965H224.174L224.599 29.975ZM223.244 26.74L224.039 28.645H222.444L223.244 26.74ZM225.829 26.225H225.459V29.975H227.979V29.655H225.829V26.225ZM230.497 26.225H230.127V29.975H230.497V26.225ZM233.916 29.975H234.296V26.225H233.926V28.995L233.936 29.445L233.716 29.08L231.776 26.225H231.396V29.975H231.766V27.095L231.756 26.75L231.921 27.05L233.916 29.975ZM235.195 26.225V29.975H236.19C237.395 29.975 238.195 29.17 238.195 28.1C238.195 27.03 237.395 26.225 236.19 26.225H235.195ZM236.19 26.545C237.16 26.545 237.825 27.2 237.825 28.1C237.825 29 237.16 29.655 236.19 29.655H235.565V26.545H236.19ZM240.297 30.075C241.147 30.075 241.747 29.48 241.747 28.555V26.225H241.377V28.555C241.377 29.295 240.922 29.755 240.297 29.755C239.672 29.755 239.217 29.295 239.217 28.555V26.225H238.847V28.555C238.847 29.48 239.447 30.075 240.297 30.075ZM244.766 26.595C244.516 26.32 244.146 26.125 243.651 26.125C242.951 26.125 242.501 26.54 242.501 27.07C242.501 27.485 242.721 27.81 243.351 28.075L243.896 28.295C244.471 28.535 244.566 28.79 244.566 29.01C244.566 29.43 244.206 29.755 243.656 29.755C243.156 29.755 242.726 29.4 242.556 29.065L242.306 29.305C242.491 29.635 242.981 30.075 243.656 30.075C244.421 30.075 244.936 29.59 244.936 29.01C244.936 28.31 244.321 28.1 243.991 27.96L243.456 27.735C243.036 27.555 242.871 27.36 242.871 27.07C242.871 26.74 243.151 26.445 243.651 26.445C244.011 26.445 244.316 26.59 244.531 26.815L244.766 26.595ZM246.473 29.975H246.843V26.545H248.158V26.225H245.158V26.545H246.473V29.975ZM250.026 28.575C250.121 28.575 250.211 28.57 250.296 28.555L251.136 29.975H251.581L250.646 28.465C251.091 28.285 251.356 27.9 251.356 27.4C251.356 26.73 250.856 26.225 250.031 26.225H248.706V29.975H249.076V28.575H250.026ZM249.076 28.255V26.545H250.031C250.621 26.545 250.986 26.905 250.986 27.4C250.986 27.895 250.621 28.255 250.031 28.255H249.076ZM252.377 26.225H252.007V29.975H252.377V26.225ZM253.646 28.21H255.451V27.89H253.646V26.545H255.796V26.225H253.276V29.975H255.876V29.655H253.646V28.21ZM258.565 26.595C258.315 26.32 257.945 26.125 257.45 26.125C256.75 26.125 256.3 26.54 256.3 27.07C256.3 27.485 256.52 27.81 257.15 28.075L257.695 28.295C258.27 28.535 258.365 28.79 258.365 29.01C258.365 29.43 258.005 29.755 257.455 29.755C256.955 29.755 256.525 29.4 256.355 29.065L256.105 29.305C256.29 29.635 256.78 30.075 257.455 30.075C258.22 30.075 258.735 29.59 258.735 29.01C258.735 28.31 258.12 28.1 257.79 27.96L257.255 27.735C256.835 27.555 256.67 27.36 256.67 27.07C256.67 26.74 256.95 26.445 257.45 26.445C257.81 26.445 258.115 26.59 258.33 26.815L258.565 26.595ZM259.111 30.25H259.591V29.77H259.111V30.25ZM264.599 29.975H264.974L263.369 26.225H263.119L261.514 29.975H261.889L262.309 28.965H264.174L264.599 29.975ZM263.244 26.74L264.039 28.645H262.444L263.244 26.74ZM265.829 26.225H265.459V29.975H267.979V29.655H265.829V26.225ZM268.856 26.225H268.486V29.975H271.006V29.655H268.856V26.225ZM274.474 28.575C274.569 28.575 274.659 28.57 274.744 28.555L275.584 29.975H276.029L275.094 28.465C275.539 28.285 275.804 27.9 275.804 27.4C275.804 26.73 275.304 26.225 274.479 26.225H273.154V29.975H273.524V28.575H274.474ZM273.524 28.255V26.545H274.479C275.069 26.545 275.434 26.905 275.434 27.4C275.434 27.895 275.069 28.255 274.479 28.255H273.524ZM276.825 26.225H276.455V29.975H276.825V26.225ZM279.379 28.28H280.769C280.739 29.13 280.229 29.755 279.324 29.755C278.499 29.755 277.849 29.095 277.849 28.1C277.849 27.105 278.499 26.445 279.324 26.445C279.844 26.445 280.309 26.71 280.569 27.165L280.874 26.97C280.549 26.445 279.989 26.125 279.324 26.125C278.274 26.125 277.474 26.925 277.474 28.1C277.474 29.275 278.274 30.075 279.324 30.075C280.489 30.075 281.144 29.23 281.134 28.09C281.134 28.04 281.134 27.98 281.129 27.965H279.379V28.28ZM282.025 26.225H281.655V29.975H282.025V28.16H284.185V29.975H284.555V26.225H284.185V27.84H282.025V26.225ZM286.419 29.975H286.789V26.545H288.104V26.225H285.104V26.545H286.419V29.975ZM290.674 26.595C290.424 26.32 290.054 26.125 289.559 26.125C288.859 26.125 288.409 26.54 288.409 27.07C288.409 27.485 288.629 27.81 289.259 28.075L289.804 28.295C290.379 28.535 290.474 28.79 290.474 29.01C290.474 29.43 290.114 29.755 289.564 29.755C289.064 29.755 288.634 29.4 288.464 29.065L288.214 29.305C288.399 29.635 288.889 30.075 289.564 30.075C290.329 30.075 290.844 29.59 290.844 29.01C290.844 28.31 290.229 28.1 289.899 27.96L289.364 27.735C288.944 27.555 288.779 27.36 288.779 27.07C288.779 26.74 289.059 26.445 289.559 26.445C289.919 26.445 290.224 26.59 290.439 26.815L290.674 26.595ZM294.376 28.575C294.471 28.575 294.561 28.57 294.646 28.555L295.486 29.975H295.931L294.996 28.465C295.441 28.285 295.706 27.9 295.706 27.4C295.706 26.73 295.206 26.225 294.381 26.225H293.056V29.975H293.426V28.575H294.376ZM293.426 28.255V26.545H294.381C294.971 26.545 295.336 26.905 295.336 27.4C295.336 27.895 294.971 28.255 294.381 28.255H293.426ZM296.727 28.21H298.532V27.89H296.727V26.545H298.877V26.225H296.357V29.975H298.957V29.655H296.727V28.21ZM301.646 26.595C301.396 26.32 301.026 26.125 300.531 26.125C299.831 26.125 299.381 26.54 299.381 27.07C299.381 27.485 299.601 27.81 300.231 28.075L300.776 28.295C301.351 28.535 301.446 28.79 301.446 29.01C301.446 29.43 301.086 29.755 300.536 29.755C300.036 29.755 299.606 29.4 299.436 29.065L299.186 29.305C299.371 29.635 299.861 30.075 300.536 30.075C301.301 30.075 301.816 29.59 301.816 29.01C301.816 28.31 301.201 28.1 300.871 27.96L300.336 27.735C299.916 27.555 299.751 27.36 299.751 27.07C299.751 26.74 300.031 26.445 300.531 26.445C300.891 26.445 301.196 26.59 301.411 26.815L301.646 26.595ZM302.758 28.21H304.563V27.89H302.758V26.545H304.908V26.225H302.388V29.975H304.988V29.655H302.758V28.21ZM306.876 28.575C306.971 28.575 307.061 28.57 307.146 28.555L307.986 29.975H308.431L307.496 28.465C307.941 28.285 308.206 27.9 308.206 27.4C308.206 26.73 307.706 26.225 306.881 26.225H305.556V29.975H305.926V28.575H306.876ZM305.926 28.255V26.545H306.881C307.471 26.545 307.836 26.905 307.836 27.4C307.836 27.895 307.471 28.255 306.881 28.255H305.926ZM308.457 26.225L309.992 29.975H310.292L311.827 26.225H311.437L310.242 29.185L310.142 29.495L310.042 29.185L308.847 26.225H308.457ZM312.699 28.21H314.504V27.89H312.699V26.545H314.849V26.225H312.329V29.975H314.929V29.655H312.699V28.21ZM315.498 26.225V29.975H316.493C317.698 29.975 318.498 29.17 318.498 28.1C318.498 27.03 317.698 26.225 316.493 26.225H315.498ZM316.493 26.545C317.463 26.545 318.128 27.2 318.128 28.1C318.128 29 317.463 29.655 316.493 29.655H315.868V26.545H316.493ZM318.955 30.25H319.435V29.77H318.955V30.25Z" fill="#8EAEC9"/>
<g clip-path="url(#clip0_441_132)">
<path d="M3.35596 27.3677C3.12803 27.137 3.00012 26.825 3.00012 26.4999C3.00012 26.1748 3.12803 25.8628 3.35596 25.6321L6.48606 22.4825C6.75146 22.2179 6.90733 22.0782 7.50976 22.0782H11.6678C11.8307 22.0714 11.9932 22.0977 12.1457 22.1556C12.2982 22.2135 12.4375 22.3019 12.5551 22.4153C12.6728 22.5287 12.7664 22.6648 12.8304 22.8155C12.8943 22.9662 12.9273 23.1283 12.9273 23.2921C12.9273 23.4559 12.8943 23.6181 12.8304 23.7687C12.7664 23.9194 12.6728 24.0556 12.5551 24.169C12.4375 24.2823 12.2982 24.3707 12.1457 24.4286C11.9932 24.4865 11.8307 24.5128 11.6678 24.506H7.89523L5.90469 26.4999L7.89523 28.4917H11.6678C11.9884 28.4917 12.296 28.6197 12.5227 28.8475C12.7495 29.0754 12.8768 29.3844 12.8768 29.7066C12.8768 30.0288 12.7495 30.3379 12.5227 30.5657C12.296 30.7936 11.9884 30.9216 11.6678 30.9216H7.51397C6.91997 30.9216 6.75357 30.784 6.49027 30.5173L3.35596 27.3677Z" fill="#8EAEC9"/>
<path d="M16.0849 30.6271L12.3355 26.8574C12.2432 26.7601 12.1917 26.6309 12.1917 26.4965C12.1917 26.3621 12.2432 26.2328 12.3355 26.1356L16.0806 22.3722C16.1981 22.2542 16.3375 22.1606 16.4909 22.0967C16.6443 22.0329 16.8088 22 16.9748 22C17.1409 22 17.3053 22.0329 17.4587 22.0967C17.6121 22.1606 17.7516 22.2542 17.869 22.3722C17.9864 22.4902 18.0795 22.6303 18.1431 22.7844C18.2066 22.9386 18.2393 23.1038 18.2393 23.2707C18.2393 23.4376 18.2066 23.6028 18.1431 23.757C18.0795 23.9111 17.9864 24.0512 17.869 24.1692L15.5519 26.4975L17.869 28.8258C18.0462 29.0033 18.167 29.2297 18.2161 29.4763C18.2652 29.7229 18.2404 29.9785 18.1447 30.2109C18.0491 30.4432 17.8869 30.6418 17.6788 30.7815C17.4708 30.9212 17.2261 30.9956 16.9759 30.9954C16.6421 30.9957 16.3218 30.8633 16.0849 30.6271V30.6271Z" fill="#8EAEC9"/>
<path d="M23.8532 27.3233C23.3781 27.5291 22.8684 27.6418 22.3513 27.6556C20.6662 27.6556 20.0343 26.3094 20.0343 24.7982C20.0343 23.3885 20.6009 22.1523 22.2081 22.1523C23.4614 22.1523 24.068 22.7514 24.068 23.689H22.9158C22.9158 23.2657 22.781 22.6603 22.1344 22.6603C21.2476 22.6603 21.0812 23.9176 21.0812 24.6309C21.0812 25.249 21.1065 27.0164 22.5219 27.0164C23.0084 26.9982 23.4736 26.8112 23.8384 26.4872L23.8532 27.3233Z" fill="#8EAEC9"/>
<path d="M25.2034 22.2266H26.2123V24.4639H28.0575V22.2266H29.0665V27.5626H28.0575V25.0756H26.2123V27.5626H25.2034V22.2266Z" fill="#8EAEC9"/>
<path d="M34.2694 25.7487C34.2694 26.6969 34.0714 27.6537 32.3399 27.6537C30.6085 27.6537 30.4315 26.7012 30.4315 25.7487V22.2266H31.4384V25.7487C31.4384 26.5847 31.569 27.1372 32.3399 27.1372C33.1551 27.1372 33.2625 26.5847 33.2625 25.7487V22.2266H34.2694V25.7487Z" fill="#8EAEC9"/>
<path d="M35.6343 22.2266H36.7359L38.7897 26.191H38.8044V22.2266H39.628V27.5626H38.6275L36.4726 23.4119H36.4579V27.5626H35.6343V22.2266Z" fill="#8EAEC9"/>
<path d="M44.8561 27.1545C44.339 27.4728 43.7457 27.644 43.1394 27.6498C41.4711 27.6498 40.776 26.4137 40.776 24.8516C40.776 23.2895 41.2773 22.1465 42.9161 22.1465C44.0704 22.1465 44.8118 22.61 44.8118 23.6281H43.7186C43.6955 23.3064 43.6575 22.6524 42.9182 22.6524C41.8418 22.6524 41.8418 24.0515 41.8418 24.769C41.8418 26.0517 42.082 27.1439 43.2278 27.1439C43.342 27.1536 43.4568 27.1399 43.5655 27.1035C43.6741 27.0671 43.7743 27.0088 43.8598 26.9322V25.078H42.9035V24.4431H44.8666L44.8561 27.1545Z" fill="#8EAEC9"/>
<path d="M46.4359 22.2266H47.4428V24.5549H47.4596L49.1679 22.2266H50.2211L48.3253 24.6332L50.4317 27.5626H49.1995L47.4617 24.9782H47.4449V27.5626H46.438L46.4359 22.2266Z" fill="#8EAEC9"/>
<path d="M53.4269 23.1245H53.4417L54.1578 25.4867H52.696L53.4269 23.1245ZM51.1499 27.5695H52.0409L52.5191 26.0518H54.3263L54.7898 27.5695H55.8577L54.0104 22.2334H52.9804L51.1499 27.5695Z" fill="#8EAEC9"/>
<path d="M56.793 22.2266H57.8946L59.9483 26.191H59.9631V22.2266H60.7867V27.5626H59.7777L57.6229 23.4119H57.6081V27.5626H56.7845L56.793 22.2266Z" fill="#8EAEC9"/>
<path d="M66 27.1545C65.483 27.4728 64.8896 27.644 64.2833 27.6498C62.615 27.6498 61.922 26.4137 61.922 24.8516C61.922 23.2895 62.4212 22.1465 64.06 22.1465C65.2164 22.1465 65.9558 22.61 65.9558 23.6281H64.8625C64.8415 23.3064 64.8015 22.6524 64.0621 22.6524C62.9857 22.6524 62.9857 24.0515 62.9857 24.769C62.9857 26.0517 63.2238 27.1439 64.3717 27.1439C64.4842 27.1534 64.5975 27.1395 64.7044 27.1031C64.8113 27.0667 64.9096 27.0085 64.9931 26.9322V25.078H64.041V24.4431H66.0021L66 27.1545Z" fill="#8EAEC9"/>
<path d="M33.4331 29.677C33.4331 29.1245 33.4331 28.5996 34.1493 28.5996C34.8654 28.5996 34.8633 29.1245 34.8633 29.677C34.8633 30.2294 34.8633 30.7544 34.1493 30.7544C33.4352 30.7544 33.4331 30.2231 33.4331 29.677ZM34.4252 29.677C34.4252 29.1415 34.3936 28.9108 34.1493 28.9108C33.9049 28.9108 33.8733 29.1415 33.8733 29.677C33.8733 30.2125 33.9049 30.4411 34.1493 30.4411C34.3936 30.4411 34.4252 30.2104 34.4252 29.677Z" fill="#8EAEC9"/>
<path d="M35.213 30.7099V28.625H35.7986L36.3505 30.0707V28.625H36.7549V30.7099H36.1862L35.6217 29.1859V30.7099H35.213Z" fill="#8EAEC9"/>
<path d="M37.1299 30.7099V28.625H37.5638V30.3649H38.2126V30.7099H37.1299Z" fill="#8EAEC9"/>
<path d="M38.5727 29.9969L38.0293 28.6338H38.5032L38.8129 29.5143L39.1436 28.6338H39.5859L39.0067 29.9969V30.7102H38.5727V29.9969Z" fill="#8EAEC9"/>
<path d="M40.6349 29.677C40.6349 29.1245 40.6349 28.5996 41.3511 28.5996C42.0672 28.5996 42.0672 29.1245 42.0672 29.677C42.0672 30.2294 42.0672 30.7544 41.3511 30.7544C40.6349 30.7544 40.6349 30.2231 40.6349 29.677ZM41.627 29.677C41.627 29.1415 41.5954 28.9108 41.3511 28.9108C41.1067 28.9108 41.0751 29.1415 41.0751 29.677C41.0751 30.2125 41.1067 30.4411 41.3511 30.4411C41.5954 30.4411 41.627 30.2104 41.627 29.677Z" fill="#8EAEC9"/>
<path d="M42.4148 30.7099V28.625H43.0004L43.5586 30.0749V28.6292H43.963V30.7099H43.3922L42.8255 29.1859V30.7099H42.4148Z" fill="#8EAEC9"/>
<path d="M44.3295 30.7099V28.625H45.4543V28.9467H44.7571V29.4611H45.389V29.7807H44.7571V30.3903H45.4774V30.7099H44.3295Z" fill="#8EAEC9"/>
<path d="M45.7744 30.3369H46.1515L45.9409 30.9994H45.6649L45.7744 30.3369Z" fill="#8EAEC9"/>
<path d="M47.2532 29.677C47.2532 29.1245 47.2532 28.5996 47.9672 28.5996C48.6813 28.5996 48.6834 29.1245 48.6834 29.677C48.6834 30.2294 48.6834 30.7544 47.9672 30.7544C47.2511 30.7544 47.2532 30.2231 47.2532 29.677ZM48.2432 29.677C48.2432 29.1415 48.2116 28.9108 47.9672 28.9108C47.7229 28.9108 47.6913 29.1415 47.6913 29.677C47.6913 30.2125 47.7229 30.4411 47.9672 30.4411C48.2116 30.4411 48.2432 30.2104 48.2432 29.677Z" fill="#8EAEC9"/>
<path d="M49.0352 30.7099V28.625H49.6228L50.1726 30.0707V28.625H50.5791V30.7099H50.0062L49.4396 29.1859V30.7099H49.0352Z" fill="#8EAEC9"/>
<path d="M50.9478 30.7099V28.625H51.3817V30.3649H52.0326V30.7099H50.9478Z" fill="#8EAEC9"/>
<path d="M52.3906 29.9969L51.8472 28.6338H52.3232L52.6329 29.5143L52.9636 28.6338H53.4059L52.8266 29.9969V30.7102H52.3927L52.3906 29.9969Z" fill="#8EAEC9"/>
<path d="M55.7103 28.6335V28.9806H55.2279V30.7099H54.794V28.9721H54.3116V28.625L55.7103 28.6335Z" fill="#8EAEC9"/>
<path d="M56.8583 29.4695V28.6335H57.2922V30.7099H56.8583V29.7807H56.3612V30.7099H55.9272V28.625H56.3612V29.4611L56.8583 29.4695Z" fill="#8EAEC9"/>
<path d="M57.6713 30.7099V28.625H58.8024V28.9467H58.1052V29.4611H58.7476V29.7807H58.1052V30.3903H58.8256V30.7099H57.6713Z" fill="#8EAEC9"/>
<path d="M59.9883 30.7099V28.625H60.7571C61.0878 28.625 61.3616 28.7202 61.3616 29.1647C61.3721 29.2722 61.3412 29.3796 61.2755 29.465C61.2097 29.5504 61.1139 29.6073 61.0078 29.6241V29.6241C61.3153 29.6685 61.3953 29.8675 61.3953 30.1532C61.3953 30.6824 60.9383 30.7036 60.7634 30.7036L59.9883 30.7099ZM60.4222 29.478H60.7129C60.7458 29.4775 60.7783 29.4699 60.8081 29.4557C60.8379 29.4415 60.8643 29.4212 60.8856 29.3959C60.907 29.3707 60.9227 29.3412 60.9318 29.3093C60.9408 29.2775 60.9431 29.2441 60.9383 29.2113C60.9403 29.1773 60.9353 29.1432 60.9237 29.1112C60.9122 29.0791 60.8942 29.0498 60.8709 29.025C60.8476 29.0003 60.8195 28.9805 60.7884 28.9671C60.7572 28.9536 60.7236 28.9467 60.6897 28.9467H60.4096L60.4222 29.478ZM60.4222 30.3903H60.6623C60.7026 30.3975 60.7441 30.395 60.7832 30.3829C60.8224 30.3708 60.858 30.3494 60.8873 30.3206C60.9166 30.2918 60.9386 30.2564 60.9515 30.2174C60.9644 30.1783 60.9678 30.1367 60.9614 30.0961C60.9614 29.9119 60.8919 29.7976 60.675 29.7976H60.4096L60.4222 30.3903Z" fill="#8EAEC9"/>
<path d="M61.7303 30.7099V28.625H62.8615V28.9467H62.1643V29.4611H62.8067V29.7807H62.1643V30.3903H62.8847V30.7099H61.7303Z" fill="#8EAEC9"/>
<path d="M63.7293 30.7544C63.1922 30.7544 63.0974 30.4369 63.1142 30.0749H63.5481C63.5481 30.2739 63.5587 30.4411 63.7967 30.4411C63.8264 30.4413 63.8558 30.4351 63.883 30.4231C63.9102 30.411 63.9346 30.3933 63.9545 30.3711C63.9744 30.3489 63.9894 30.3227 63.9985 30.2943C64.0076 30.2659 64.0106 30.2358 64.0073 30.2061C64.0073 29.8294 63.1332 29.8061 63.1332 29.1859C63.1332 28.86 63.2869 28.5996 63.8157 28.5996C64.2369 28.5996 64.4476 28.7901 64.4202 29.2346H63.9989C63.9989 29.078 63.9736 28.9192 63.7988 28.9192C63.769 28.9171 63.7391 28.9213 63.7111 28.9317C63.6831 28.942 63.6575 28.9583 63.6362 28.9793C63.6149 29.0003 63.5983 29.0256 63.5875 29.0536C63.5766 29.0815 63.5718 29.1115 63.5734 29.1415C63.5734 29.5373 64.4476 29.5034 64.4476 30.1596C64.4539 30.6909 64.06 30.7544 63.7293 30.7544Z" fill="#8EAEC9"/>
<path d="M66 28.6335V28.9806H65.5176V30.7099H65.0837V28.9721H64.6013V28.625L66 28.6335Z" fill="#8EAEC9"/>
</g>
<g clip-path="url(#clip1_441_132)">
<path d="M92.4957 24.9471C92.4927 24.9791 92.4927 25.0114 92.4957 25.0434C92.5012 25.0694 92.5128 25.0937 92.5296 25.1142C92.5495 25.135 92.5735 25.1514 92.6 25.1624C92.6342 25.175 92.6706 25.1807 92.707 25.1794C92.7568 25.1804 92.8055 25.1644 92.845 25.134C92.8661 25.118 92.8828 25.0968 92.8937 25.0726C92.9045 25.0483 92.9091 25.0217 92.907 24.9952C92.9073 24.9645 92.9025 24.9339 92.8929 24.9046C92.8813 24.8792 92.864 24.8569 92.8422 24.8395C92.8148 24.8174 92.7845 24.7993 92.7521 24.7856C92.7064 24.7662 92.6593 24.7501 92.6112 24.7375C92.5441 24.7184 92.479 24.6928 92.4169 24.661C92.3668 24.6379 92.3211 24.6063 92.2817 24.5675C92.2454 24.5328 92.2174 24.4902 92.2 24.4429C92.1822 24.391 92.1736 24.3364 92.1746 24.2815C92.1699 24.219 92.1797 24.1564 92.2032 24.0984C92.2266 24.0404 92.2631 23.9887 92.3098 23.9473C92.4196 23.8685 92.5527 23.8295 92.6873 23.8368C92.7574 23.8367 92.8273 23.8443 92.8957 23.8595C92.9543 23.872 93.0098 23.8961 93.0591 23.9303C93.1042 23.9637 93.1409 24.0074 93.1662 24.0577C93.1933 24.1152 93.2068 24.1782 93.2056 24.2419V24.2843H92.8817C92.8846 24.2265 92.8699 24.1692 92.8394 24.12C92.8231 24.0994 92.802 24.0831 92.7779 24.0727C92.7538 24.0624 92.7275 24.0582 92.7014 24.0606C92.6706 24.0554 92.6392 24.0554 92.6084 24.0606C92.5865 24.0701 92.5664 24.0835 92.5493 24.1002C92.5352 24.1168 92.5246 24.136 92.5183 24.1569C92.5153 24.1785 92.5153 24.2004 92.5183 24.222C92.517 24.2633 92.5289 24.304 92.5521 24.3381C92.5885 24.3805 92.6365 24.411 92.6901 24.4259L92.9493 24.5279C93.0039 24.5479 93.0559 24.5745 93.1042 24.6072C93.1413 24.6313 93.1746 24.6609 93.2028 24.695C93.2247 24.7273 93.2418 24.7626 93.2535 24.7998C93.263 24.8416 93.2677 24.8844 93.2676 24.9273C93.2728 24.9933 93.2613 25.0596 93.2342 25.12C93.2071 25.1804 93.1653 25.233 93.1126 25.2728C92.9857 25.3529 92.8368 25.3906 92.6873 25.3804C92.5433 25.3937 92.3993 25.3545 92.2817 25.27C92.2393 25.2288 92.2062 25.1789 92.1848 25.1236C92.1634 25.0684 92.1542 25.0091 92.1577 24.9499V24.8876H92.4957V24.9471Z" fill="#8EAEC9"/>
<path d="M94.0788 24.5648C94.0747 24.5402 94.0671 24.5164 94.0563 24.494C94.0471 24.4726 94.0326 24.4541 94.014 24.4402C93.9914 24.4256 93.9648 24.4187 93.938 24.4203C93.9055 24.4193 93.8734 24.4272 93.845 24.443C93.8189 24.4615 93.7984 24.4871 93.7859 24.5167C93.7727 24.555 93.7651 24.5951 93.7633 24.6356C93.7601 24.6931 93.7601 24.7509 93.7633 24.8084C93.76 24.8678 93.76 24.9274 93.7633 24.9868C93.7652 25.0292 93.7728 25.0711 93.7859 25.1115C93.7957 25.1402 93.8145 25.1651 93.8394 25.1823C93.8658 25.1981 93.8961 25.2059 93.9267 25.2049C93.9505 25.2059 93.9742 25.2007 93.9954 25.1898C94.0167 25.1789 94.0347 25.1626 94.0478 25.1426C94.0754 25.0783 94.0879 25.0086 94.0845 24.9387H94.3915C94.3962 25 94.3886 25.0617 94.3693 25.1201C94.3499 25.1784 94.3192 25.2323 94.2788 25.2786C94.2291 25.3223 94.1708 25.3552 94.1078 25.3752C94.0448 25.3952 93.9783 25.4018 93.9126 25.3947C93.8413 25.3971 93.7701 25.3885 93.7014 25.3692C93.6436 25.3534 93.5917 25.3209 93.5521 25.2757C93.5093 25.2219 93.4794 25.159 93.4647 25.0916C93.4415 24.9991 93.4311 24.9038 93.4338 24.8084C93.4314 24.7127 93.4438 24.6171 93.4704 24.5252C93.4904 24.4558 93.5271 24.3926 93.5774 24.3411C93.6201 24.2949 93.6747 24.2615 93.7352 24.2447C93.8023 24.2272 93.8714 24.2186 93.9408 24.2192C94.0021 24.2143 94.0637 24.222 94.1218 24.242C94.18 24.2619 94.2334 24.2937 94.2788 24.3354C94.3178 24.3785 94.3478 24.4291 94.3672 24.484C94.3865 24.539 94.3948 24.5972 94.3915 24.6554H94.0845C94.0843 24.6252 94.0824 24.5949 94.0788 24.5648Z" fill="#8EAEC9"/>
<path d="M94.9183 23.8711V24.3554C94.984 24.2786 95.0757 24.2291 95.1757 24.2165C95.2757 24.2039 95.3767 24.2292 95.4591 24.2874C95.4898 24.3202 95.5132 24.3591 95.5277 24.4015C95.5423 24.444 95.5477 24.4891 95.5437 24.5339V25.3836H95.2225V24.6018C95.2273 24.5584 95.2151 24.5148 95.1887 24.4801C95.1752 24.4664 95.1589 24.456 95.1408 24.4496C95.1228 24.4433 95.1035 24.4411 95.0845 24.4432C94.9718 24.4432 94.9155 24.5084 94.9155 24.6302V25.3836H94.5944V23.8711H94.9183Z" fill="#8EAEC9"/>
<path d="M95.7774 24.5481C95.7928 24.4807 95.8215 24.4171 95.8619 24.3611C95.9024 24.3112 95.9547 24.2723 96.014 24.2478C96.089 24.2212 96.1683 24.2087 96.2478 24.211C96.3288 24.2065 96.41 24.217 96.4872 24.2422C96.5477 24.2659 96.6004 24.3061 96.6394 24.3583C96.6783 24.4144 96.7052 24.478 96.7182 24.5452C96.7352 24.631 96.7428 24.7184 96.7408 24.8058C96.7418 24.8924 96.7333 24.9788 96.7154 25.0635C96.7012 25.1313 96.6723 25.1951 96.6309 25.2505C96.5903 25.2996 96.5379 25.3376 96.4788 25.3609C96.4043 25.3856 96.3262 25.3971 96.2478 25.3949C96.1668 25.3995 96.0856 25.3889 96.0084 25.3638C95.9473 25.344 95.8941 25.3053 95.8563 25.2533C95.8157 25.1981 95.7887 25.134 95.7774 25.0664C95.7604 24.9806 95.7528 24.8932 95.7548 24.8058C95.7545 24.7194 95.7621 24.6331 95.7774 24.5481ZM96.0788 24.9672C96.0809 25.0096 96.0885 25.0515 96.1013 25.0919C96.1111 25.1231 96.1285 25.1513 96.152 25.174C96.1794 25.1952 96.2132 25.2062 96.2478 25.2051C96.2774 25.2066 96.3067 25.1983 96.3311 25.1814C96.3555 25.1645 96.3738 25.14 96.383 25.1117C96.4319 24.9107 96.4319 24.7009 96.383 24.4999C96.3737 24.4718 96.3554 24.4477 96.3309 24.4313C96.3064 24.4148 96.2771 24.4071 96.2478 24.4093C96.2136 24.4074 96.1798 24.4174 96.152 24.4376C96.1285 24.4603 96.1111 24.4885 96.1013 24.5197C96.0887 24.5602 96.0812 24.602 96.0788 24.6443C96.0788 24.6953 96.0788 24.7492 96.0788 24.8058C96.0788 24.8625 96.076 24.9163 96.0788 24.9672V24.9672Z" fill="#8EAEC9"/>
<path d="M96.9352 24.548C96.9494 24.4802 96.9783 24.4164 97.0197 24.361C97.0603 24.3112 97.1126 24.2722 97.1718 24.2477C97.2468 24.2209 97.3261 24.2084 97.4056 24.2109C97.4867 24.2066 97.5678 24.2172 97.6451 24.2421C97.7055 24.2658 97.7582 24.306 97.7972 24.3582C97.835 24.4149 97.8617 24.4784 97.8761 24.5451C97.8917 24.6311 97.8992 24.7184 97.8986 24.8057C97.8997 24.8923 97.8912 24.9788 97.8732 25.0635C97.859 25.1312 97.8302 25.1951 97.7887 25.2504C97.7481 25.2995 97.6958 25.3375 97.6366 25.3609C97.562 25.3851 97.484 25.3966 97.4056 25.3949C97.3237 25.3993 97.2416 25.3888 97.1634 25.3637C97.1036 25.3431 97.0515 25.3045 97.0141 25.2532C96.9725 25.1983 96.9445 25.1342 96.9324 25.0663C96.9168 24.9803 96.9092 24.8931 96.9099 24.8057C96.9089 24.7191 96.9174 24.6327 96.9352 24.548V24.548ZM97.2366 24.9672C97.2387 25.0095 97.2463 25.0514 97.2592 25.0918C97.2678 25.1235 97.2854 25.1521 97.3099 25.1739C97.3372 25.1951 97.3711 25.2062 97.4056 25.2051C97.4352 25.2066 97.4645 25.1982 97.489 25.1813C97.5134 25.1644 97.5316 25.14 97.5408 25.1116C97.5897 24.9106 97.5897 24.7008 97.5408 24.4998C97.5315 24.4717 97.5132 24.4476 97.4887 24.4312C97.4642 24.4148 97.435 24.407 97.4056 24.4092C97.3714 24.4073 97.3376 24.4173 97.3099 24.4375C97.2854 24.4594 97.2678 24.4879 97.2592 24.5197C97.2466 24.5601 97.239 24.602 97.2366 24.6443C97.2366 24.6953 97.2366 24.7491 97.2366 24.8057C97.2366 24.8624 97.2338 24.9162 97.2366 24.9672V24.9672Z" fill="#8EAEC9"/>
<path d="M99.2085 24.5481C99.2227 24.4803 99.2515 24.4164 99.293 24.3611C99.3329 24.3106 99.3854 24.2715 99.4451 24.2478C99.5191 24.2209 99.5975 24.2084 99.6761 24.211C99.7571 24.2065 99.8383 24.217 99.9155 24.2422C99.9764 24.2651 100.029 24.3054 100.068 24.3583C100.108 24.4137 100.135 24.4777 100.147 24.5452C100.164 24.631 100.171 24.7184 100.169 24.8058C100.172 24.8925 100.163 24.979 100.144 25.0635C100.129 25.1307 100.101 25.1943 100.062 25.2505C100.021 25.3003 99.9674 25.3383 99.9071 25.3609C99.8326 25.3856 99.7545 25.3971 99.6761 25.3949C99.5951 25.3995 99.5139 25.3889 99.4367 25.3638C99.3756 25.344 99.3224 25.3053 99.2845 25.2533C99.2451 25.1975 99.2182 25.1337 99.2057 25.0664C99.174 24.8951 99.174 24.7194 99.2057 24.5481H99.2085ZM99.5099 24.9672C99.5106 25.0097 99.5182 25.0518 99.5324 25.0919C99.5401 25.1241 99.5578 25.1529 99.5831 25.174C99.6013 25.1879 99.6225 25.1974 99.6449 25.2017C99.6673 25.2061 99.6904 25.2053 99.7124 25.1992C99.7345 25.1932 99.7549 25.1822 99.772 25.167C99.7891 25.1518 99.8026 25.1329 99.8113 25.1117C99.8601 24.9107 99.8601 24.7009 99.8113 24.4999C99.802 24.4718 99.7836 24.4477 99.7592 24.4313C99.7347 24.4148 99.7054 24.4071 99.6761 24.4093C99.6427 24.4068 99.6096 24.4169 99.5831 24.4376C99.5578 24.4587 99.5401 24.4876 99.5324 24.5197C99.5185 24.5598 99.5109 24.6019 99.5099 24.6443C99.5024 24.7518 99.5024 24.8597 99.5099 24.9672V24.9672Z" fill="#8EAEC9"/>
<path d="M98.4366 23.8711V25.3751H98.1155V23.8711H98.4366Z" fill="#8EAEC9"/>
<path d="M100.33 24.4375V24.2393H100.493V24.1089C100.491 24.0653 100.499 24.0218 100.516 23.9815C100.53 23.9481 100.552 23.9189 100.58 23.8965C100.613 23.8754 100.649 23.8601 100.687 23.8512C100.734 23.8465 100.781 23.8465 100.828 23.8512H101V24.0551H100.932C100.899 24.0519 100.866 24.0588 100.837 24.075C100.827 24.084 100.82 24.095 100.815 24.1072C100.81 24.1195 100.808 24.1326 100.808 24.1458V24.2449H100.997V24.4432H100.808V25.3778H100.49V24.4375H100.33Z" fill="#8EAEC9"/>
<path d="M92.7296 26.2783L92.969 27.3405L93.2113 26.2783H93.7071V27.7851H93.3972V26.5814L93.1014 27.7851H92.8395L92.5578 26.5814V27.7851H92.2507V26.2783H92.7296Z" fill="#8EAEC9"/>
<path d="M93.969 26.9688C93.9673 26.9121 93.9789 26.8559 94.0028 26.8045C94.0249 26.7609 94.0579 26.7238 94.0986 26.6969C94.1399 26.6675 94.1869 26.6473 94.2366 26.6374C94.2929 26.6245 94.3507 26.6188 94.4084 26.6204C94.4871 26.6184 94.5658 26.627 94.6422 26.6459C94.6929 26.6566 94.7397 26.6811 94.7774 26.7167C94.8101 26.7467 94.8344 26.7848 94.8479 26.8272C94.858 26.8728 94.8636 26.9193 94.8648 26.966V27.5523C94.8596 27.5937 94.8596 27.6355 94.8648 27.6769C94.8692 27.7106 94.8797 27.7432 94.8957 27.7732H94.5887C94.5774 27.7547 94.5689 27.7347 94.5634 27.7137L94.5464 27.6542C94.5165 27.7057 94.4711 27.7463 94.4169 27.7704C94.3557 27.7889 94.292 27.7975 94.2281 27.7959C94.179 27.7972 94.1302 27.7886 94.0845 27.7704C94.048 27.7538 94.016 27.7285 93.9915 27.6967C93.9682 27.6649 93.9501 27.6295 93.938 27.5919C93.9292 27.5538 93.9244 27.5149 93.9239 27.4758C93.9231 27.4299 93.9288 27.3841 93.9408 27.3398C93.953 27.3028 93.9732 27.269 94 27.2407C94.0273 27.2102 94.061 27.186 94.0986 27.1699C94.1443 27.1504 94.1914 27.1343 94.2394 27.1217L94.4225 27.0793C94.46 27.0727 94.495 27.0561 94.5239 27.0311C94.5422 27.0068 94.5512 26.9766 94.5493 26.9461C94.5507 26.9277 94.5484 26.9093 94.5426 26.8918C94.5368 26.8742 94.5276 26.8581 94.5155 26.8442C94.5002 26.8296 94.4819 26.8185 94.462 26.8117C94.4421 26.8048 94.4209 26.8024 94.4 26.8045C94.3797 26.8032 94.3594 26.8064 94.3404 26.8137C94.3214 26.821 94.3043 26.8324 94.2901 26.847C94.2772 26.8616 94.2673 26.8786 94.261 26.8971C94.2548 26.9156 94.2522 26.9352 94.2535 26.9546V26.9858H93.9718L93.969 26.9688ZM94.4873 27.252C94.4645 27.2617 94.441 27.2693 94.4169 27.2747C94.3654 27.2801 94.3171 27.302 94.2788 27.337C94.2642 27.353 94.2529 27.3717 94.2457 27.3922C94.2384 27.4126 94.2353 27.4343 94.2366 27.456C94.2348 27.4957 94.2446 27.5351 94.2648 27.5693C94.275 27.5843 94.289 27.5964 94.3053 27.6043C94.3216 27.6123 94.3396 27.6158 94.3577 27.6146H94.4253C94.4481 27.607 94.4699 27.5966 94.4901 27.5834C94.5089 27.5683 94.5251 27.5501 94.538 27.5296C94.5498 27.5039 94.5556 27.4758 94.5549 27.4475V27.2265C94.5334 27.2377 94.5108 27.2463 94.4873 27.252V27.252Z" fill="#8EAEC9"/>
<path d="M95.4254 26.6493V26.7824C95.457 26.7292 95.5029 26.686 95.5577 26.6577C95.6163 26.632 95.6798 26.6194 95.7437 26.6209C95.8294 26.615 95.9141 26.6424 95.9803 26.6974C96.0109 26.73 96.034 26.769 96.0482 26.8116C96.0623 26.8541 96.067 26.8992 96.062 26.9438V27.7935H95.7408V27.009C95.7458 26.9659 95.7348 26.9225 95.7099 26.8872C95.6956 26.8748 95.6791 26.8654 95.6612 26.8596C95.6433 26.8537 95.6244 26.8516 95.6056 26.8532C95.4901 26.8532 95.4338 26.9155 95.4338 27.0401V27.7935H95.1127V26.6606L95.4254 26.6493Z" fill="#8EAEC9"/>
<path d="M96.6394 26.2783V26.7655C96.6727 26.7164 96.7185 26.6771 96.772 26.6517C96.8255 26.6263 96.8847 26.6157 96.9436 26.621C97.0302 26.6152 97.1157 26.6425 97.183 26.6975C97.2136 26.7301 97.2368 26.7691 97.2509 26.8117C97.265 26.8542 97.2697 26.8994 97.2647 26.9439V27.7936H96.9436V27.0091C96.948 26.9656 96.936 26.9221 96.9098 26.8873C96.8958 26.8746 96.8792 26.865 96.8613 26.8592C96.8433 26.8533 96.8243 26.8513 96.8056 26.8533C96.6929 26.8533 96.6366 26.9156 96.6366 27.0402V27.7936H96.3126V26.2868L96.6394 26.2783Z" fill="#8EAEC9"/>
<path d="M97.7323 26.6494L97.8788 27.4566L98.0337 26.6494H98.3971L98.5633 27.4566L98.7126 26.6494H99.0225L98.7408 27.7824H98.3971L98.2309 26.9751L98.076 27.7824H97.7042L97.4225 26.6494H97.7323Z" fill="#8EAEC9"/>
<path d="M99.1577 26.9698C99.1556 26.9128 99.1682 26.8562 99.1944 26.8055C99.215 26.7618 99.2472 26.7246 99.2873 26.6979C99.3294 26.668 99.3775 26.6477 99.4282 26.6384C99.4835 26.6254 99.5403 26.6196 99.5972 26.6214C99.6759 26.6194 99.7545 26.628 99.831 26.6469C99.8823 26.6582 99.9298 26.6826 99.969 26.7177C100 26.7481 100.022 26.7862 100.034 26.8282C100.046 26.8734 100.053 26.9201 100.054 26.967V27.5533C100.05 27.5947 100.05 27.6364 100.054 27.6779C100.058 27.7116 100.069 27.7442 100.084 27.7742H99.7746C99.7655 27.7551 99.7579 27.7352 99.7521 27.7147C99.7508 27.6949 99.7508 27.675 99.7521 27.6552C99.7231 27.7075 99.6775 27.7484 99.6225 27.7714C99.5614 27.7899 99.4977 27.7985 99.4338 27.7969C99.3847 27.7982 99.3358 27.7896 99.2901 27.7714C99.2536 27.7548 99.2217 27.7295 99.1972 27.6977C99.1747 27.6658 99.1576 27.6304 99.1465 27.5929C99.1353 27.5552 99.1297 27.5161 99.1296 27.4768C99.1282 27.4307 99.1349 27.3847 99.1493 27.3409C99.1595 27.3036 99.1788 27.2695 99.2056 27.2417C99.2333 27.2128 99.2657 27.1889 99.3014 27.1709C99.3491 27.1515 99.398 27.1354 99.4479 27.1228L99.6282 27.0803C99.6657 27.0737 99.7007 27.0571 99.7296 27.0321C99.7489 27.0082 99.7589 26.978 99.7577 26.9471C99.7588 26.9285 99.756 26.9099 99.7497 26.8924C99.7435 26.8749 99.7337 26.8588 99.7211 26.8452C99.7061 26.8303 99.6879 26.819 99.6679 26.8121C99.6479 26.8053 99.6266 26.803 99.6056 26.8055C99.5854 26.8042 99.565 26.8074 99.5461 26.8147C99.5271 26.822 99.51 26.8334 99.4958 26.848C99.4829 26.8626 99.473 26.8796 99.4667 26.8981C99.4604 26.9166 99.4579 26.9362 99.4591 26.9556V26.9868H99.1775L99.1577 26.9698ZM99.6732 27.253C99.6524 27.2627 99.6307 27.2703 99.6084 27.2757C99.5558 27.2799 99.5062 27.3019 99.4676 27.338C99.453 27.354 99.4417 27.3727 99.4344 27.3932C99.4272 27.4136 99.4241 27.4353 99.4253 27.457C99.425 27.4966 99.4347 27.5356 99.4535 27.5703C99.464 27.5851 99.4779 27.597 99.4942 27.605C99.5105 27.6129 99.5284 27.6165 99.5465 27.6156H99.6141C99.6369 27.608 99.6587 27.5976 99.6789 27.5844C99.6977 27.5693 99.7139 27.5511 99.7268 27.5306C99.7396 27.5052 99.7463 27.477 99.7465 27.4485V27.2275C99.7231 27.2388 99.6985 27.2473 99.6732 27.253V27.253Z" fill="#8EAEC9"/>
<path d="M92.8929 28.9691C92.8755 28.9438 92.8518 28.9237 92.824 28.9108C92.7963 28.8978 92.7656 28.8925 92.7352 28.8955C92.6979 28.8931 92.6609 28.9041 92.631 28.9266C92.5991 28.9516 92.5763 28.9864 92.5662 29.0257C92.5493 29.0839 92.5389 29.1437 92.5352 29.2042C92.5352 29.2778 92.5352 29.3685 92.5352 29.4874C92.5298 29.5818 92.5298 29.6763 92.5352 29.7707C92.5407 29.827 92.5539 29.8823 92.5746 29.935C92.5869 29.968 92.611 29.9953 92.6422 30.0115C92.6712 30.0254 92.7031 30.0321 92.7352 30.0313C92.7632 30.0355 92.7917 30.0355 92.8197 30.0313C92.8471 30.0192 92.8706 29.9996 92.8873 29.9746C92.908 29.9387 92.9223 29.8994 92.9296 29.8585C92.9422 29.7942 92.9479 29.7286 92.9465 29.663H93.2817C93.2825 29.74 93.2759 29.8168 93.262 29.8925C93.249 29.9623 93.2222 30.0288 93.1831 30.0879C93.1414 30.1436 93.0861 30.1875 93.0225 30.2154C92.9373 30.2486 92.8463 30.264 92.7549 30.2607C92.6517 30.2658 92.5487 30.2474 92.4535 30.2069C92.3814 30.1729 92.3215 30.1176 92.2817 30.0483C92.2397 29.9723 92.2138 29.8883 92.2056 29.8018C92.1793 29.5921 92.1793 29.3799 92.2056 29.1702C92.2142 29.0829 92.2401 28.9981 92.2817 28.921C92.3222 28.8516 92.3819 28.7955 92.4535 28.7595C92.5484 28.718 92.6515 28.6986 92.7549 28.7029C92.8517 28.6981 92.9483 28.7165 93.0366 28.7567C93.0998 28.7853 93.1536 28.8315 93.1915 28.8898C93.225 28.943 93.2461 29.003 93.2535 29.0654C93.2635 29.1234 93.2682 29.1822 93.2676 29.241H92.9324C92.944 29.1485 92.9303 29.0545 92.8929 28.9691V28.9691Z" fill="#8EAEC9"/>
<path d="M93.493 29.3715C93.5067 29.3035 93.5356 29.2396 93.5775 29.1845C93.6161 29.1326 93.669 29.0932 93.7296 29.0712C93.8033 29.0431 93.8818 29.0296 93.9606 29.0316C94.0417 29.0292 94.1227 29.0407 94.2 29.0655C94.2607 29.0875 94.3135 29.1269 94.3521 29.1788C94.3922 29.2354 94.4192 29.3002 94.431 29.3686C94.4481 29.4534 94.4556 29.5399 94.4535 29.6263C94.456 29.7139 94.4475 29.8015 94.4282 29.8869C94.4143 29.9534 94.3864 30.0162 94.3465 30.0711C94.3063 30.1219 94.2526 30.1602 94.1916 30.1815C94.1176 30.2084 94.0392 30.2209 93.9606 30.2183C93.8796 30.2227 93.7984 30.2121 93.7212 30.1872C93.6611 30.1655 93.6084 30.1272 93.569 30.0767C93.5294 30.021 93.5025 29.9571 93.4902 29.8898C93.4722 29.8032 93.4637 29.7148 93.4648 29.6263C93.4646 29.5406 93.474 29.4551 93.493 29.3715V29.3715ZM93.7916 29.7878C93.7948 29.8309 93.8024 29.8736 93.8141 29.9153C93.8255 29.9464 93.8438 29.9745 93.8676 29.9974C93.8941 30.0181 93.9272 30.0282 93.9606 30.0257C93.9899 30.0279 94.0192 30.0201 94.0436 30.0037C94.0681 29.9873 94.0865 29.9632 94.0958 29.9351C94.1258 29.8351 94.1382 29.7306 94.1324 29.6263C94.1381 29.5239 94.1257 29.4213 94.0958 29.3233C94.0869 29.3022 94.0735 29.2834 94.0564 29.2683C94.0394 29.2531 94.0191 29.242 93.9972 29.2357C93.9753 29.2295 93.9523 29.2282 93.9299 29.2321C93.9075 29.236 93.8862 29.2449 93.8676 29.2582C93.8432 29.2817 93.8248 29.3108 93.8141 29.3431C93.8024 29.3838 93.7948 29.4255 93.7916 29.4678C93.7916 29.5187 93.7916 29.5725 93.7916 29.6263C93.7916 29.6802 93.7888 29.7397 93.7916 29.7878Z" fill="#8EAEC9"/>
<path d="M94.969 29.0623V29.1926C95.0007 29.1402 95.0467 29.0979 95.1014 29.0708C95.1597 29.0438 95.2232 29.0303 95.2873 29.0311C95.3731 29.0249 95.4579 29.0523 95.5239 29.1076C95.5546 29.1403 95.578 29.1792 95.5925 29.2217C95.6071 29.2642 95.6125 29.3093 95.6084 29.354V30.2038H95.2986V29.422C95.304 29.378 95.293 29.3336 95.2676 29.2974C95.2529 29.2848 95.2359 29.2753 95.2175 29.2695C95.1991 29.2636 95.1798 29.2616 95.1606 29.2634C95.0479 29.2634 94.9915 29.3257 94.9915 29.4503V30.2038H94.6704V29.0708L94.969 29.0623Z" fill="#8EAEC9"/>
<path d="M96.2591 28.7371V29.0628H96.445V29.2583H96.2591V29.8729C96.2554 29.9066 96.2633 29.9407 96.2817 29.9692C96.2957 29.989 96.3267 29.9975 96.3746 29.9975H96.445V30.1986H96.2366C96.1851 30.2038 96.1332 30.2038 96.0817 30.1986C96.048 30.1923 96.0168 30.1766 95.9915 30.1533C95.9703 30.1259 95.9559 30.0939 95.9493 30.0598C95.9443 30.0127 95.9443 29.9653 95.9493 29.9182V29.2526H95.7859V29.0572H95.9493V28.7314L96.2591 28.7371Z" fill="#8EAEC9"/>
<path d="M96.8816 29.7626C96.8789 29.7956 96.8789 29.8288 96.8816 29.8618C96.8865 29.8914 96.896 29.9201 96.9098 29.9467C96.9209 29.9701 96.9373 29.9905 96.9577 30.0062C96.9809 30.0194 97.0071 30.0262 97.0338 30.026C97.0561 30.0278 97.0786 30.0241 97.0992 30.0152C97.1198 30.0064 97.1379 29.9926 97.1521 29.9751C97.1819 29.9263 97.1993 29.8708 97.2028 29.8136H97.4845C97.4854 29.9262 97.443 30.0348 97.3661 30.1167C97.2715 30.1925 97.1515 30.229 97.0309 30.2186C96.934 30.2247 96.8372 30.2062 96.7492 30.1648C96.688 30.1349 96.6378 30.0863 96.6056 30.026C96.5735 29.9666 96.5543 29.9009 96.5492 29.8334C96.5451 29.7617 96.5451 29.6899 96.5492 29.6182C96.5491 29.5442 96.5547 29.4703 96.5661 29.3972C96.579 29.3314 96.6028 29.2682 96.6366 29.2103C96.675 29.1542 96.7275 29.1093 96.7887 29.08C96.9469 29.0215 97.1206 29.0215 97.2788 29.08C97.3357 29.1059 97.3844 29.1471 97.4197 29.199C97.4553 29.2529 97.4793 29.3136 97.4901 29.3774C97.5017 29.4562 97.5074 29.5357 97.507 29.6153V29.6805H96.8704L96.8816 29.7626ZM97.2028 29.3859C97.1985 29.3565 97.19 29.3279 97.1774 29.301C97.1669 29.2787 97.1503 29.26 97.1295 29.2471C97.1041 29.2349 97.076 29.2291 97.0478 29.2301C97.0203 29.2296 96.993 29.2364 96.969 29.25C96.9473 29.2627 96.9298 29.2814 96.9183 29.3038C96.9043 29.3253 96.8948 29.3494 96.8901 29.3746C96.8873 29.4019 96.8873 29.4294 96.8901 29.4567V29.4992H97.2197C97.2112 29.4567 97.2056 29.4171 97.2028 29.3859Z" fill="#8EAEC9"/>
<path d="M98.0337 29.0622V29.1925C98.0647 29.1395 98.1108 29.097 98.1661 29.0707C98.2244 29.0438 98.2879 29.0302 98.3521 29.0311C98.4378 29.0251 98.5225 29.0525 98.5887 29.1076C98.6188 29.1405 98.6417 29.1795 98.6557 29.222C98.6698 29.2644 98.6748 29.3094 98.6704 29.354V30.2037H98.3492V29.4219C98.3538 29.3776 98.3418 29.3332 98.3154 29.2973C98.3014 29.2847 98.2848 29.2751 98.2669 29.2692C98.2489 29.2634 98.23 29.2614 98.2112 29.2633C98.0985 29.2633 98.0422 29.3256 98.0422 29.4503V30.2037H97.7211V29.0707L98.0337 29.0622Z" fill="#8EAEC9"/>
<path d="M99.3211 28.7371V29.0628H99.5071V29.2583H99.3211V29.8729C99.3186 29.9065 99.3265 29.9402 99.3437 29.9692C99.3578 29.989 99.3887 29.9975 99.4366 29.9975H99.5071V30.1986H99.2986C99.248 30.2037 99.1971 30.2037 99.1465 30.1986C99.1118 30.1929 99.0795 30.1772 99.0535 30.1533C99.0323 30.1259 99.0179 30.0939 99.0113 30.0598C99.0063 30.0127 99.0063 29.9653 99.0113 29.9182V29.2526H98.8479V29.0572H99.0113V28.7314L99.3211 28.7371Z" fill="#8EAEC9"/>
<path d="M99.924 29.8616C99.9226 29.8835 99.9259 29.9055 99.9336 29.926C99.9414 29.9465 99.9535 29.9651 99.9691 29.9805C99.9851 29.9968 100.005 30.0093 100.026 30.0171C100.047 30.0249 100.07 30.0279 100.093 30.0259C100.135 30.0285 100.176 30.0176 100.211 29.9947C100.226 29.9824 100.238 29.9668 100.246 29.9491C100.254 29.9314 100.257 29.9121 100.256 29.8927C100.258 29.8767 100.255 29.8605 100.249 29.8457C100.242 29.8309 100.232 29.8179 100.22 29.8078C100.195 29.7894 100.169 29.7742 100.141 29.7625L99.9127 29.6888C99.836 29.6695 99.7665 29.6281 99.7127 29.5698C99.6665 29.5156 99.6423 29.4458 99.6451 29.3744C99.6445 29.3288 99.6531 29.2835 99.6705 29.2413C99.689 29.1987 99.7169 29.1609 99.7522 29.1308C99.7952 29.0983 99.8439 29.0743 99.8958 29.06C99.9643 29.0392 100.036 29.0296 100.107 29.0317C100.221 29.0232 100.335 29.0531 100.431 29.1167C100.466 29.1451 100.494 29.1815 100.512 29.2229C100.53 29.2643 100.538 29.3094 100.535 29.3546V29.4027H100.254C100.256 29.3567 100.246 29.3108 100.225 29.2696C100.211 29.2553 100.193 29.2443 100.173 29.2375C100.154 29.2306 100.133 29.2281 100.113 29.23C100.075 29.2298 100.038 29.2406 100.006 29.2611C99.9913 29.2714 99.9797 29.285 99.9719 29.3008C99.964 29.3166 99.9601 29.3341 99.9606 29.3517C99.961 29.3803 99.9721 29.4076 99.9916 29.4282C100.022 29.4574 100.06 29.4771 100.101 29.4849L100.293 29.5444C100.375 29.5635 100.449 29.6058 100.507 29.6661C100.553 29.7237 100.576 29.7964 100.572 29.8701C100.574 29.9244 100.561 29.9781 100.535 30.0259C100.513 30.0701 100.48 30.108 100.439 30.1363C100.395 30.1669 100.345 30.189 100.293 30.2015C100.231 30.2132 100.168 30.219 100.104 30.2185C100.029 30.2194 99.953 30.2118 99.8789 30.1958C99.8279 30.183 99.7799 30.1599 99.7381 30.1278C99.7036 30.0977 99.6783 30.0584 99.6648 30.0145C99.6508 29.9658 99.6442 29.9152 99.6451 29.8644V29.8191H99.9268L99.924 29.8616Z" fill="#8EAEC9"/>
<path d="M76.3042 27.8566C76.1094 27.6547 76.0005 27.3845 76.0005 27.1032C76.0005 26.8219 76.1094 26.5517 76.3042 26.3498L79.0197 23.625C79.1262 23.497 79.2631 23.3979 79.4177 23.337C79.5722 23.2761 79.7396 23.2554 79.9042 23.2767H83.4986C83.7758 23.2767 84.0416 23.3874 84.2376 23.5844C84.4336 23.7815 84.5437 24.0488 84.5437 24.3275C84.5437 24.6062 84.4336 24.8735 84.2376 25.0705C84.0416 25.2676 83.7758 25.3783 83.4986 25.3783H80.2338L78.5127 27.1032L80.2338 28.8281H83.4986C83.6406 28.8207 83.7826 28.8425 83.916 28.892C84.0494 28.9415 84.1713 29.0178 84.2744 29.1162C84.3775 29.2147 84.4596 29.3332 84.5158 29.4646C84.5719 29.5959 84.6008 29.7374 84.6008 29.8804C84.6008 30.0233 84.5719 30.1648 84.5158 30.2962C84.4596 30.4275 84.3775 30.546 84.2744 30.6445C84.1713 30.7429 84.0494 30.8192 83.916 30.8688C83.7826 30.9183 83.6406 30.94 83.4986 30.9326H79.9042C79.7393 30.9533 79.5719 30.9319 79.4174 30.8706C79.2628 30.8092 79.1261 30.7097 79.0197 30.5814L76.3042 27.8566Z" fill="#8EAEC9"/>
<path d="M87.3042 30.6687L84.0591 27.4058C83.9797 27.3212 83.9354 27.2092 83.9354 27.0928C83.9354 26.9765 83.9797 26.8645 84.0591 26.7799L87.3014 23.5198C87.401 23.4093 87.5219 23.3204 87.6567 23.2583C87.7916 23.1962 87.9376 23.1622 88.0858 23.1585C88.2341 23.1548 88.3816 23.1814 88.5193 23.2367C88.657 23.292 88.7822 23.3748 88.8871 23.4802C88.9921 23.5855 89.0747 23.7112 89.1299 23.8496C89.1852 23.988 89.2119 24.1363 89.2085 24.2853C89.2051 24.4344 89.1716 24.5812 89.1101 24.7169C89.0486 24.8526 88.9603 24.9744 88.8507 25.0748L86.8366 27.0943L88.8507 29.1138C88.9526 29.2153 89.0335 29.3362 89.0886 29.4694C89.1437 29.6026 89.172 29.7455 89.1718 29.8898C89.1717 30.1077 89.1074 30.3206 88.987 30.5018C88.8666 30.6829 88.6955 30.824 88.4953 30.9074C88.2951 30.9908 88.0748 31.0126 87.8623 30.9701C87.6498 30.9276 87.4546 30.8227 87.3014 30.6687" fill="#8EAEC9"/>
<path d="M93.3268 17.4805L96.6648 14.127C96.7503 14.0443 96.8644 13.998 96.9831 13.998C97.1018 13.998 97.2159 14.0443 97.3014 14.127L100.651 17.4805C100.853 17.6946 100.965 17.9797 100.961 18.2751C100.958 18.5706 100.84 18.8529 100.632 19.062C100.424 19.2711 100.144 19.3904 99.8499 19.3945C99.5561 19.3985 99.2724 19.287 99.0592 19.0837L96.9972 17.0019L94.9324 19.0837C94.7211 19.2944 94.4356 19.4125 94.138 19.4122C93.9156 19.4119 93.6983 19.3453 93.5134 19.221C93.3286 19.0966 93.1845 18.9201 93.0992 18.7135C93.014 18.507 92.9914 18.2797 93.0344 18.0603C93.0774 17.8408 93.184 17.6391 93.3408 17.4805" fill="#8EAEC9"/>
</g>
<defs>
<clipPath id="clip0_441_132">
<rect width="63" height="9" fill="white" transform="translate(3 22)"/>
</clipPath>
<clipPath id="clip1_441_132">
<rect width="25" height="17" fill="white" transform="translate(76 14)"/>
</clipPath>
</defs>
</svg>
