<svg viewBox="0 0 274 268" fill="none" xmlns="http://www.w3.org/2000/svg">
<path d="M3.67 84.54H2.85V86.15C2.85 87.81 1.83 89.54 0.53 90.19L1.03 90.84C2.04 90.3 2.87 89.17 3.26 87.84C3.67 89.1 4.49 90.17 5.51 90.68L5.99 90.03C4.69 89.41 3.67 87.78 3.67 86.15V84.54ZM7.1 83.77V86.81H5.02V87.48H7.1V92.75H7.92V83.77H7.1ZM13.5792 84.49C15.0492 84.49 15.8892 84.83 15.8892 85.43C15.8892 86.03 15.0492 86.37 13.5792 86.37C12.1092 86.37 11.2692 86.03 11.2692 85.43C11.2692 84.83 12.1092 84.49 13.5792 84.49ZM13.5792 86.98C15.5592 86.98 16.7292 86.44 16.7292 85.43C16.7292 84.42 15.5592 83.87 13.5792 83.87C11.6092 83.87 10.4292 84.42 10.4292 85.43C10.4292 86.44 11.6092 86.98 13.5792 86.98ZM17.6292 88.23V87.57H9.52922V88.23H13.1692V89.07H10.5092V89.69H15.7892V90.49H10.5292V92.64H16.8692V92H11.3292V91.09H16.5992V89.07H13.9892V88.23H17.6292ZM21.3148 87.4C22.7848 87.23 24.1248 86.58 24.6248 85.6C25.1248 86.58 26.4648 87.23 27.9448 87.4L28.2348 86.75C26.6648 86.59 25.2248 85.83 25.1548 84.84H27.9448V84.18H21.3148V84.84H24.0948C24.0248 85.83 22.5948 86.59 21.0148 86.75L21.3148 87.4ZM24.6148 92.1C23.1948 92.1 22.3748 91.77 22.3748 91.18C22.3748 90.6 23.1948 90.27 24.6148 90.27C26.0248 90.27 26.8548 90.6 26.8548 91.18C26.8548 91.77 26.0248 92.1 24.6148 92.1ZM24.6148 89.64C22.6948 89.64 21.5448 90.19 21.5448 91.18C21.5448 92.18 22.6948 92.73 24.6148 92.73C26.5348 92.73 27.6848 92.18 27.6848 91.18C27.6848 90.19 26.5348 89.64 24.6148 89.64ZM25.0248 88.24V86.95H24.2048V88.24H20.5648V88.9H28.6748V88.24H25.0248ZM34.034 90.96V89.27H36.904V88.61H31.384V87.16H36.694V84.43H30.554V85.1H35.894V86.5H30.574V89.27H33.204V90.96H29.554V91.63H37.704V90.96H34.034ZM46.6832 88.21H45.3532C45.6032 86.92 45.6032 85.97 45.6032 85.13V84.35H39.5832V85.01H44.8032V85.13C44.8032 85.97 44.8032 86.92 44.5232 88.21H38.5732V88.88H42.1932V92.75H43.0232V88.88H46.6832V88.21ZM54.3087 87.6C54.5387 86.42 54.5387 85.53 54.5387 84.94V84.47H50.0787V85.14H53.7387C53.7387 85.71 53.7087 86.48 53.4987 87.51L54.3087 87.6ZM55.1587 88.14C54.2487 88.27 53.2287 88.34 52.2487 88.38V86.47H51.4387V88.41C50.7587 88.42 50.1087 88.43 49.5387 88.43L49.6187 89.1C51.2087 89.1 53.3587 89.05 55.2187 88.74L55.1587 88.14ZM51.7287 89.91H50.9087V92.54H56.8687V91.87H51.7287V89.91ZM56.5787 86.69V83.77H55.7587V90.53H56.5787V87.37H57.8687V86.69H56.5787ZM66.228 84.6H63.068V83.67H62.248V84.6H59.018V85.24H66.228V84.6ZM64.718 86.99C64.718 87.48 63.978 87.75 62.658 87.75C61.328 87.75 60.588 87.48 60.588 86.99C60.588 86.5 61.328 86.23 62.658 86.23C63.978 86.23 64.718 86.5 64.718 86.99ZM59.758 86.99C59.758 87.88 60.818 88.36 62.658 88.36C64.478 88.36 65.548 87.88 65.548 86.99C65.548 86.11 64.478 85.63 62.658 85.63C60.818 85.63 59.758 86.11 59.758 86.99ZM60.438 90.31H59.618V92.54H65.818V91.89H60.438V90.31ZM58.588 88.91V89.56H62.308V90.9H63.128V89.56H66.698V88.91H58.588ZM71.6572 92.1C70.2372 92.1 69.4072 91.75 69.4072 91.12C69.4072 90.49 70.2372 90.14 71.6572 90.14C73.0572 90.14 73.8872 90.49 73.8872 91.12C73.8872 91.75 73.0572 92.1 71.6572 92.1ZM71.6572 89.5C69.7372 89.5 68.5772 90.08 68.5772 91.12C68.5772 92.16 69.7372 92.74 71.6572 92.74C73.5572 92.74 74.7172 92.16 74.7172 91.12C74.7172 90.08 73.5572 89.5 71.6572 89.5ZM72.0672 88.2V87.16H74.7672V86.5H69.4372V84.84H74.7072V84.18H68.6172V87.16H71.2472V88.2H67.5972V88.86H75.7172V88.2H72.0672ZM78.9827 92H83.0027V91.24H81.5327V84.67H80.8327C80.4327 84.9 79.9627 85.07 79.3127 85.19V85.77H80.6127V91.24H78.9827V92ZM86.0596 88.54C85.1896 88.54 84.7496 87.9 84.7496 86.91C84.7496 85.91 85.2896 85.25 85.9896 85.25C86.9296 85.25 87.4896 86.05 87.5896 87.56C87.0996 88.26 86.5496 88.54 86.0596 88.54ZM84.0296 91.38C84.4396 91.81 84.9996 92.13 85.7896 92.13C87.1696 92.13 88.4496 90.99 88.4496 88.02C88.4496 85.69 87.3996 84.53 85.9896 84.53C84.8496 84.53 83.8896 85.49 83.8896 86.91C83.8896 88.43 84.6896 89.22 85.9096 89.22C86.5296 89.22 87.1596 88.86 87.5996 88.31C87.5296 90.59 86.7096 91.37 85.7596 91.37C85.2896 91.37 84.8396 91.16 84.5296 90.81L84.0296 91.38ZM91.8065 91.42C90.8865 91.42 90.3365 90.59 90.2265 89.07C90.7065 88.39 91.2665 88.13 91.7265 88.13C92.6165 88.13 93.0465 88.76 93.0465 89.75C93.0465 90.75 92.5065 91.42 91.8065 91.42ZM93.7765 85.28C93.3765 84.85 92.8265 84.53 92.0665 84.53C90.6465 84.53 89.3565 85.63 89.3565 88.5C89.3565 90.92 90.3965 92.13 91.8065 92.13C92.9465 92.13 93.9065 91.17 93.9065 89.75C93.9065 88.22 93.1165 87.45 91.8765 87.45C91.2965 87.45 90.6565 87.79 90.2065 88.34C90.2465 86.06 91.0965 85.29 92.0965 85.29C92.5465 85.29 92.9865 85.5 93.2765 85.85L93.7765 85.28ZM94.6034 89.55H97.1634V88.85H94.6034V89.55ZM98.2902 92H102.31V91.24H100.84V84.67H100.14C99.7402 84.9 99.2702 85.07 98.6202 85.19V85.77H99.9202V91.24H98.2902V92ZM105.537 92.13C106.927 92.13 107.817 90.86 107.817 88.31C107.817 85.77 106.927 84.53 105.537 84.53C104.137 84.53 103.247 85.76 103.247 88.31C103.247 90.86 104.137 92.13 105.537 92.13ZM105.537 91.4C104.697 91.4 104.137 90.47 104.137 88.31C104.137 86.17 104.697 85.27 105.537 85.27C106.367 85.27 106.927 86.17 106.927 88.31C106.927 90.47 106.367 91.4 105.537 91.4ZM2.64 108.13C3.94 108.13 4.99 107.35 4.99 106.04C4.99 105.04 4.3 104.38 3.43 104.18V104.14C4.21 103.85 4.74 103.26 4.74 102.37C4.74 101.19 3.84 100.53 2.61 100.53C1.76 100.53 1.11 100.9 0.56 101.41L1.05 101.99C1.46 101.58 1.98 101.28 2.57 101.26C3.33 101.28 3.81 101.73 3.81 102.44C3.81 103.23 3.29 103.84 1.78 103.84V104.54C3.47 104.54 4.06 105.13 4.06 106.01C4.06 106.85 3.44 107.37 2.57 107.37C1.74 107.37 1.18 106.98 0.75 106.53L0.29 107.13C0.77 107.65 1.49 108.13 2.64 108.13ZM6.34688 108H7.27688V104.71H10.0769V103.93H7.27688V101.45H10.5769V100.67H6.34688V108ZM10.6039 109.9C11.5039 109.52 12.0639 108.77 12.0639 107.81C12.0639 107.14 11.7739 106.73 11.2939 106.73C10.9239 106.73 10.6039 106.98 10.6039 107.37C10.6039 107.79 10.9239 108.01 11.2739 108.01C11.3139 108.01 11.3439 108.01 11.3839 108C11.3739 108.61 11.0039 109.09 10.3839 109.36L10.6039 109.9ZM17.5098 108H19.8498C21.4898 108 22.6298 107.29 22.6298 105.85C22.6298 104.85 22.0098 104.27 21.1298 104.1V104.05C21.8198 103.83 22.2098 103.19 22.2098 102.46C22.2098 101.17 21.1798 100.67 19.6898 100.67H17.5098V108ZM18.4398 103.79V101.4H19.5698C20.7098 101.4 21.2998 101.72 21.2998 102.58C21.2998 103.32 20.7898 103.79 19.5298 103.79H18.4398ZM18.4398 107.26V104.5H19.7198C20.9998 104.5 21.7198 104.91 21.7198 105.82C21.7198 106.81 20.9798 107.26 19.7198 107.26H18.4398ZM23.762 108H27.782V107.24H26.312V100.67H25.612C25.212 100.9 24.742 101.07 24.092 101.19V101.77H25.392V107.24H23.762V108ZM29.2289 108H30.1589V104.71H32.9589V103.93H30.1589V101.45H33.4589V100.67H29.2289V108ZM37.2728 101.33H39.7828V105.8H37.2728V101.33ZM36.4728 106.46H40.5828V100.67H36.4728V106.46ZM44.4928 103.35H43.0128V99.78H42.1928V108.74H43.0128V104.04H44.4928V103.35ZM51.432 101.84H46.102V104.29H52.462V103.62H46.922V102.47H52.262V100.13H46.072V100.78H51.432V101.84ZM53.242 105.21H45.102V105.88H48.752V108.75H49.572V105.88H53.242V105.21ZM56.5012 105.99C55.6312 105.99 55.0212 105.05 55.0212 103.59C55.0212 102.14 55.6312 101.2 56.5012 101.2C57.3612 101.2 57.9712 102.14 57.9712 103.59C57.9712 105.05 57.3612 105.99 56.5012 105.99ZM56.5012 100.46C55.1812 100.46 54.2412 101.68 54.2412 103.59C54.2412 105.5 55.1812 106.72 56.5012 106.72C57.8212 106.72 58.7512 105.5 58.7512 103.59C58.7512 101.68 57.8212 100.46 56.5012 100.46ZM62.4912 103.35H61.0112V99.78H60.1912V108.74H61.0112V104.04H62.4912V103.35ZM70.3105 104.61H64.9805V103.19H70.0205V102.54H64.9805V101.21H70.2205V100.55H64.1505V105.27H70.3105V104.61ZM63.1005 106.91V107.58H71.2405V106.91H63.1005ZM79.6797 99.77H78.8897V106.5H79.6797V99.77ZM77.1397 106.24H77.9097V99.95H77.1397V102.03H75.7397V102.7H77.1397V106.24ZM76.5197 104.35C75.3997 103.84 74.7597 102.78 74.7597 101.72V100.4H73.9697V101.72C73.9697 102.79 73.2897 104.02 72.1297 104.58L72.5897 105.21C73.4297 104.79 74.0497 104.01 74.3697 103.13C74.6797 103.93 75.2597 104.6 76.0697 104.98L76.5197 104.35ZM74.6497 107.87V105.68H73.8297V108.54H79.9397V107.87H74.6497ZM82.3389 103.77H85.2789V103.11H82.3389V101.26H85.6689V100.58H81.5189V106.59H82.2089C83.9189 106.59 85.0089 106.54 86.3089 106.31L86.2189 105.64C84.9989 105.86 83.9589 105.92 82.3389 105.92V103.77ZM87.6789 99.76V103.15H85.8289V103.83H87.6789V108.75H88.4989V99.76H87.6789Z" fill="#8EAEC9"/>
<path d="M5.25 75.74V73.82H7.88V72.76H2.73V70.34H7.81V69.28H1.4V73.82H3.93V75.74H0.43V76.82H8.77V75.74H5.25ZM14.4492 75.77V74.4H17.2392V73.34H11.8992V72.31H17.0292V69.24H10.5792V70.29H15.7292V71.28H10.5892V74.4H13.1292V75.77H9.62922V76.85H17.9692V75.77H14.4492ZM22.2584 72.51H20.5084V70.36H22.2584V72.51ZM25.2084 71.03V71.82H23.5484V71.03H25.2084ZM23.5484 72.87H25.2084V74.05H26.5284V68.65H25.2084V69.98H23.5484V69.31H19.2084V73.55H23.5484V72.87ZM23.4084 76.85C22.2084 76.85 21.5784 76.6 21.5784 76.07C21.5784 75.54 22.2084 75.29 23.4084 75.29C24.6184 75.29 25.2484 75.54 25.2484 76.07C25.2484 76.6 24.6184 76.85 23.4084 76.85ZM23.4084 74.28C21.4584 74.28 20.2584 74.94 20.2584 76.07C20.2584 77.2 21.4584 77.86 23.4084 77.86C25.3684 77.86 26.5684 77.2 26.5684 76.07C26.5684 74.94 25.3684 74.28 23.4084 74.28Z" fill="#8EAEC9"/>
<path d="M161.67 84.54H160.85V86.15C160.85 87.81 159.83 89.54 158.53 90.19L159.03 90.84C160.04 90.3 160.87 89.17 161.26 87.84C161.67 89.1 162.49 90.17 163.51 90.68L163.99 90.03C162.69 89.41 161.67 87.78 161.67 86.15V84.54ZM165.1 83.77V86.81H163.02V87.48H165.1V92.75H165.92V83.77H165.1ZM171.579 84.49C173.049 84.49 173.889 84.83 173.889 85.43C173.889 86.03 173.049 86.37 171.579 86.37C170.109 86.37 169.269 86.03 169.269 85.43C169.269 84.83 170.109 84.49 171.579 84.49ZM171.579 86.98C173.559 86.98 174.729 86.44 174.729 85.43C174.729 84.42 173.559 83.87 171.579 83.87C169.609 83.87 168.429 84.42 168.429 85.43C168.429 86.44 169.609 86.98 171.579 86.98ZM175.629 88.23V87.57H167.529V88.23H171.169V89.07H168.509V89.69H173.789V90.49H168.529V92.64H174.869V92H169.329V91.09H174.599V89.07H171.989V88.23H175.629ZM179.315 87.4C180.785 87.23 182.125 86.58 182.625 85.6C183.125 86.58 184.465 87.23 185.945 87.4L186.235 86.75C184.665 86.59 183.225 85.83 183.155 84.84H185.945V84.18H179.315V84.84H182.095C182.025 85.83 180.595 86.59 179.015 86.75L179.315 87.4ZM182.615 92.1C181.195 92.1 180.375 91.77 180.375 91.18C180.375 90.6 181.195 90.27 182.615 90.27C184.025 90.27 184.855 90.6 184.855 91.18C184.855 91.77 184.025 92.1 182.615 92.1ZM182.615 89.64C180.695 89.64 179.545 90.19 179.545 91.18C179.545 92.18 180.695 92.73 182.615 92.73C184.535 92.73 185.685 92.18 185.685 91.18C185.685 90.19 184.535 89.64 182.615 89.64ZM183.025 88.24V86.95H182.205V88.24H178.565V88.9H186.675V88.24H183.025ZM192.034 90.96V89.27H194.904V88.61H189.384V87.16H194.694V84.43H188.554V85.1H193.894V86.5H188.574V89.27H191.204V90.96H187.554V91.63H195.704V90.96H192.034ZM204.683 88.21H203.353C203.603 86.92 203.603 85.97 203.603 85.13V84.35H197.583V85.01H202.803V85.13C202.803 85.97 202.803 86.92 202.523 88.21H196.573V88.88H200.193V92.75H201.023V88.88H204.683V88.21ZM214.959 83.78H214.139V90.33H214.959V83.78ZM208.609 86.6C208.609 85.73 209.269 85.11 210.139 85.11C211.029 85.11 211.689 85.73 211.689 86.6C211.689 87.49 211.029 88.11 210.139 88.11C209.269 88.11 208.609 87.49 208.609 86.6ZM212.489 86.6C212.489 85.31 211.479 84.4 210.139 84.4C208.809 84.4 207.809 85.31 207.809 86.6C207.809 87.9 208.809 88.82 210.139 88.82C211.479 88.82 212.489 87.9 212.489 86.6ZM210.009 91.87V89.66H209.189V92.54H215.229V91.87H210.009ZM219.608 84.55H218.798V86.16C218.798 87.79 217.778 89.51 216.488 90.17L216.978 90.83C217.988 90.29 218.818 89.17 219.208 87.86C219.618 89.09 220.428 90.14 221.378 90.65L221.888 90C220.628 89.37 219.608 87.74 219.608 86.16V84.55ZM224.978 87.41H223.498V83.78H222.678V92.74H223.498V88.09H224.978V87.41ZM229.657 92.1C228.237 92.1 227.407 91.75 227.407 91.12C227.407 90.49 228.237 90.14 229.657 90.14C231.057 90.14 231.887 90.49 231.887 91.12C231.887 91.75 231.057 92.1 229.657 92.1ZM229.657 89.5C227.737 89.5 226.577 90.08 226.577 91.12C226.577 92.16 227.737 92.74 229.657 92.74C231.557 92.74 232.717 92.16 232.717 91.12C232.717 90.08 231.557 89.5 229.657 89.5ZM230.067 88.2V87.16H232.767V86.5H227.437V84.84H232.707V84.18H226.617V87.16H229.247V88.2H225.597V88.86H233.717V88.2H230.067ZM241.956 83.77H241.136V88.35H241.956V83.77ZM235.196 84.21V84.88H238.386C238.256 86.31 236.986 87.38 234.746 87.87L235.046 88.53C237.686 87.93 239.276 86.49 239.276 84.21H235.196ZM236.986 92V90.96H241.956V88.78H236.146V89.43H241.136V90.35H236.166V92.65H242.256V92H236.986ZM247.742 92.13C249.042 92.13 250.092 91.35 250.092 90.04C250.092 89.04 249.402 88.38 248.532 88.18V88.14C249.312 87.85 249.842 87.26 249.842 86.37C249.842 85.19 248.942 84.53 247.712 84.53C246.862 84.53 246.212 84.9 245.662 85.41L246.152 85.99C246.562 85.58 247.082 85.28 247.672 85.26C248.432 85.28 248.912 85.73 248.912 86.44C248.912 87.23 248.392 87.84 246.882 87.84V88.54C248.572 88.54 249.162 89.13 249.162 90.01C249.162 90.85 248.542 91.37 247.672 91.37C246.842 91.37 246.282 90.98 245.852 90.53L245.392 91.13C245.872 91.65 246.592 92.13 247.742 92.13ZM253.059 92.13C254.299 92.13 255.459 91.22 255.459 89.61C255.459 88 254.469 87.28 253.249 87.28C252.809 87.28 252.479 87.39 252.159 87.57L252.339 85.45H255.109V84.67H251.539L251.309 88.1L251.799 88.4C252.219 88.12 252.529 87.97 253.019 87.97C253.939 87.97 254.539 88.59 254.539 89.64C254.539 90.71 253.839 91.37 252.979 91.37C252.129 91.37 251.599 90.98 251.179 90.56L250.729 91.16C251.219 91.65 251.919 92.13 253.059 92.13ZM256.256 89.55H258.816V88.85H256.256V89.55ZM262.073 91.42C261.153 91.42 260.603 90.59 260.493 89.07C260.973 88.39 261.533 88.13 261.993 88.13C262.883 88.13 263.313 88.76 263.313 89.75C263.313 90.75 262.773 91.42 262.073 91.42ZM264.043 85.28C263.643 84.85 263.093 84.53 262.333 84.53C260.913 84.53 259.623 85.63 259.623 88.5C259.623 90.92 260.663 92.13 262.073 92.13C263.213 92.13 264.173 91.17 264.173 89.75C264.173 88.22 263.383 87.45 262.143 87.45C261.562 87.45 260.923 87.79 260.473 88.34C260.513 86.06 261.363 85.29 262.363 85.29C262.813 85.29 263.253 85.5 263.543 85.85L264.043 85.28ZM160.64 108.13C161.94 108.13 162.99 107.35 162.99 106.04C162.99 105.04 162.3 104.38 161.43 104.18V104.14C162.21 103.85 162.74 103.26 162.74 102.37C162.74 101.19 161.84 100.53 160.61 100.53C159.76 100.53 159.11 100.9 158.56 101.41L159.05 101.99C159.46 101.58 159.98 101.28 160.57 101.26C161.33 101.28 161.81 101.73 161.81 102.44C161.81 103.23 161.29 103.84 159.78 103.84V104.54C161.47 104.54 162.06 105.13 162.06 106.01C162.06 106.85 161.44 107.37 160.57 107.37C159.74 107.37 159.18 106.98 158.75 106.53L158.29 107.13C158.77 107.65 159.49 108.13 160.64 108.13ZM164.347 108H165.277V104.71H168.077V103.93H165.277V101.45H168.577V100.67H164.347V108ZM168.604 109.9C169.504 109.52 170.064 108.77 170.064 107.81C170.064 107.14 169.774 106.73 169.294 106.73C168.924 106.73 168.604 106.98 168.604 107.37C168.604 107.79 168.924 108.01 169.274 108.01C169.314 108.01 169.344 108.01 169.384 108C169.374 108.61 169.004 109.09 168.384 109.36L168.604 109.9ZM175.51 108H177.85C179.49 108 180.63 107.29 180.63 105.85C180.63 104.85 180.01 104.27 179.13 104.1V104.05C179.82 103.83 180.21 103.19 180.21 102.46C180.21 101.17 179.18 100.67 177.69 100.67H175.51V108ZM176.44 103.79V101.4H177.57C178.71 101.4 179.3 101.72 179.3 102.58C179.3 103.32 178.79 103.79 177.53 103.79H176.44ZM176.44 107.26V104.5H177.72C179 104.5 179.72 104.91 179.72 105.82C179.72 106.81 178.98 107.26 177.72 107.26H176.44ZM181.762 108H185.782V107.24H184.312V100.67H183.612C183.212 100.9 182.742 101.07 182.092 101.19V101.77H183.392V107.24H181.762V108ZM187.229 108H188.159V104.71H190.959V103.93H188.159V101.45H191.459V100.67H187.229V108ZM195.273 101.33H197.783V105.8H195.273V101.33ZM194.473 106.46H198.583V100.67H194.473V106.46ZM202.493 103.35H201.013V99.78H200.193V108.74H201.013V104.04H202.493V103.35ZM209.432 101.84H204.102V104.29H210.462V103.62H204.922V102.47H210.262V100.13H204.072V100.78H209.432V101.84ZM211.242 105.21H203.102V105.88H206.752V108.75H207.572V105.88H211.242V105.21ZM214.501 105.99C213.631 105.99 213.021 105.05 213.021 103.59C213.021 102.14 213.631 101.2 214.501 101.2C215.361 101.2 215.971 102.14 215.971 103.59C215.971 105.05 215.361 105.99 214.501 105.99ZM214.501 100.46C213.181 100.46 212.241 101.68 212.241 103.59C212.241 105.5 213.181 106.72 214.501 106.72C215.821 106.72 216.751 105.5 216.751 103.59C216.751 101.68 215.821 100.46 214.501 100.46ZM220.491 103.35H219.011V99.78H218.191V108.74H219.011V104.04H220.491V103.35ZM228.31 104.61H222.98V103.19H228.02V102.54H222.98V101.21H228.22V100.55H222.15V105.27H228.31V104.61ZM221.1 106.91V107.58H229.24V106.91H221.1ZM237.68 99.77H236.89V106.5H237.68V99.77ZM235.14 106.24H235.91V99.95H235.14V102.03H233.74V102.7H235.14V106.24ZM234.52 104.35C233.4 103.84 232.76 102.78 232.76 101.72V100.4H231.97V101.72C231.97 102.79 231.29 104.02 230.13 104.58L230.59 105.21C231.43 104.79 232.05 104.01 232.37 103.13C232.68 103.93 233.26 104.6 234.07 104.98L234.52 104.35ZM232.65 107.87V105.68H231.83V108.54H237.94V107.87H232.65ZM240.339 103.77H243.279V103.11H240.339V101.26H243.669V100.58H239.519V106.59H240.209C241.919 106.59 243.009 106.54 244.309 106.31L244.219 105.64C242.999 105.86 241.959 105.92 240.339 105.92V103.77ZM245.679 99.76V103.15H243.829V103.83H245.679V108.75H246.499V99.76H245.679Z" fill="#8EAEC9"/>
<path d="M161.99 70.62H163.89V69.53H158.73V70.62H160.65V71.13C160.65 72.7 159.9 74.39 158.36 75.08L159.11 76.13C160.19 75.64 160.93 74.63 161.34 73.43C161.75 74.54 162.48 75.44 163.55 75.9L164.27 74.86C162.73 74.22 161.99 72.63 161.99 71.13V70.62ZM164.74 68.65V77.86H166.06V68.65H164.74ZM171.079 72.97H169.329V71.67H171.079V72.97ZM172.369 72.16H174.009V75.45H175.329V68.66H174.009V71.1H172.369V69.27H171.079V70.66H169.329V69.26H168.019V74.02H172.369V72.16ZM170.569 76.65V74.79H169.249V77.7H175.529V76.65H170.569Z" fill="#8EAEC9"/>
<path d="M0.4 255.2C0.4 257.66 1.92 259.15 3.6 259.15C5.28 259.15 6.8 257.66 6.8 255.2C6.8 252.74 5.28 251.25 3.6 251.25C1.92 251.25 0.4 252.74 0.4 255.2ZM6.08 255.2C6.08 257.28 4.86 258.53 3.6 258.53C2.34 258.53 1.12 257.28 1.12 255.2C1.12 253.12 2.34 251.87 3.6 251.87C4.86 251.87 6.08 253.12 6.08 255.2ZM12.4373 253.46C12.4373 252.23 11.4373 251.25 9.83727 251.25C8.69727 251.25 7.85727 251.95 7.34727 252.87L7.88727 253.22C8.31727 252.46 8.92727 251.87 9.83727 251.87C10.9673 251.87 11.7173 252.58 11.7173 253.46C11.7173 254.35 11.0873 254.98 10.4873 255.52L7.30727 258.42V258.95H12.6373V258.33H8.29727L10.9073 256.02C11.6373 255.38 12.4373 254.61 12.4373 253.46ZM17.1943 254.86H13.0143V255.48H17.1943V254.86ZM22.6916 253.46C22.6916 252.23 21.6916 251.25 20.0916 251.25C18.9516 251.25 18.1116 251.95 17.6016 252.87L18.1416 253.22C18.5716 252.46 19.1816 251.87 20.0916 251.87C21.2216 251.87 21.9716 252.58 21.9716 253.46C21.9716 254.35 21.3416 254.98 20.7416 255.52L17.5616 258.42V258.95H22.8916V258.33H18.5516L21.1616 256.02C21.8916 255.38 22.6916 254.61 22.6916 253.46ZM28.4486 253.46C28.4486 252.23 27.4486 251.25 25.8486 251.25C24.7086 251.25 23.8686 251.95 23.3586 252.87L23.8986 253.22C24.3286 252.46 24.9386 251.87 25.8486 251.87C26.9786 251.87 27.7286 252.58 27.7286 253.46C27.7286 254.35 27.0986 254.98 26.4986 255.52L23.3186 258.42V258.95H28.6486V258.33H24.3086L26.9186 256.02C27.6486 255.38 28.4486 254.61 28.4486 253.46ZM34.2056 253.46C34.2056 252.23 33.2056 251.25 31.6056 251.25C30.4656 251.25 29.6256 251.95 29.1156 252.87L29.6556 253.22C30.0856 252.46 30.6956 251.87 31.6056 251.87C32.7356 251.87 33.4856 252.58 33.4856 253.46C33.4856 254.35 32.8556 254.98 32.2556 255.52L29.0756 258.42V258.95H34.4056V258.33H30.0656L32.6756 256.02C33.4056 255.38 34.2056 254.61 34.2056 253.46ZM37.4527 258.53C36.6427 258.53 35.7827 257.97 35.3627 257.22L34.8027 257.59C35.2927 258.51 36.3027 259.15 37.4527 259.15C39.1827 259.15 40.2227 258.08 40.2227 256.74C40.2227 255.46 39.3127 254.41 37.5327 254.39L39.9727 252V251.45H35.1527V252.07H39.0027L36.2727 254.73L36.5527 255.23C36.6327 255.19 37.0727 255 37.4227 255C38.7027 255 39.5027 255.75 39.5027 256.74C39.5027 257.73 38.7727 258.53 37.4527 258.53ZM44.7197 254.86H40.5397V255.48H44.7197V254.86ZM50.217 253.46C50.217 252.23 49.217 251.25 47.617 251.25C46.477 251.25 45.637 251.95 45.127 252.87L45.667 253.22C46.097 252.46 46.707 251.87 47.617 251.87C48.747 251.87 49.497 252.58 49.497 253.46C49.497 254.35 48.867 254.98 48.267 255.52L45.087 258.42V258.95H50.417V258.33H46.077L48.687 256.02C49.417 255.38 50.217 254.61 50.217 253.46ZM51.934 251.45L51.334 255.04L51.854 255.26C51.994 255.16 52.674 254.67 53.554 254.67C54.904 254.67 55.514 255.52 55.514 256.61C55.514 257.7 54.704 258.53 53.464 258.53C52.654 258.53 51.784 257.97 51.354 257.23L50.814 257.6C51.324 258.48 52.304 259.15 53.464 259.15C55.184 259.15 56.234 258.09 56.234 256.61C56.234 255.18 55.304 254.05 53.554 254.05C52.984 254.05 52.484 254.24 52.164 254.43L52.534 252.07H55.914V251.45H51.934ZM59.221 258.53C58.411 258.53 57.551 257.97 57.131 257.22L56.571 257.59C57.061 258.51 58.071 259.15 59.221 259.15C60.951 259.15 61.991 258.08 61.991 256.74C61.991 255.46 61.081 254.41 59.301 254.39L61.741 252V251.45H56.921V252.07H60.771L58.041 254.73L58.321 255.23C58.401 255.19 58.841 255 59.191 255C60.471 255 61.271 255.75 61.271 256.74C61.271 257.73 60.541 258.53 59.221 258.53ZM64.978 258.53C64.168 258.53 63.308 257.97 62.888 257.22L62.328 257.59C62.818 258.51 63.828 259.15 64.978 259.15C66.708 259.15 67.748 258.08 67.748 256.74C67.748 255.46 66.838 254.41 65.058 254.39L67.498 252V251.45H62.678V252.07H66.528L63.798 254.73L64.078 255.23C64.158 255.19 64.598 255 64.948 255C66.228 255 67.028 255.75 67.028 256.74C67.028 257.73 66.298 258.53 64.978 258.53Z" fill="#8EAEC9"/>
<path d="M1.8 237.58C1.8 236.82 2.3 236.35 2.97 236.35C3.65 236.35 4.15 236.82 4.15 237.58C4.15 238.35 3.65 238.82 2.97 238.82C2.3 238.82 1.8 238.35 1.8 237.58ZM6.81 236.98V238.17H5.33C5.38 237.99 5.4 237.78 5.4 237.58C5.4 237.37 5.37 237.17 5.33 236.98H6.81ZM6.81 239.22V241.39H8.13V234.65H6.81V235.93H4.76C4.31 235.47 3.69 235.2 2.97 235.2C1.61 235.2 0.55 236.21 0.55 237.58C0.55 238.96 1.61 239.97 2.97 239.97C3.69 239.97 4.33 239.69 4.78 239.22H6.81ZM3.38 242.65V240.73H2.06V243.7H8.34V242.65H3.38ZM9.75922 237.01V239.92H10.5492C12.3892 239.92 13.5592 239.88 14.8392 239.64L14.7292 238.58C13.5792 238.79 12.5692 238.85 11.0692 238.86V237.99H13.9492V235.16H9.74922V236.21H12.6492V237.01H9.75922ZM10.5392 241.72H15.3592V243.86H16.6792V240.67H10.5392V241.72ZM17.8992 236.84H16.6792V234.66H15.3592V240.25H16.6792V237.93H17.8992V236.84ZM21.8684 237.2H23.6984V236.15H21.8684V234.87H20.5484V236.15H18.6884V237.2H20.5484V237.52C20.5484 238.9 19.8584 240.46 18.3784 241.15L19.0784 242.16C20.1184 241.69 20.8384 240.76 21.2284 239.66C21.6284 240.7 22.3484 241.56 23.3584 242.01L24.0584 241C22.5784 240.34 21.8684 238.84 21.8684 237.52V237.2ZM24.8384 234.65V238.17H23.2084V239.24H24.8384V243.88H26.1584V234.65H24.8384Z" fill="#8EAEC9"/>
<path d="M160.376 242.117C161.546 242.117 162.491 241.415 162.491 240.236C162.491 239.336 161.87 238.742 161.087 238.562V238.526C161.789 238.265 162.266 237.734 162.266 236.933C162.266 235.871 161.456 235.277 160.349 235.277C159.584 235.277 158.999 235.61 158.504 236.069L158.945 236.591C159.314 236.222 159.782 235.952 160.313 235.934C160.997 235.952 161.429 236.357 161.429 236.996C161.429 237.707 160.961 238.256 159.602 238.256V238.886C161.123 238.886 161.654 239.417 161.654 240.209C161.654 240.965 161.096 241.433 160.313 241.433C159.566 241.433 159.062 241.082 158.675 240.677L158.261 241.217C158.693 241.685 159.341 242.117 160.376 242.117ZM170.201 235.772H167.312V234.719H166.574V235.772H163.649V236.375H170.201V235.772ZM165.035 238.454C165.035 237.86 165.764 237.5 166.943 237.5C168.104 237.5 168.824 237.86 168.824 238.454C168.824 239.057 168.104 239.417 166.943 239.417C165.764 239.417 165.035 239.057 165.035 238.454ZM167.312 241.118V239.984C168.716 239.894 169.571 239.354 169.571 238.454C169.571 237.482 168.554 236.924 166.943 236.924C165.305 236.924 164.288 237.482 164.288 238.454C164.288 239.354 165.152 239.903 166.574 239.984V241.118H163.289V241.721H170.606V241.118H167.312ZM177.292 240.632H178.039V234.602H177.292V236.492H175.528V237.104H177.292V240.632ZM176.104 238.724C174.943 238.292 174.151 237.23 174.151 236.105V235.079H173.413V236.078C173.413 237.311 172.603 238.454 171.397 238.895L171.784 239.48C172.729 239.102 173.449 238.337 173.791 237.374C174.133 238.247 174.826 238.94 175.717 239.291L176.104 238.724ZM173.584 241.883V239.966H172.846V242.486H178.228V241.883H173.584ZM182.193 237.149C182.193 236.357 182.787 235.799 183.579 235.799C184.371 235.799 184.965 236.357 184.965 237.149C184.965 237.941 184.371 238.499 183.579 238.499C182.787 238.499 182.193 237.941 182.193 237.149ZM185.685 237.149C185.685 235.979 184.785 235.16 183.579 235.16C182.373 235.16 181.473 235.979 181.473 237.149C181.473 238.319 182.373 239.138 183.579 239.138C184.785 239.138 185.685 238.319 185.685 237.149ZM183.3 239.93H182.562V242.486H187.944V241.883H183.3V239.93ZM187.584 237.05V234.593H186.846V240.533H187.584V237.662H188.781V237.05H187.584ZM196.746 238.463V237.86H195.603C195.801 236.906 195.801 236.168 195.801 235.565V234.98H190.356V235.574H195.072C195.072 236.177 195.072 236.888 194.856 237.86H189.42V238.463H192.705V239.939H190.194V240.533H195.108V242.657H195.846V239.939H193.443V238.463H196.746ZM198.77 240.398H203.423V242.675H204.17V239.795H198.77V240.398ZM201.704 237.59C201.758 237.401 201.794 237.203 201.794 236.978C201.794 236.762 201.758 236.564 201.704 236.375H203.423V237.59H201.704ZM199.715 238.301C198.932 238.301 198.347 237.752 198.347 236.978C198.347 236.222 198.932 235.673 199.715 235.673C200.507 235.673 201.092 236.222 201.092 236.978C201.092 237.752 200.507 238.301 199.715 238.301ZM203.423 234.602V235.781H201.389C201.011 235.322 200.417 235.043 199.715 235.043C198.527 235.043 197.645 235.844 197.645 236.978C197.645 238.121 198.527 238.931 199.715 238.931C200.417 238.931 201.002 238.652 201.38 238.193H203.423V239.354H204.17V234.593L203.423 234.602ZM209.683 241.478C208.855 241.478 208.36 240.731 208.261 239.363C208.693 238.751 209.197 238.517 209.611 238.517C210.412 238.517 210.799 239.084 210.799 239.975C210.799 240.875 210.313 241.478 209.683 241.478ZM211.456 235.952C211.096 235.565 210.601 235.277 209.917 235.277C208.639 235.277 207.478 236.267 207.478 238.85C207.478 241.028 208.414 242.117 209.683 242.117C210.709 242.117 211.573 241.253 211.573 239.975C211.573 238.598 210.862 237.905 209.746 237.905C209.224 237.905 208.648 238.211 208.243 238.706C208.279 236.654 209.044 235.961 209.944 235.961C210.349 235.961 210.745 236.15 211.006 236.465L211.456 235.952ZM215.575 238.598H213.397V237.14H215.575V238.598ZM216.304 237.473H218.167V240.569H218.914V234.593H218.167V236.87H216.304V235.133H215.575V236.555H213.397V235.133H212.668V239.192H216.304V237.473ZM214.459 241.883V239.984H213.721V242.486H219.103V241.883H214.459ZM220.966 237.815C222.325 237.707 223.522 237.293 224.017 236.546C224.512 237.293 225.7 237.707 227.05 237.815L227.275 237.257C225.772 237.158 224.557 236.663 224.431 235.862H226.915V235.304H224.386V234.539H223.648V235.304H221.11V235.862H223.603C223.477 236.663 222.244 237.158 220.75 237.257L220.966 237.815ZM227.653 238.742V238.175H220.372V238.742H223.639V239.489H221.236V240.038H225.997V240.722H221.263V242.576H226.969V242.018H221.983V241.253H226.726V239.489H224.386V238.742H227.653ZM235.77 238.589H234.573C234.798 237.428 234.798 236.573 234.798 235.817V235.115H229.38V235.709H234.078V235.817C234.078 236.573 234.078 237.428 233.826 238.589H228.471V239.192H231.729V242.675H232.476V239.192H235.77V238.589ZM238.952 239.525L240.455 237.275C240.644 236.951 240.824 236.627 240.986 236.303H241.022C241.004 236.645 240.968 237.176 240.968 237.5V239.525H238.952ZM242.624 239.525H241.751V235.403H240.842L238.097 239.642V240.182H240.968V242H241.751V240.182H242.624V239.525ZM245.231 242.117C246.482 242.117 247.283 240.974 247.283 238.679C247.283 236.393 246.482 235.277 245.231 235.277C243.971 235.277 243.17 236.384 243.17 238.679C243.17 240.974 243.971 242.117 245.231 242.117ZM245.231 241.46C244.475 241.46 243.971 240.623 243.971 238.679C243.971 236.753 244.475 235.943 245.231 235.943C245.978 235.943 246.482 236.753 246.482 238.679C246.482 240.623 245.978 241.46 245.231 241.46ZM248.576 239.525L250.079 237.275C250.268 236.951 250.448 236.627 250.61 236.303H250.646C250.628 236.645 250.592 237.176 250.592 237.5V239.525H248.576ZM252.248 239.525H251.375V235.403H250.466L247.721 239.642V240.182H250.592V242H251.375V240.182H252.248V239.525ZM253.181 242H254V238.454C254.45 237.95 254.864 237.707 255.233 237.707C255.854 237.707 256.142 238.094 256.142 239.012V242H256.961V238.454C257.42 237.95 257.816 237.707 258.194 237.707C258.815 237.707 259.103 238.094 259.103 239.012V242H259.922V238.904C259.922 237.653 259.445 236.987 258.437 236.987C257.843 236.987 257.33 237.374 256.826 237.923C256.628 237.347 256.223 236.987 255.476 236.987C254.891 236.987 254.378 237.356 253.955 237.824H253.928L253.856 237.113H253.181V242Z" fill="#8EAEC9"/>
<path d="M160.349 259.117C161.465 259.117 162.509 258.298 162.509 256.849C162.509 255.4 161.618 254.752 160.52 254.752C160.124 254.752 159.827 254.851 159.539 255.013L159.701 253.105H162.194V252.403H158.981L158.774 255.49L159.215 255.76C159.593 255.508 159.872 255.373 160.313 255.373C161.141 255.373 161.681 255.931 161.681 256.876C161.681 257.839 161.051 258.433 160.277 258.433C159.512 258.433 159.035 258.082 158.657 257.704L158.252 258.244C158.693 258.685 159.323 259.117 160.349 259.117ZM170.201 252.772H167.312V251.719H166.574V252.772H163.649V253.375H170.201V252.772ZM165.035 255.454C165.035 254.86 165.764 254.5 166.943 254.5C168.104 254.5 168.824 254.86 168.824 255.454C168.824 256.057 168.104 256.417 166.943 256.417C165.764 256.417 165.035 256.057 165.035 255.454ZM167.312 258.118V256.984C168.716 256.894 169.571 256.354 169.571 255.454C169.571 254.482 168.554 253.924 166.943 253.924C165.305 253.924 164.288 254.482 164.288 255.454C164.288 256.354 165.152 256.903 166.574 256.984V258.118H163.289V258.721H170.606V258.118H167.312ZM177.292 257.632H178.039V251.602H177.292V253.492H175.528V254.104H177.292V257.632ZM176.104 255.724C174.943 255.292 174.151 254.23 174.151 253.105V252.079H173.413V253.078C173.413 254.311 172.603 255.454 171.397 255.895L171.784 256.48C172.729 256.102 173.449 255.337 173.791 254.374C174.133 255.247 174.826 255.94 175.717 256.291L176.104 255.724ZM173.584 258.883V256.966H172.846V259.486H178.228V258.883H173.584ZM181.995 254.86C183.318 254.707 184.524 254.122 184.974 253.24C185.424 254.122 186.63 254.707 187.962 254.86L188.223 254.275C186.81 254.131 185.514 253.447 185.451 252.556H187.962V251.962H181.995V252.556H184.497C184.434 253.447 183.147 254.131 181.725 254.275L181.995 254.86ZM184.965 259.09C183.687 259.09 182.949 258.793 182.949 258.262C182.949 257.74 183.687 257.443 184.965 257.443C186.234 257.443 186.981 257.74 186.981 258.262C186.981 258.793 186.234 259.09 184.965 259.09ZM184.965 256.876C183.237 256.876 182.202 257.371 182.202 258.262C182.202 259.162 183.237 259.657 184.965 259.657C186.693 259.657 187.728 259.162 187.728 258.262C187.728 257.371 186.693 256.876 184.965 256.876ZM185.334 255.616V254.455H184.596V255.616H181.32V256.21H188.619V255.616H185.334ZM193.443 258.064V256.543H196.026V255.949H191.058V254.644H195.837V252.187H190.311V252.79H195.117V254.05H190.329V256.543H192.696V258.064H189.411V258.667H196.746V258.064H193.443ZM199.418 259.117C200.588 259.117 201.533 258.415 201.533 257.236C201.533 256.336 200.912 255.742 200.129 255.562V255.526C200.831 255.265 201.308 254.734 201.308 253.933C201.308 252.871 200.498 252.277 199.391 252.277C198.626 252.277 198.041 252.61 197.546 253.069L197.987 253.591C198.356 253.222 198.824 252.952 199.355 252.934C200.039 252.952 200.471 253.357 200.471 253.996C200.471 254.707 200.003 255.256 198.644 255.256V255.886C200.165 255.886 200.696 256.417 200.696 257.209C200.696 257.965 200.138 258.433 199.355 258.433C198.608 258.433 198.104 258.082 197.717 257.677L197.303 258.217C197.735 258.685 198.383 259.117 199.418 259.117ZM202.763 252.457V253.069H205.724C205.553 254.977 204.446 256.525 202.385 257.56L202.79 258.136C205.4 256.831 206.453 254.752 206.453 252.457H202.763ZM209.837 254.869H208.541V251.593H207.803V259.666H208.541V255.481H209.837V254.869ZM211.682 257.398H216.335V259.675H217.082V256.795H211.682V257.398ZM214.616 254.59C214.67 254.401 214.706 254.203 214.706 253.978C214.706 253.762 214.67 253.564 214.616 253.375H216.335V254.59H214.616ZM212.627 255.301C211.844 255.301 211.259 254.752 211.259 253.978C211.259 253.222 211.844 252.673 212.627 252.673C213.419 252.673 214.004 253.222 214.004 253.978C214.004 254.752 213.419 255.301 212.627 255.301ZM216.335 251.602V252.781H214.301C213.923 252.322 213.329 252.043 212.627 252.043C211.439 252.043 210.557 252.844 210.557 253.978C210.557 255.121 211.439 255.931 212.627 255.931C213.329 255.931 213.914 255.652 214.292 255.193H216.335V256.354H217.082V251.593L216.335 251.602ZM222.235 259.117C223.351 259.117 224.395 258.298 224.395 256.849C224.395 255.4 223.504 254.752 222.406 254.752C222.01 254.752 221.713 254.851 221.425 255.013L221.587 253.105H224.08V252.403H220.867L220.66 255.49L221.101 255.76C221.479 255.508 221.758 255.373 222.199 255.373C223.027 255.373 223.567 255.931 223.567 256.876C223.567 257.839 222.937 258.433 222.163 258.433C221.398 258.433 220.921 258.082 220.543 257.704L220.138 258.244C220.579 258.685 221.209 259.117 222.235 259.117ZM228.487 255.598H226.309V254.14H228.487V255.598ZM229.216 254.473H231.079V257.569H231.826V251.593H231.079V253.87H229.216V252.133H228.487V253.555H226.309V252.133H225.58V256.192H229.216V254.473ZM227.371 258.883V256.984H226.633V259.486H232.015V258.883H227.371ZM233.877 254.815C235.236 254.707 236.433 254.293 236.928 253.546C237.423 254.293 238.611 254.707 239.961 254.815L240.186 254.257C238.683 254.158 237.468 253.663 237.342 252.862H239.826V252.304H237.297V251.539H236.559V252.304H234.021V252.862H236.514C236.388 253.663 235.155 254.158 233.661 254.257L233.877 254.815ZM240.564 255.742V255.175H233.283V255.742H236.55V256.489H234.147V257.038H238.908V257.722H234.174V259.576H239.88V259.018H234.894V258.253H239.637V256.489H237.297V255.742H240.564ZM248.681 255.589H247.484C247.709 254.428 247.709 253.573 247.709 252.817V252.115H242.291V252.709H246.989V252.817C246.989 253.573 246.989 254.428 246.737 255.589H241.382V256.192H244.64V259.675H245.387V256.192H248.681V255.589ZM251.863 256.525L253.366 254.275C253.555 253.951 253.735 253.627 253.897 253.303H253.933C253.915 253.645 253.879 254.176 253.879 254.5V256.525H251.863ZM255.535 256.525H254.662V252.403H253.753L251.008 256.642V257.182H253.879V259H254.662V257.182H255.535V256.525ZM256.037 259H260.186V258.289H258.359C258.026 258.289 257.621 258.325 257.279 258.352C258.827 256.885 259.862 255.544 259.862 254.23C259.862 253.051 259.124 252.277 257.945 252.277C257.108 252.277 256.541 252.664 256.001 253.249L256.478 253.717C256.838 253.285 257.306 252.952 257.846 252.952C258.665 252.952 259.061 253.501 259.061 254.257C259.061 255.391 258.107 256.705 256.037 258.514V259ZM262.955 259.117C264.206 259.117 265.007 257.974 265.007 255.679C265.007 253.393 264.206 252.277 262.955 252.277C261.695 252.277 260.894 253.384 260.894 255.679C260.894 257.974 261.695 259.117 262.955 259.117ZM262.955 258.46C262.199 258.46 261.695 257.623 261.695 255.679C261.695 253.753 262.199 252.943 262.955 252.943C263.702 252.943 264.206 253.753 264.206 255.679C264.206 257.623 263.702 258.46 262.955 258.46ZM266.093 259H266.912V255.454C267.362 254.95 267.776 254.707 268.145 254.707C268.766 254.707 269.054 255.094 269.054 256.012V259H269.873V255.454C270.332 254.95 270.728 254.707 271.106 254.707C271.727 254.707 272.015 255.094 272.015 256.012V259H272.834V255.904C272.834 254.653 272.357 253.987 271.349 253.987C270.755 253.987 270.242 254.374 269.738 254.923C269.54 254.347 269.135 253.987 268.388 253.987C267.803 253.987 267.29 254.356 266.867 254.824H266.84L266.768 254.113H266.093V259Z" fill="#8EAEC9"/>
<path d="M5.44 173.46C5.44 172.23 4.44 171.25 2.84 171.25C1.7 171.25 0.86 171.95 0.35 172.87L0.89 173.22C1.32 172.46 1.93 171.87 2.84 171.87C3.97 171.87 4.72 172.58 4.72 173.46C4.72 174.35 4.09 174.98 3.49 175.52L0.31 178.42V178.95H5.64V178.33H1.3L3.91 176.02C4.64 175.38 5.44 174.61 5.44 173.46ZM6.15703 175.2C6.15703 177.66 7.67703 179.15 9.35703 179.15C11.037 179.15 12.557 177.66 12.557 175.2C12.557 172.74 11.037 171.25 9.35703 171.25C7.67703 171.25 6.15703 172.74 6.15703 175.2ZM11.837 175.2C11.837 177.28 10.617 178.53 9.35703 178.53C8.09703 178.53 6.87703 177.28 6.87703 175.2C6.87703 173.12 8.09703 171.87 9.35703 171.87C10.617 171.87 11.837 173.12 11.837 175.2ZM18.1943 173.46C18.1943 172.23 17.1943 171.25 15.5943 171.25C14.4543 171.25 13.6143 171.95 13.1043 172.87L13.6443 173.22C14.0743 172.46 14.6843 171.87 15.5943 171.87C16.7243 171.87 17.4743 172.58 17.4743 173.46C17.4743 174.35 16.8443 174.98 16.2443 175.52L13.0643 178.42V178.95H18.3943V178.33H14.0543L16.6643 176.02C17.3943 175.38 18.1943 174.61 18.1943 173.46ZM23.9513 173.46C23.9513 172.23 22.9513 171.25 21.3513 171.25C20.2113 171.25 19.3713 171.95 18.8613 172.87L19.4013 173.22C19.8313 172.46 20.4413 171.87 21.3513 171.87C22.4813 171.87 23.2313 172.58 23.2313 173.46C23.2313 174.35 22.6013 174.98 22.0013 175.52L18.8213 178.42V178.95H24.1513V178.33H19.8113L22.4213 176.02C23.1513 175.38 23.9513 174.61 23.9513 173.46ZM24.7784 179.5H25.7384V178.54H24.7784V179.5ZM26.4313 175.2C26.4313 177.66 27.9513 179.15 29.6313 179.15C31.3112 179.15 32.8313 177.66 32.8313 175.2C32.8313 172.74 31.3112 171.25 29.6313 171.25C27.9513 171.25 26.4313 172.74 26.4313 175.2ZM32.1113 175.2C32.1113 177.28 30.8913 178.53 29.6313 178.53C28.3713 178.53 27.1513 177.28 27.1513 175.2C27.1513 173.12 28.3713 171.87 29.6313 171.87C30.8913 171.87 32.1113 173.12 32.1113 175.2ZM34.1985 173.15L34.5885 173.66L36.1185 172.39V178.95H36.8385V171.45H36.2285L34.1985 173.15ZM39.1784 179.5H40.1384V178.54H39.1784V179.5ZM41.6013 173.15L41.9913 173.66L43.5213 172.39V178.95H44.2413V171.45H43.6313L41.6013 173.15ZM46.4711 175.2C46.4711 177.66 47.9911 179.15 49.6711 179.15C51.3511 179.15 52.8711 177.66 52.8711 175.2C52.8711 172.74 51.3511 171.25 49.6711 171.25C47.9911 171.25 46.4711 172.74 46.4711 175.2ZM52.1511 175.2C52.1511 177.28 50.9311 178.53 49.6711 178.53C48.4111 178.53 47.1911 177.28 47.1911 175.2C47.1911 173.12 48.4111 171.87 49.6711 171.87C50.9311 171.87 52.1511 173.12 52.1511 175.2ZM53.5784 179.5H54.5384V178.54H53.5784V179.5ZM59.6825 174.03C58.9425 174.03 58.3125 174.78 58.1525 175.59L58.7925 175.85C58.8925 175.35 59.1825 174.73 59.6825 174.73C59.9425 174.73 60.1925 175 60.4425 175.24C60.7525 175.54 61.2025 175.91 61.6825 175.91C62.4325 175.91 63.0625 175.16 63.2125 174.35L62.5825 174.09C62.4825 174.59 62.1825 175.22 61.6825 175.22C61.4325 175.22 61.1725 174.94 60.9325 174.71C60.6025 174.4 60.2025 174.03 59.6825 174.03ZM68.6896 173.46C68.6896 172.23 67.6896 171.25 66.0896 171.25C64.9496 171.25 64.1096 171.95 63.5996 172.87L64.1396 173.22C64.5696 172.46 65.1796 171.87 66.0896 171.87C67.2196 171.87 67.9696 172.58 67.9696 173.46C67.9696 174.35 67.3396 174.98 66.7396 175.52L63.5596 178.42V178.95H68.8896V178.33H64.5496L67.1596 176.02C67.8896 175.38 68.6896 174.61 68.6896 173.46ZM69.4066 175.2C69.4066 177.66 70.9266 179.15 72.6066 179.15C74.2866 179.15 75.8066 177.66 75.8066 175.2C75.8066 172.74 74.2866 171.25 72.6066 171.25C70.9266 171.25 69.4066 172.74 69.4066 175.2ZM75.0866 175.2C75.0866 177.28 73.8666 178.53 72.6066 178.53C71.3466 178.53 70.1266 177.28 70.1266 175.2C70.1266 173.12 71.3466 171.87 72.6066 171.87C73.8666 171.87 75.0866 173.12 75.0866 175.2ZM81.4439 173.46C81.4439 172.23 80.4439 171.25 78.8439 171.25C77.7039 171.25 76.8639 171.95 76.3539 172.87L76.8939 173.22C77.3239 172.46 77.9339 171.87 78.8439 171.87C79.9739 171.87 80.7239 172.58 80.7239 173.46C80.7239 174.35 80.0939 174.98 79.4939 175.52L76.3139 178.42V178.95H81.6439V178.33H77.3039L79.9139 176.02C80.6439 175.38 81.4439 174.61 81.4439 173.46ZM87.2009 173.46C87.2009 172.23 86.2009 171.25 84.6009 171.25C83.4609 171.25 82.6209 171.95 82.1109 172.87L82.6509 173.22C83.0809 172.46 83.6909 171.87 84.6009 171.87C85.7309 171.87 86.4809 172.58 86.4809 173.46C86.4809 174.35 85.8509 174.98 85.2509 175.52L82.0709 178.42V178.95H87.4009V178.33H83.0609L85.6709 176.02C86.4009 175.38 87.2009 174.61 87.2009 173.46ZM88.028 179.5H88.988V178.54H88.028V179.5ZM89.6809 175.2C89.6809 177.66 91.2009 179.15 92.8809 179.15C94.5609 179.15 96.0809 177.66 96.0809 175.2C96.0809 172.74 94.5609 171.25 92.8809 171.25C91.2009 171.25 89.6809 172.74 89.6809 175.2ZM95.3609 175.2C95.3609 177.28 94.1409 178.53 92.8809 178.53C91.6209 178.53 90.4009 177.28 90.4009 175.2C90.4009 173.12 91.6209 171.87 92.8809 171.87C94.1409 171.87 95.3609 173.12 95.3609 175.2ZM97.4481 173.15L97.8381 173.66L99.3681 172.39V178.95H100.088V171.45H99.4781L97.4481 173.15ZM102.428 179.5H103.388V178.54H102.428V179.5ZM109.121 173.46C109.121 172.23 108.121 171.25 106.521 171.25C105.381 171.25 104.541 171.95 104.031 172.87L104.571 173.22C105.001 172.46 105.611 171.87 106.521 171.87C107.651 171.87 108.401 172.58 108.401 173.46C108.401 174.35 107.771 174.98 107.171 175.52L103.991 178.42V178.95H109.321V178.33H104.981L107.591 176.02C108.321 175.38 109.121 174.61 109.121 173.46ZM113.868 176.31H110.598L113.868 172.55V176.31ZM109.688 176.93H113.868V178.95H114.588V176.93H115.758V176.31H114.588V171.45H113.968L109.688 176.4V176.93Z" fill="#8EAEC9"/>
<path d="M5.37 157.03V158.1H6.81V161.37H8.13V154.65H6.81V157.03H5.37ZM5.98 159.15C4.53 158.66 3.9 157.53 3.9 156.44V156.32H5.69V155.27H0.74V156.32H2.55V156.45C2.55 157.61 1.89 158.82 0.38 159.31L1.04 160.36C2.12 160 2.84 159.27 3.25 158.36C3.64 159.19 4.33 159.85 5.34 160.18L5.98 159.15ZM3.38 162.65V160.81H2.06V163.7H8.34V162.65H3.38ZM13.1992 155.36H11.8792V156.7C11.8792 158.49 11.1192 160.27 9.50922 160.96L10.2992 162.05C11.3992 161.53 12.1492 160.54 12.5592 159.31C12.9692 160.44 13.6792 161.35 14.7392 161.83L15.4892 160.76C13.9292 160.09 13.1992 158.41 13.1992 156.7V155.36ZM15.9392 154.64V163.88H17.2592V154.64H15.9392ZM19.3384 155.6V156.65H22.4084C22.2184 158.69 21.1984 160.13 18.8484 161.26L19.5384 162.3C22.8084 160.72 23.7584 158.42 23.7584 155.6H19.3384ZM25.1684 154.64V163.85H26.4984V154.64H25.1684ZM28.3577 155.34V156.39H31.3577C31.1477 157.68 30.0077 158.75 27.9577 159.31L28.5077 160.36C31.2477 159.57 32.7877 157.84 32.7877 155.34H28.3577ZM30.6477 160.58H29.3277V163.7H35.5877V162.65H30.6477V160.58ZM35.2677 157.22V154.65H33.9477V161.24H35.2677V158.3H36.4977V157.22H35.2677Z" fill="#8EAEC9"/>
<path d="M158.4 175.2C158.4 177.66 159.92 179.15 161.6 179.15C163.28 179.15 164.8 177.66 164.8 175.2C164.8 172.74 163.28 171.25 161.6 171.25C159.92 171.25 158.4 172.74 158.4 175.2ZM164.08 175.2C164.08 177.28 162.86 178.53 161.6 178.53C160.34 178.53 159.12 177.28 159.12 175.2C159.12 173.12 160.34 171.87 161.6 171.87C162.86 171.87 164.08 173.12 164.08 175.2ZM167.907 171.25C166.327 171.25 165.257 172.39 165.257 173.8C165.257 175.2 166.327 176.35 167.907 176.35C168.297 176.35 168.767 176.19 168.977 176.03L167.347 178.95H168.117L170.087 175.47C170.327 175.04 170.557 174.44 170.557 173.9C170.557 172.46 169.597 171.25 167.907 171.25ZM169.837 173.8C169.837 174.92 169.067 175.73 167.907 175.73C166.747 175.73 165.977 174.89 165.977 173.8C165.977 172.71 166.747 171.87 167.907 171.87C169.037 171.87 169.837 172.77 169.837 173.8ZM171.364 177.86H172.324V176.9H171.364V177.86ZM171.364 173.46H172.324V172.5H171.364V173.46ZM173.112 175.2C173.112 177.66 174.632 179.15 176.312 179.15C177.992 179.15 179.512 177.66 179.512 175.2C179.512 172.74 177.992 171.25 176.312 171.25C174.632 171.25 173.112 172.74 173.112 175.2ZM178.793 175.2C178.793 177.28 177.572 178.53 176.312 178.53C175.052 178.53 173.832 177.28 173.832 175.2C173.832 173.12 175.052 171.87 176.312 171.87C177.572 171.87 178.793 173.12 178.793 175.2ZM180.11 175.2C180.11 177.66 181.63 179.15 183.31 179.15C184.99 179.15 186.51 177.66 186.51 175.2C186.51 172.74 184.99 171.25 183.31 171.25C181.63 171.25 180.11 172.74 180.11 175.2ZM185.79 175.2C185.79 177.28 184.57 178.53 183.31 178.53C182.05 178.53 180.83 177.28 180.83 175.2C180.83 173.12 182.05 171.87 183.31 171.87C184.57 171.87 185.79 173.12 185.79 175.2ZM191.558 174.03C190.818 174.03 190.188 174.78 190.028 175.59L190.668 175.85C190.768 175.35 191.058 174.73 191.558 174.73C191.818 174.73 192.068 175 192.318 175.24C192.628 175.54 193.078 175.91 193.558 175.91C194.308 175.91 194.938 175.16 195.088 174.35L194.458 174.09C194.358 174.59 194.058 175.22 193.558 175.22C193.308 175.22 193.048 174.94 192.808 174.71C192.478 174.4 192.078 174.03 191.558 174.03ZM199.377 173.15L199.767 173.66L201.297 172.39V178.95H202.017V171.45H201.407L199.377 173.15ZM206.896 179.15C208.476 179.15 209.546 178.01 209.546 176.6C209.546 175.2 208.476 174.05 206.896 174.05C206.506 174.05 206.036 174.21 205.826 174.37L207.456 171.45H206.686L204.716 174.93C204.476 175.36 204.246 175.96 204.246 176.5C204.246 177.94 205.206 179.15 206.896 179.15ZM204.966 176.6C204.966 175.48 205.736 174.67 206.896 174.67C208.056 174.67 208.826 175.51 208.826 176.6C208.826 177.69 208.056 178.53 206.896 178.53C205.766 178.53 204.966 177.63 204.966 176.6ZM210.214 177.86H211.174V176.9H210.214V177.86ZM210.214 173.46H211.174V172.5H210.214V173.46ZM211.962 175.2C211.962 177.66 213.482 179.15 215.162 179.15C216.842 179.15 218.362 177.66 218.362 175.2C218.362 172.74 216.842 171.25 215.162 171.25C213.482 171.25 211.962 172.74 211.962 175.2ZM217.642 175.2C217.642 177.28 216.422 178.53 215.162 178.53C213.902 178.53 212.682 177.28 212.682 175.2C212.682 173.12 213.902 171.87 215.162 171.87C216.422 171.87 217.642 173.12 217.642 175.2ZM218.959 175.2C218.959 177.66 220.479 179.15 222.159 179.15C223.839 179.15 225.359 177.66 225.359 175.2C225.359 172.74 223.839 171.25 222.159 171.25C220.479 171.25 218.959 172.74 218.959 175.2ZM224.639 175.2C224.639 177.28 223.419 178.53 222.159 178.53C220.899 178.53 219.679 177.28 219.679 175.2C219.679 173.12 220.899 171.87 222.159 171.87C223.419 171.87 224.639 173.12 224.639 175.2Z" fill="#8EAEC9"/>
<path d="M162.59 155.87C163.76 155.87 164.48 156.16 164.48 156.73C164.48 157.3 163.76 157.59 162.59 157.59C161.44 157.59 160.71 157.3 160.71 156.73C160.71 156.16 161.44 155.87 162.59 155.87ZM162.59 158.64C164.58 158.64 165.9 157.9 165.9 156.73C165.9 155.57 164.58 154.82 162.59 154.82C160.61 154.82 159.28 155.57 159.28 156.73C159.28 157.9 160.61 158.64 162.59 158.64ZM160.74 160.94H159.4V163.7H165.86V162.65H160.74V160.94ZM158.43 159.12V160.17H162V161.75H163.35V160.17H166.77V159.12H158.43ZM168.999 157.4C168.999 156.68 169.489 156.26 170.169 156.26C170.849 156.26 171.349 156.68 171.349 157.4C171.349 158.11 170.849 158.54 170.169 158.54C169.489 158.54 168.999 158.11 168.999 157.4ZM174.009 156.9V157.9H172.539C172.579 157.73 172.599 157.57 172.599 157.4C172.599 157.22 172.579 157.06 172.549 156.9H174.009ZM174.009 158.95V160.05H175.329V154.65H174.009V155.85H171.979C171.539 155.41 170.909 155.14 170.169 155.14C168.809 155.14 167.749 156.09 167.749 157.4C167.749 158.7 168.809 159.65 170.169 159.65C170.889 159.65 171.519 159.39 171.959 158.95H174.009ZM172.209 162.85C170.999 162.85 170.359 162.59 170.359 162.05C170.359 161.51 170.999 161.25 172.209 161.25C173.419 161.25 174.069 161.51 174.069 162.05C174.069 162.59 173.419 162.85 172.209 162.85ZM172.209 160.23C170.269 160.23 169.059 160.9 169.059 162.05C169.059 163.19 170.269 163.87 172.209 163.87C174.159 163.87 175.369 163.19 175.369 162.05C175.369 160.9 174.159 160.23 172.209 160.23ZM180.398 155.36H179.078V156.7C179.078 158.49 178.318 160.27 176.708 160.96L177.498 162.05C178.598 161.53 179.348 160.54 179.758 159.31C180.168 160.44 180.878 161.35 181.938 161.83L182.688 160.76C181.128 160.09 180.398 158.41 180.398 156.7V155.36ZM183.138 154.64V163.88H184.458V154.64H183.138ZM186.358 155.34V156.39H189.358C189.148 157.68 188.008 158.75 185.958 159.31L186.508 160.36C189.248 159.57 190.788 157.84 190.788 155.34H186.358ZM188.648 160.58H187.328V163.7H193.588V162.65H188.648V160.58ZM193.268 157.22V154.65H191.948V161.24H193.268V158.3H194.498V157.22H193.268Z" fill="#8EAEC9"/>
<path d="M9.4845 10.06C8.7425 11.516 7.3845 12.314 5.8025 12.314C3.4925 12.314 1.6445 10.466 1.6445 7.68C1.6445 4.894 3.4925 3.046 5.8025 3.046C7.2865 3.046 8.6025 3.83 9.3445 5.09L10.1845 4.544C9.2745 3.032 7.6785 2.15 5.8025 2.15C2.8625 2.15 0.6085 4.39 0.6085 7.68C0.6085 10.97 2.8625 13.21 5.8025 13.21C7.7485 13.21 9.4005 12.244 10.2825 10.634L9.4845 10.06ZM18.7576 12.93H20.1716L14.4456 7.372L19.7516 2.43H18.3796L13.2276 7.33V2.43H12.1916V12.93H13.2276V7.456L18.7576 12.93ZM26.3338 11.39H26.9778L30.4778 4.95L30.8698 4.124L30.8418 4.992V12.93H31.8778V2.43H30.7998L26.9778 9.486L26.6558 10.158L26.3338 9.486L22.5118 2.43H21.4338V12.93H22.4698V4.992L22.4418 4.124L22.8338 4.95L26.3338 11.39ZM42.5568 10.06C41.8148 11.516 40.4568 12.314 38.8748 12.314C36.5648 12.314 34.7168 10.466 34.7168 7.68C34.7168 4.894 36.5648 3.046 38.8748 3.046C40.3588 3.046 41.6748 3.83 42.4168 5.09L43.2568 4.544C42.3468 3.032 40.7508 2.15 38.8748 2.15C35.9348 2.15 33.6808 4.39 33.6808 7.68C33.6808 10.97 35.9348 13.21 38.8748 13.21C40.8208 13.21 42.4728 12.244 43.3548 10.634L42.5568 10.06ZM49.0737 11.81V12.734H61.3377V11.81H58.9157C59.6017 9.444 60.1057 5.44 60.1337 2.094H50.3197V3.018H59.0417C59.0277 3.914 58.9437 5.104 58.8177 6.35L50.0397 6.462V7.386L58.7057 7.26C58.4957 8.926 58.2017 10.606 57.8517 11.81H49.0737ZM73.5084 14.05V1.562H72.4444V14.05H73.5084ZM71.4784 11.53V10.62L64.2544 10.97V7.302H69.4064V2.01H63.1904V2.934H68.3424V6.378H63.1904V11.978L71.4784 11.53ZM78.8191 2.234C76.9431 2.234 75.3611 3.872 75.3611 6.378C75.3611 8.898 76.9431 10.536 78.8191 10.536C80.5831 10.536 82.0811 9.094 82.2491 6.812H83.7051V13.714H84.7551V1.688H83.7051V5.86H82.2491C82.0391 3.648 80.5551 2.234 78.8191 2.234ZM78.8191 9.598C77.4331 9.598 76.4111 8.38 76.4111 6.378C76.4111 4.376 77.4331 3.158 78.8191 3.158C80.2051 3.158 81.2271 4.376 81.2271 6.378C81.2271 8.38 80.2051 9.598 78.8191 9.598ZM87.1771 14.036V1.562H86.1131V14.036H87.1771ZM100.09 14.05V1.562H99.0258V14.05H100.09ZM93.0198 2.15C90.7798 2.15 89.0578 3.858 89.0578 6.378C89.0578 8.912 90.7798 10.62 93.0198 10.62C95.2598 10.62 96.9818 8.912 96.9818 6.378C96.9818 3.858 95.2598 2.15 93.0198 2.15ZM93.0198 3.102C94.6858 3.102 95.8898 4.348 95.8898 6.364C95.8898 8.338 94.7838 9.668 93.0198 9.668C91.2558 9.668 90.1498 8.338 90.1498 6.364C90.1498 4.348 91.3538 3.102 93.0198 3.102ZM113.17 14.05V1.562H112.106V14.05H113.17ZM109.208 6.378H103.916V2.934H109.404V2.01H102.852V11.978L111.14 11.53V10.62L103.916 10.97V7.302H109.208V6.378ZM124.977 1.954V4.6H117.627V1.954H116.563V9.206H126.041V1.954H124.977ZM117.627 8.282V5.524H124.977V8.282H117.627ZM115.177 11.81V12.734H127.441V11.81H115.177ZM133.076 11.824L140.174 11.46V10.55L138.536 10.62L138.662 3.942H137.598L137.486 10.662L135.624 10.746L135.526 3.942H134.462L134.574 10.788L133.076 10.844V11.824ZM141.924 13.7V1.702H140.874V6.252H139.306V7.204H140.874V13.7H141.924ZM144.514 14.036V1.562H143.45V14.036H144.514ZM139.726 3.102V2.178H133.328V3.102H139.726ZM150.496 2.15C148.256 2.15 146.534 3.858 146.534 6.378C146.534 8.912 148.256 10.62 150.496 10.62C152.596 10.62 154.248 9.108 154.43 6.826H156.502V14.05H157.566V1.562H156.502V5.874H154.43C154.22 3.634 152.582 2.15 150.496 2.15ZM150.496 3.102C152.162 3.102 153.366 4.348 153.366 6.364C153.366 8.338 152.26 9.668 150.496 9.668C148.732 9.668 147.626 8.338 147.626 6.364C147.626 4.348 148.83 3.102 150.496 3.102ZM171.167 5.244C171.167 3.522 169.767 2.15 167.527 2.15C165.931 2.15 164.755 3.13 164.041 4.418L164.797 4.908C165.399 3.844 166.253 3.018 167.527 3.018C169.109 3.018 170.159 4.012 170.159 5.244C170.159 6.49 169.277 7.372 168.437 8.128L163.985 12.188V12.93H171.447V12.062H165.371L169.025 8.828C170.047 7.932 171.167 6.854 171.167 5.244ZM172.451 7.68C172.451 11.124 174.579 13.21 176.931 13.21C179.283 13.21 181.411 11.124 181.411 7.68C181.411 4.236 179.283 2.15 176.931 2.15C174.579 2.15 172.451 4.236 172.451 7.68ZM180.403 7.68C180.403 10.592 178.695 12.342 176.931 12.342C175.167 12.342 173.459 10.592 173.459 7.68C173.459 4.768 175.167 3.018 176.931 3.018C178.695 3.018 180.403 4.768 180.403 7.68ZM189.583 5.244C189.583 3.522 188.183 2.15 185.943 2.15C184.347 2.15 183.171 3.13 182.457 4.418L183.213 4.908C183.815 3.844 184.669 3.018 185.943 3.018C187.525 3.018 188.575 4.012 188.575 5.244C188.575 6.49 187.693 7.372 186.853 8.128L182.401 12.188V12.93H189.863V12.062H183.787L187.441 8.828C188.463 7.932 189.583 6.854 189.583 5.244ZM197.923 5.244C197.923 3.522 196.523 2.15 194.283 2.15C192.687 2.15 191.511 3.13 190.797 4.418L191.553 4.908C192.155 3.844 193.009 3.018 194.283 3.018C195.865 3.018 196.915 4.012 196.915 5.244C196.915 6.49 196.033 7.372 195.193 8.128L190.741 12.188V12.93H198.203V12.062H192.127L195.781 8.828C196.803 7.932 197.923 6.854 197.923 5.244ZM203.772 11.824L212.55 11.39V10.466L210.408 10.564L210.548 3.858H209.47L209.33 10.606L206.628 10.718L206.502 3.858H205.424L205.564 10.774L203.772 10.844V11.824ZM214.23 14.05V6.994H216.26V6.042H214.23V1.562H213.166V14.05H214.23ZM211.738 3.018V2.094H204.052V3.018H211.738ZM216.937 11.95V12.874H229.201V11.95H223.685V8.786H228.081V7.848H219.387V3.018H227.801V2.094H218.323V8.786H222.593V11.95H216.937ZM241.596 14.05V1.562H240.532V14.05H241.596ZM239.972 11.894V10.97L230.424 11.082V12.034L239.972 11.894ZM234.974 1.87C232.734 1.87 231.194 3.564 231.194 5.398C231.194 7.232 232.734 8.926 234.974 8.926C237.214 8.926 238.754 7.232 238.754 5.398C238.754 3.564 237.214 1.87 234.974 1.87ZM234.974 8.002C233.322 8.002 232.258 6.742 232.258 5.398C232.258 4.054 233.322 2.794 234.974 2.794C236.626 2.794 237.69 4.054 237.69 5.398C237.69 6.742 236.626 8.002 234.974 8.002ZM248.14 8.828L257.016 8.478V7.568L254.734 7.652L254.846 2.92H256.12V1.996H248.518V2.92H249.89L250.016 7.82L248.14 7.876V8.828ZM256.008 4.572H258.164V5.762H256.008V6.672H258.164V10.886H259.228V1.562H258.164V3.662H256.008V4.572ZM250.968 2.92H253.768L253.67 7.694L251.08 7.778L250.968 2.92ZM259.578 13.91V12.986H251.038V9.906H249.974V13.91H259.578ZM270.139 11.054C268.333 9.892 266.765 8.198 265.925 6.308C266.233 5.314 266.429 4.222 266.499 3.018H269.551V2.094H261.809V3.018H265.379C265.113 6.938 263.433 9.864 261.039 11.516L261.753 12.258C263.321 11.096 264.651 9.5 265.505 7.456C266.415 9.164 267.969 10.844 269.425 11.88L270.139 11.054ZM272.687 14.05V1.562H271.623V14.05H272.687Z" fill="#8EAEC9"/>
</svg>
