<svg viewBox="0 0 326 241" fill="none" xmlns="http://www.w3.org/2000/svg">
<path d="M168 236L201 203L168 170" stroke="#2454A6"/>
<path d="M201 203H1" stroke="#2454A6"/>
<path d="M93.4 120.46C93.4 113.32 87.4 107.62 78.04 107.62C71.56 107.62 66.76 111.4 63.7 116.56L65.74 117.88C68.56 113.38 72.28 109.96 78.04 109.96C85.6 109.96 90.7 114.58 90.7 120.46C90.7 126.28 86.5 130.36 82.66 133.84L63.1 151.36V153.58H94.6V151.24H66.4L84.22 135.46C88.66 131.56 93.4 127.18 93.4 120.46ZM99.3822 131.2C99.3822 145.9 108.382 154.78 118.342 154.78C128.302 154.78 137.302 145.9 137.302 131.2C137.302 116.5 128.302 107.62 118.342 107.62C108.382 107.62 99.3822 116.5 99.3822 131.2ZM134.602 131.2C134.602 144.4 126.682 152.44 118.342 152.44C110.002 152.44 102.082 144.4 102.082 131.2C102.082 118 110.002 109.96 118.342 109.96C126.682 109.96 134.602 118 134.602 131.2ZM172.326 120.46C172.326 113.32 166.326 107.62 156.966 107.62C150.486 107.62 145.686 111.4 142.626 116.56L144.666 117.88C147.486 113.38 151.206 109.96 156.966 109.96C164.526 109.96 169.626 114.58 169.626 120.46C169.626 126.28 165.426 130.36 161.586 133.84L142.026 151.36V153.58H173.526V151.24H145.326L163.146 135.46C167.586 131.56 172.326 127.18 172.326 120.46ZM208.068 120.46C208.068 113.32 202.068 107.62 192.708 107.62C186.228 107.62 181.428 111.4 178.368 116.56L180.408 117.88C183.228 113.38 186.948 109.96 192.708 109.96C200.268 109.96 205.368 114.58 205.368 120.46C205.368 126.28 201.168 130.36 197.328 133.84L177.768 151.36V153.58H209.268V151.24H181.068L198.888 135.46C203.328 131.56 208.068 127.18 208.068 120.46ZM214.056 156.016H217.08V152.992H214.056V156.016Z" fill="#2454A6"/>
<path d="M21.64 117.48C19.87 120.54 16.84 122.19 13.33 122.19C7.96 122.19 3.67 117.99 3.67 111.6C3.67 105.21 7.96 101.01 13.33 101.01C16.69 101.01 19.6 102.54 21.34 105.27L22.42 104.58C20.44 101.55 17.17 99.81 13.33 99.81C7.06 99.81 2.29 104.58 2.29 111.6C2.29 118.62 7.06 123.39 13.33 123.39C17.29 123.39 20.74 121.47 22.66 118.23L21.64 117.48ZM35.3648 100.41H33.9848V122.79H35.3648V111.12L48.3548 122.79H50.2748L37.0448 110.91L49.3448 100.41H47.4548L35.3648 110.79V100.41ZM14.32 151.37H15.4L24.55 134.33V154.79H25.93V132.41H24.13L14.86 149.78L5.65 132.41H3.85V154.79H5.23V134.33L14.32 151.37ZM50.9134 149.48C49.1434 152.54 46.1134 154.19 42.6034 154.19C37.2334 154.19 32.9434 149.99 32.9434 143.6C32.9434 137.21 37.2334 133.01 42.6034 133.01C45.9634 133.01 48.8734 134.54 50.6134 137.27L51.6934 136.58C49.7134 133.55 46.4434 131.81 42.6034 131.81C36.3334 131.81 31.5634 136.58 31.5634 143.6C31.5634 150.62 36.3334 155.39 42.6034 155.39C46.5634 155.39 50.0134 153.47 51.9334 150.23L50.9134 149.48Z" fill="#2454A6"/>
<path d="M64.6291 88.364H74.2211C74.3531 88.364 74.4851 88.342 74.6171 88.298L75.4531 88.056L75.0351 93.93H76.3771L77.1251 83.238C77.1471 83.04 77.0371 82.842 76.8831 82.688L76.4431 82.292C76.3111 82.16 76.1351 82.116 75.9591 82.116H64.5191L64.7391 83.282H75.7831L75.4971 87.198H64.4091L64.6291 88.364ZM61.9671 97.604H79.8091V96.438H61.9671V97.604ZM98.1868 81.214H96.2728C96.0308 81.214 95.9868 81.412 96.1188 81.566L96.8008 82.446V100.728H98.1868V81.214ZM92.3568 89.728V83.458C92.3568 83.26 92.2688 83.062 92.1148 82.908L91.6748 82.512C91.5428 82.38 91.3668 82.336 91.1908 82.336H83.2708V83.502H90.9708V88.562H83.2268V94.942C83.2268 95.14 83.3148 95.338 83.4688 95.492L83.9088 95.888C84.0408 96.02 84.2168 96.064 84.3928 96.064H94.2928V94.898H84.6128V89.728H92.3568ZM117.511 100.728H118.897V81.214H117.511V100.728ZM113.419 81.434C113.177 81.434 113.133 81.632 113.265 81.786L113.947 82.666V88.232H110.537V86.516C110.537 83.436 109.107 82.006 106.445 82.006C103.783 82.006 102.353 83.436 102.353 86.516V91.884C102.353 94.964 103.783 96.394 106.445 96.394C109.107 96.394 110.537 94.964 110.537 91.884V89.398H113.947V100.508H115.333V81.434H113.419ZM109.151 91.796C109.151 94.084 108.271 95.228 106.445 95.228C104.619 95.228 103.739 94.084 103.739 91.796V86.604C103.739 84.316 104.619 83.172 106.445 83.172C108.271 83.172 109.151 84.316 109.151 86.604V91.796ZM138.462 81.214H136.548C136.306 81.214 136.262 81.412 136.394 81.566L137.076 82.446V100.728H138.462V81.214ZM127.968 82.006C124.668 82.006 122.842 83.854 122.842 87.616V90.784C122.842 94.546 124.668 96.394 127.968 96.394C131.268 96.394 133.094 94.546 133.094 90.784V87.616C133.094 83.854 131.268 82.006 127.968 82.006ZM131.708 90.696C131.708 93.644 130.454 95.228 127.968 95.228C125.482 95.228 124.228 93.644 124.228 90.696V87.704C124.228 84.756 125.482 83.172 127.968 83.172C130.454 83.172 131.708 84.756 131.708 87.704V90.696ZM158.27 81.214H156.356C156.114 81.214 156.07 81.412 156.202 81.566L156.884 82.446V100.728H158.27V81.214ZM152.836 89.728V88.562H145.686V83.502H153.716L153.496 82.336H143.772C143.53 82.336 143.486 82.534 143.618 82.688L144.3 83.568V94.942C144.3 95.14 144.388 95.338 144.542 95.492L144.982 95.888C145.114 96.02 145.29 96.064 145.466 96.064H154.662V94.898H145.686V89.728H152.836ZM164.746 91.268C164.746 91.466 164.834 91.664 164.988 91.818L165.428 92.214C165.56 92.346 165.736 92.39 165.912 92.39H177.308V82.116H175.922V86.23H166.132V82.116H164.218C163.976 82.116 163.932 82.314 164.064 82.468L164.746 83.348V91.268ZM175.922 87.396V91.224H166.132V87.396H175.922ZM162.106 97.604H179.948V96.438H162.106V97.604ZM197.621 100.728H199.007V81.214H197.621V100.728ZM193.529 81.434C193.287 81.434 193.243 81.632 193.375 81.786L194.057 82.666V88.342H191.153V89.508H194.057V100.508H195.443V81.434H193.529ZM185.763 94.128V83.502H192.429L192.649 82.336H181.957V83.502H184.377V94.128H185.763ZM188.975 84.272L188.293 94.898H181.957V96.064H192.759V94.898H189.701L190.361 84.272H188.975ZM218.573 81.214H216.659C216.417 81.214 216.373 81.412 216.505 81.566L217.187 82.446V88.232H212.985V87.616C212.985 83.854 211.203 82.006 207.969 82.006C204.735 82.006 202.953 83.854 202.953 87.616V90.784C202.953 94.546 204.735 96.394 207.969 96.394C211.203 96.394 212.985 94.546 212.985 90.784V89.398H217.187V100.728H218.573V81.214ZM211.599 90.696C211.599 93.644 210.389 95.228 207.969 95.228C205.549 95.228 204.339 93.644 204.339 90.696V87.704C204.339 84.756 205.549 83.172 207.969 83.172C210.389 83.172 211.599 84.756 211.599 87.704V90.696Z" fill="#2454A6"/>
<path d="M46.506 6.642H40.764C40.038 6.642 39.906 7.236 40.302 7.698L42.348 10.338V65.184H46.506V32.184H57.462V28.686H46.506V6.642ZM14.496 45.384V13.506H37.794L38.454 10.008H1.42799V13.506H10.338V45.384H14.496ZM26.442 15.816L24.396 47.694H1.42799V51.192H38.784V47.694H28.62L30.6 15.816H26.442ZM69.6292 32.184C69.6292 32.778 69.8932 33.372 70.3552 33.834L71.6752 35.022C72.0712 35.418 72.5992 35.55 73.1272 35.55H107.975V32.052H73.7872V12.846H107.645V9.348H68.0452C67.3192 9.348 67.1872 9.942 67.5832 10.404L69.6292 13.044V32.184ZM90.5512 37.86H86.3932V52.314H61.7092V55.812H115.235V52.314H90.5512V37.86ZM171.028 6.642H165.286C164.56 6.642 164.428 7.236 164.824 7.698L166.87 10.338V65.184H171.028V6.642ZM143.176 37.2C153.142 37.2 159.016 32.184 159.016 24V21.558C159.016 13.374 153.142 8.358 143.176 8.358C133.21 8.358 127.336 13.374 127.336 21.558V24C127.336 32.184 133.21 37.2 143.176 37.2ZM131.494 21.69C131.494 15.684 135.652 11.856 143.176 11.856C150.7 11.856 154.858 15.684 154.858 21.69V23.868C154.858 29.874 150.7 33.702 143.176 33.702C135.652 33.702 131.494 29.874 131.494 23.868V21.69ZM164.23 53.172V49.674H122.848V53.172H164.23ZM246.226 17.664H234.544V21.162H246.226V26.244H234.544V29.742H246.226V50.598H250.384V6.642H244.642C243.916 6.642 243.784 7.236 244.18 7.698L246.226 10.338V17.664ZM216.196 33.174V12.846H238.834L239.494 9.348H202.798V12.846H212.038V33.174H216.196ZM229.462 35.154L231.31 14.826H227.152L225.238 35.154H202.798V38.652H239.824V35.154H229.462ZM217.384 45.648H213.226V61.818C213.226 62.412 213.49 63.006 213.952 63.468L215.272 64.656C215.668 65.052 216.196 65.184 216.724 65.184H251.044V61.686H217.384V45.648ZM310.995 6.642H305.253C304.527 6.642 304.395 7.236 304.791 7.698L306.837 10.338V65.184H310.995V6.642ZM299.907 13.506V10.008H264.597V13.506H280.899C279.051 26.904 271.989 39.642 263.541 50.4L266.841 52.446C272.253 45.384 277.269 37.464 280.701 28.752C285.453 36.936 290.667 44.526 297.993 52.446L301.095 50.07C293.439 41.556 288.291 34.428 282.351 24.066C283.473 20.634 284.331 17.136 284.793 13.506H299.907Z" fill="#2454A6"/>
<path d="M51 85H1" stroke="#2454A6"/>
<path d="M222.496 182.08C222.496 190.41 227.596 195.442 233.24 195.442C238.884 195.442 243.984 190.41 243.984 182.08C243.984 173.75 238.884 168.718 233.24 168.718C227.596 168.718 222.496 173.75 222.496 182.08ZM242.454 182.08C242.454 189.56 237.966 194.116 233.24 194.116C228.514 194.116 224.026 189.56 224.026 182.08C224.026 174.6 228.514 170.044 233.24 170.044C237.966 170.044 242.454 174.6 242.454 182.08ZM249.891 175.11L250.775 176.198L256.555 171.302V194.762H258.085V169.398H256.691L249.891 175.11ZM267.468 196.632H269.916V194.184H267.468V196.632ZM276.42 175.11L277.304 176.198L283.084 171.302V194.762H284.614V169.398H283.22L276.42 175.11ZM293.351 182.08C293.351 190.41 298.451 195.442 304.095 195.442C309.739 195.442 314.839 190.41 314.839 182.08C314.839 173.75 309.739 168.718 304.095 168.718C298.451 168.718 293.351 173.75 293.351 182.08ZM313.309 182.08C313.309 189.56 308.821 194.116 304.095 194.116C299.369 194.116 294.881 189.56 294.881 182.08C294.881 174.6 299.369 170.044 304.095 170.044C308.821 170.044 313.309 174.6 313.309 182.08ZM318.468 196.632H320.916V194.184H318.468V196.632Z" fill="#2454A6"/>
<path d="M222.496 222.08C222.496 230.41 227.596 235.442 233.24 235.442C238.884 235.442 243.984 230.41 243.984 222.08C243.984 213.75 238.884 208.718 233.24 208.718C227.596 208.718 222.496 213.75 222.496 222.08ZM242.454 222.08C242.454 229.56 237.966 234.116 233.24 234.116C228.514 234.116 224.026 229.56 224.026 222.08C224.026 214.6 228.514 210.044 233.24 210.044C237.966 210.044 242.454 214.6 242.454 222.08ZM249.891 215.11L250.775 216.198L256.555 211.302V234.762H258.085V209.398H256.691L249.891 215.11ZM267.468 236.632H269.916V234.184H267.468V236.632ZM290.36 215.994C290.36 211.948 286.96 208.718 281.656 208.718C277.984 208.718 275.264 210.86 273.53 213.784L274.686 214.532C276.284 211.982 278.392 210.044 281.656 210.044C285.94 210.044 288.83 212.662 288.83 215.994C288.83 219.292 286.45 221.604 284.274 223.576L273.19 233.504V234.762H291.04V233.436H275.06L285.158 224.494C287.674 222.284 290.36 219.802 290.36 215.994ZM307.962 226.364H295.11L307.962 211.506V226.364ZM293.24 227.69H307.962V234.762H309.492V227.69H313.606V226.364H309.492V209.398H308.03L293.24 226.33V227.69ZM316.21 236.632H318.658V234.184H316.21V236.632Z" fill="#2454A6"/>
<path d="M319 155H224" stroke="#2454A6"/>
</svg>
