<svg width="20" height="16" viewBox="0 0 20 16" fill="none" xmlns="http://www.w3.org/2000/svg">
<path d="M13 5L17.0981 6.09808L18.1962 2" stroke="white"/>
<path d="M6.69604 10.5981L2.59797 9.50007L1.49989 13.5981" stroke="white"/>
<path fill-rule="evenodd" clip-rule="evenodd" d="M16.71 10C15.8495 12.8915 13.1709 15 9.99988 15C6.82886 15 4.15031 12.8915 3.28976 10H2.25191C3.14 13.4505 6.2722 16 9.99988 16C13.7276 16 16.8598 13.4505 17.7478 10H16.71ZM3.28976 6C4.15031 3.10851 6.82886 1 9.99988 1C13.1709 1 15.8495 3.10851 16.71 6H17.7478C16.8598 2.54955 13.7276 0 9.99988 0C6.2722 0 3.14 2.54955 2.25191 6H3.28976Z" fill="white"/>
</svg>
