<svg width="26" height="26" viewBox="0 0 26 26" fill="none" xmlns="http://www.w3.org/2000/svg">
<path d="M19.1078 16.8677L21.137 21.1352L16.8679 19.1066L16.8666 19.106C16.6562 19.0068 16.4273 18.9527 16.1947 18.9474C15.9621 18.942 15.731 18.9854 15.5162 19.0748C15.3014 19.1643 15.1078 19.2977 14.9478 19.4665C14.7877 19.6354 14.6648 19.8359 14.587 20.0551L13.0026 24.5089L11.4166 20.0553C11.4165 20.0552 11.4165 20.0551 11.4164 20.055C11.3387 19.8357 11.2158 19.6351 11.0557 19.4662C10.8955 19.2972 10.7017 19.1636 10.4867 19.0742C10.2717 18.9848 10.0404 18.9414 9.80762 18.9469C9.57486 18.9524 9.34583 19.0067 9.13533 19.1062L9.13442 19.1067L4.86414 21.1361L6.88747 16.8679C6.88761 16.8676 6.88775 16.8673 6.88789 16.867C6.98807 16.6567 7.04302 16.4277 7.04918 16.1949C7.05535 15.9617 7.01247 15.7299 6.9233 15.5143C6.83413 15.2988 6.70067 15.1044 6.53156 14.9437C6.36254 14.7831 6.16168 14.6598 5.94198 14.5818C5.94195 14.5818 5.94191 14.5818 5.94187 14.5818C5.9418 14.5817 5.94174 14.5817 5.94167 14.5817L1.4923 12.999L5.94539 11.4159L5.94645 11.4155C6.16582 11.337 6.36628 11.2133 6.53484 11.0524C6.7034 10.8915 6.83632 10.697 6.92499 10.4816C7.01367 10.2661 7.05613 10.0344 7.04963 9.80145C7.04313 9.56877 6.98792 9.34003 6.88756 9.13C6.88746 9.12979 6.88735 9.12957 6.88725 9.12936L4.85875 4.86153L9.13464 6.89112L9.13533 6.89144C9.34583 6.99096 9.57486 7.04523 9.80762 7.05075C10.0404 7.05626 10.2717 7.0129 10.4867 6.92347C10.7017 6.83403 10.8955 6.7005 11.0557 6.53151C11.2158 6.36255 11.3387 6.16188 11.4165 5.94247C11.4165 5.94243 11.4165 5.94239 11.4166 5.94235L12.9999 1.49055L14.587 5.94255C14.6648 6.16179 14.7877 6.3623 14.9478 6.53114C15.1078 6.69998 15.3014 6.83341 15.5162 6.92283C15.731 7.01225 15.9621 7.05567 16.1947 7.0503C16.4273 7.04493 16.6562 6.99088 16.8666 6.89164L16.8679 6.89103L21.137 4.86251L19.1078 9.12997C19.1078 9.12998 19.1078 9.12999 19.1078 9.12999C19.0074 9.34061 18.9524 9.56998 18.9463 9.80323C18.9402 10.0365 18.9833 10.2684 19.0726 10.484C19.1619 10.6995 19.2956 10.8939 19.4649 11.0545C19.6342 11.2151 19.8353 11.3383 20.0553 11.4161L24.5073 12.9988L20.0553 14.5815C19.8353 14.6594 19.6342 14.7826 19.4649 14.9432C19.2956 15.1038 19.1619 15.2982 19.0726 15.5137C18.9833 15.7293 18.9402 15.9612 18.9463 16.1944C18.9524 16.4277 19.0074 16.6571 19.1078 16.8677Z" fill="#2454A6" stroke="#2454A6"/>
</svg>
