<svg width="30" height="28" viewBox="0 0 30 28" fill="none" xmlns="http://www.w3.org/2000/svg">
<path d="M6.54698 10.333C6.34236 10.332 6.14207 10.3922 5.97146 10.5058C5.80086 10.6195 5.66762 10.7815 5.58864 10.9715C5.50966 11.1614 5.48849 11.3706 5.5278 11.5726C5.56712 11.7746 5.66516 11.9604 5.8095 12.1063C5.95383 12.2522 6.13797 12.3518 6.33858 12.3923C6.53919 12.4328 6.74724 12.4125 6.93637 12.334C7.12551 12.2554 7.28721 12.1221 7.40099 11.951C7.51477 11.7799 7.57551 11.5787 7.57551 11.3728C7.57616 11.2365 7.55004 11.1014 7.49864 10.9753C7.44725 10.8492 7.37159 10.7345 7.27601 10.6379C7.18044 10.5413 7.06683 10.4646 6.94172 10.4123C6.81661 10.36 6.68246 10.333 6.54698 10.333Z" fill="#8EAEC9"/>
<path d="M16.753 12.4631C17.3674 12.4631 17.8656 11.9619 17.8656 11.3436C17.8656 10.7253 17.3674 10.2241 16.753 10.2241C16.1385 10.2241 15.6404 10.7253 15.6404 11.3436C15.6404 11.9619 16.1385 12.4631 16.753 12.4631Z" fill="#8EAEC9"/>
<path d="M25.9848 0H4.01022C2.94619 0.00131842 1.92619 0.427522 1.17427 1.18499C0.422348 1.94246 2.24197e-06 2.96924 3.04886e-06 4.0398V17.1592C-0.000646823 17.6895 0.102601 18.2147 0.303842 18.7048C0.505083 19.1949 0.800372 19.6403 1.17282 20.0155C1.54527 20.3907 1.98757 20.6883 2.47444 20.8914C2.9613 21.0945 3.48318 21.199 4.01022 21.199H11.7735L14.414 27.4577C14.414 27.4577 14.5921 28 15.0321 28C15.4722 28 15.6552 27.4577 15.6552 27.4577L18.2957 21.199H25.9848C26.5121 21.199 27.0342 21.0945 27.5214 20.8915C28.0085 20.6885 28.4511 20.3909 28.824 20.0158C29.1968 19.6406 29.4926 19.1953 29.6944 18.7052C29.8961 18.215 30 17.6897 30 17.1592V4.0398C29.9987 2.96878 29.5752 1.94201 28.8225 1.18469C28.0698 0.427361 27.0493 0.00131656 25.9848 0ZM9.42476 11.602C9.42476 14 6.95237 14.0896 6.95237 14.0896C6.67526 14.0891 6.40108 14.0325 6.1462 13.9231C5.89132 13.8137 5.66098 13.6537 5.46893 13.4527V13.8856H3.67398V6.42288C3.78276 6.42288 5.46893 6.42288 5.46893 6.42288V9.26865C5.88924 8.54726 7.1106 8.55721 7.1106 8.55721C9.75606 8.79602 9.42476 11.602 9.42476 11.602ZM12.5845 8.77612V13.8756H10.8241V8.83084C10.8241 8.1393 9.97857 7.95025 9.97857 7.95025V6.16915C12.7872 6.28358 12.5845 8.77612 12.5845 8.77612ZM16.748 14.0696C16.2229 14.0214 15.723 13.8206 15.3093 13.4918C14.8955 13.1629 14.5857 12.7201 14.4176 12.2172C14.2494 11.7144 14.2302 11.1732 14.3622 10.6596C14.4942 10.1459 14.7718 9.68201 15.1611 9.32422C15.5505 8.96644 16.0348 8.73025 16.5552 8.6444C17.0755 8.55856 17.6094 8.62676 18.0919 8.8407C18.5745 9.05465 18.9848 9.4051 19.2729 9.84942C19.561 10.2937 19.7146 10.8128 19.7149 11.3433C19.699 11.7186 19.6095 12.0871 19.4517 12.4276C19.2938 12.7681 19.0705 13.0738 18.7948 13.3271C18.5191 13.5805 18.1963 13.7765 17.8451 13.904C17.4938 14.0314 17.121 14.0877 16.748 14.0696ZM26.3755 14.0696C26.3755 14.0696 26.4002 16.6617 23.7844 16.6617H22.9883V14.9851H23.4828C23.4828 14.9851 24.5805 15.0846 24.5706 13.3831C24.5706 13.3831 24.3531 14.0696 22.8103 14.0696C22.8103 14.0696 20.6247 13.9154 20.6247 11.7662V10.9502C20.6525 10.3073 20.9245 9.69968 21.3845 9.25258C21.8445 8.80548 22.4575 8.55302 23.0971 8.54726C23.3881 8.52781 23.6794 8.58019 23.9457 8.69984C24.212 8.8195 24.4452 9.00281 24.625 9.23383V8.68657H26.4101L26.3755 14.0696Z" fill="#8EAEC9"/>
<path d="M23.5815 12.4381C24.1823 12.4381 24.6694 11.948 24.6694 11.3436C24.6694 10.7391 24.1823 10.249 23.5815 10.249C22.9807 10.249 22.4937 10.7391 22.4937 11.3436C22.4937 11.948 22.9807 12.4381 23.5815 12.4381Z" fill="#8EAEC9"/>
</svg>
