<svg width="500" height="500" viewBox="0 0 500 500" fill="none" xmlns="http://www.w3.org/2000/svg">
<rect width="500" height="500" fill="#C6DAE3"/>
<path d="M203.969 242.41L202.889 248.872L203.825 249.268C204.077 249.088 205.301 248.206 206.885 248.206C209.315 248.206 210.413 249.736 210.413 251.698C210.413 253.66 208.955 255.154 206.723 255.154C205.265 255.154 203.699 254.146 202.925 252.814L201.953 253.48C202.871 255.064 204.635 256.27 206.723 256.27C209.819 256.27 211.709 254.362 211.709 251.698C211.709 249.124 210.035 247.09 206.885 247.09C205.859 247.09 204.959 247.432 204.383 247.774L205.049 243.526H211.133V242.41H203.969ZM212.892 249.16C212.892 253.588 215.628 256.27 218.652 256.27C221.676 256.27 224.412 253.588 224.412 249.16C224.412 244.732 221.676 242.05 218.652 242.05C215.628 242.05 212.892 244.732 212.892 249.16ZM223.116 249.16C223.116 252.904 220.92 255.154 218.652 255.154C216.384 255.154 214.188 252.904 214.188 249.16C214.188 245.416 216.384 243.166 218.652 243.166C220.92 243.166 223.116 245.416 223.116 249.16ZM225.847 249.16C225.847 253.588 228.583 256.27 231.607 256.27C234.631 256.27 237.367 253.588 237.367 249.16C237.367 244.732 234.631 242.05 231.607 242.05C228.583 242.05 225.847 244.732 225.847 249.16ZM236.071 249.16C236.071 252.904 233.875 255.154 231.607 255.154C229.339 255.154 227.143 252.904 227.143 249.16C227.143 245.416 229.339 243.166 231.607 243.166C233.875 243.166 236.071 245.416 236.071 249.16ZM255.562 242.41H254.104L250 247.972L245.914 242.41H244.438L249.28 248.98L244.168 255.91H245.644L250 249.988L254.356 255.91H255.832L250.72 248.98L255.562 242.41ZM264.438 242.41L263.358 248.872L264.294 249.268C264.546 249.088 265.77 248.206 267.354 248.206C269.784 248.206 270.882 249.736 270.882 251.698C270.882 253.66 269.424 255.154 267.192 255.154C265.734 255.154 264.168 254.146 263.394 252.814L262.422 253.48C263.34 255.064 265.104 256.27 267.192 256.27C270.288 256.27 272.178 254.362 272.178 251.698C272.178 249.124 270.504 247.09 267.354 247.09C266.328 247.09 265.428 247.432 264.852 247.774L265.518 243.526H271.602V242.41H264.438ZM273.361 249.16C273.361 253.588 276.097 256.27 279.121 256.27C282.145 256.27 284.881 253.588 284.881 249.16C284.881 244.732 282.145 242.05 279.121 242.05C276.097 242.05 273.361 244.732 273.361 249.16ZM283.585 249.16C283.585 252.904 281.389 255.154 279.121 255.154C276.853 255.154 274.657 252.904 274.657 249.16C274.657 245.416 276.853 243.166 279.121 243.166C281.389 243.166 283.585 245.416 283.585 249.16ZM286.316 249.16C286.316 253.588 289.052 256.27 292.076 256.27C295.1 256.27 297.836 253.588 297.836 249.16C297.836 244.732 295.1 242.05 292.076 242.05C289.052 242.05 286.316 244.732 286.316 249.16ZM296.54 249.16C296.54 252.904 294.344 255.154 292.076 255.154C289.808 255.154 287.612 252.904 287.612 249.16C287.612 245.416 289.808 243.166 292.076 243.166C294.344 243.166 296.54 245.416 296.54 249.16Z" fill="#8EAEC9"/>
<rect x="190.5" y="234.5" width="119" height="31" stroke="#8EAEC9"/>
</svg>
