<svg width="26" height="26" viewBox="0 0 26 26" fill="none" xmlns="http://www.w3.org/2000/svg">
<path d="M26 13.0804C26.0001 10.5804 25.2882 8.13271 23.9484 6.02725C22.6086 3.9218 20.6972 2.24676 18.4405 1.20051C16.1838 0.154256 13.6764 -0.21937 11.2151 0.123876C8.75388 0.467122 6.44196 1.51286 4.55318 3.13724C2.66439 4.76162 1.27788 6.8966 0.557821 9.28932C-0.162235 11.682 -0.185664 14.2323 0.490319 16.638C1.1663 19.0437 2.51337 21.204 4.37199 22.8633C6.23062 24.5225 8.52293 25.611 10.9774 26V16.8603H7.67775V13.0804H10.9774V10.2004C10.9774 6.92054 12.9155 5.11059 15.8872 5.11059C16.8612 5.12419 17.8328 5.20941 18.7943 5.36558V8.58549H17.1594C15.5443 8.58549 15.0375 9.58546 15.0375 10.6254V13.0804H18.6453L18.0688 16.8603H15.0375V26C18.0946 25.5129 20.8785 23.9439 22.8882 21.5755C24.8979 19.207 26.0014 16.1946 26 13.0804Z" fill="#8EAEC9"/>
</svg>
