<svg width="35" height="35" viewBox="0 0 35 35" fill="none" xmlns="http://www.w3.org/2000/svg">
<rect width="35" height="35" fill="white" fill-opacity="0.4"/>
<path d="M6.39276 13.4505L7.91076 15.5185L10.4408 13.3625V26.1665H13.3008V9.4465H11.0568L6.39276 13.4505ZM21.5064 9.0285C17.8764 9.0285 15.4564 11.6465 15.4564 14.8805C15.4564 18.1145 17.8764 20.7545 21.5064 20.7545C21.7704 20.7545 22.0124 20.7105 22.2984 20.6445L19.2624 26.1445H22.3424L26.5004 18.6425C27.0284 17.6745 27.5564 16.2885 27.5564 15.1005C27.5564 11.7785 25.4004 9.0285 21.5064 9.0285ZM24.6964 14.8805C24.6964 16.8825 23.4644 18.3345 21.5064 18.3345C19.5484 18.3345 18.3164 16.8385 18.3164 14.8805C18.3164 12.9225 19.5484 11.4485 21.5064 11.4485C23.3984 11.4485 24.6964 13.0325 24.6964 14.8805Z" fill="#8EAEC9"/>
</svg>
