<svg width="28" height="24" viewBox="0 0 28 24" fill="none" xmlns="http://www.w3.org/2000/svg">
<path d="M8.80909 24C19.3628 24 25.1378 14.7768 25.1378 6.78045C25.1378 6.51906 25.1378 6.24701 25.1378 5.99629C26.2602 5.14175 27.2294 4.08324 28 2.87031C26.9539 3.35901 25.8442 3.67909 24.708 3.81984C25.9079 3.0659 26.8067 1.87699 27.2364 0.475154C26.1089 1.17922 24.8759 1.67531 23.5904 1.94212C22.8056 1.04759 21.7831 0.423743 20.6568 0.152188C19.5304 -0.119368 18.3525 -0.0259878 17.2773 0.42011C16.202 0.866207 15.2794 1.64425 14.6302 2.65247C13.981 3.66069 13.6353 4.85214 13.6384 6.07097C13.6372 6.53621 13.6881 6.99997 13.7901 7.45259C11.5082 7.33245 9.2757 6.70705 7.23787 5.61706C5.20005 4.52706 3.4025 2.99687 1.96208 1.12596C1.22459 2.4575 0.996561 4.03573 1.32453 5.53857C1.6525 7.04141 2.51175 8.3556 3.72693 9.21295C2.81569 9.1824 1.92455 8.9227 1.12768 8.45546V8.53548C1.12823 9.93247 1.58673 11.2863 2.42543 12.3674C3.26413 13.4485 4.43143 14.1904 5.72945 14.4674C5.23512 14.6099 4.72485 14.6817 4.21238 14.6807C3.85098 14.6806 3.49037 14.6449 3.13526 14.5741C3.50257 15.7763 4.21652 16.8275 5.17746 17.5811C6.13841 18.3347 7.29841 18.7529 8.49557 18.7776C6.46263 20.4582 3.95326 21.3694 1.37041 21.3648C0.912548 21.3652 0.455028 21.3385 0 21.2848C2.62414 23.06 5.67654 24.0024 8.79392 24" fill="#8EAEC9"/>
</svg>
