<svg width="30" height="22" viewBox="0 0 30 22" fill="none" xmlns="http://www.w3.org/2000/svg">
<path d="M29.3757 3.43451C29.2038 2.76908 28.8681 2.16256 28.4023 1.67556C27.9366 1.18856 27.3569 0.838122 26.7214 0.659259C24.3817 2.91541e-06 14.9975 0 14.9975 0C14.9975 0 5.61833 2.91541e-06 3.27863 0.659259C2.64307 0.838122 2.06344 1.18856 1.59765 1.67556C1.13186 2.16256 0.79622 2.76908 0.624258 3.43451C-2.17808e-06 5.88545 0 11 0 11C0 11 -2.17808e-06 16.1146 0.624258 18.5655C0.796377 19.2314 1.13198 19.8385 1.59768 20.3264C2.06338 20.8142 2.64292 21.1658 3.27863 21.3461C5.61833 22 14.9975 22 14.9975 22C14.9975 22 24.3817 22 26.7214 21.3461C27.3571 21.1658 27.9366 20.8142 28.4023 20.3264C28.868 19.8385 29.2036 19.2314 29.3757 18.5655C30 16.1146 30 11 30 11C30 11 30 5.88545 29.3757 3.43451Z" fill="#8EAEC9"/>
<path d="M12.0032 15.7155L19.7937 10.9999L12.0032 6.28418V15.7155Z" fill="white"/>
</svg>
