<svg viewBox="0 0 730 267" fill="none" xmlns="http://www.w3.org/2000/svg">
<path d="M264.376 10.536C264.376 8.888 266.056 7.816 268.344 7.816C270.632 7.816 272.296 8.888 272.296 10.536C272.296 12.184 270.632 13.256 268.344 13.256C266.056 13.256 264.376 12.184 264.376 10.536ZM269 17.256V14.264C271.672 14.072 273.544 12.648 273.544 10.536C273.544 8.248 271.368 6.776 268.344 6.776C265.304 6.776 263.112 8.248 263.112 10.536C263.112 12.648 265 14.072 267.672 14.264V17.256H261.832V18.344H274.872V17.256H269ZM284.823 13.32H281.255V8.328H284.823V13.32ZM279.943 13.32H277.751V14.392H288.327V13.32H286.135V8.328H288.359V7.272H277.719V8.328H279.943V13.32ZM276.567 17.256V18.344H289.575V17.256H276.567ZM293.158 12.312H298.326V7.16H291.83V8.232H297.03V11.24H291.878V16.728H293.014C295.75 16.728 297.67 16.616 299.91 16.216L299.766 15.128C297.622 15.544 295.766 15.64 293.158 15.64V12.312ZM304.694 11.528H302.342V5.816H301.03V20.2H302.342V12.632H304.694V11.528ZM317.78 5.848H316.468V16.328H317.78V5.848ZM307.62 10.36C307.62 8.968 308.676 7.976 310.068 7.976C311.492 7.976 312.548 8.968 312.548 10.36C312.548 11.784 311.492 12.776 310.068 12.776C308.676 12.776 307.62 11.784 307.62 10.36ZM313.828 10.36C313.828 8.296 312.212 6.84 310.068 6.84C307.94 6.84 306.34 8.296 306.34 10.36C306.34 12.44 307.94 13.912 310.068 13.912C312.212 13.912 313.828 12.44 313.828 10.36ZM309.86 18.792V15.256H308.548V19.864H318.212V18.792H309.86ZM334.733 5.832V20.216H336.045V5.832H334.733ZM328.477 6.936C326.349 6.936 324.829 8.888 324.829 11.944C324.829 15 326.349 16.952 328.477 16.952C330.605 16.952 332.125 15 332.125 11.944C332.125 8.888 330.605 6.936 328.477 6.936ZM328.477 8.12C329.869 8.12 330.861 9.624 330.861 11.944C330.861 14.28 329.869 15.784 328.477 15.784C327.069 15.784 326.077 14.28 326.077 11.944C326.077 9.624 327.069 8.12 328.477 8.12ZM351.132 5.848H349.868V16.712H351.132V5.848ZM343.996 12.952H340.908V10.44H343.996V12.952ZM345.228 11.064H347.148V16.296H348.38V6.12H347.148V9.992H345.228V6.984H343.996V9.4H340.908V6.984H339.66V14.008H345.228V11.064ZM343.084 18.792V15.272H341.772V19.864H351.548V18.792H343.084ZM365.259 13.576H356.731V11.304H364.795V10.264H356.731V8.136H365.115V7.08H355.403V14.632H365.259V13.576ZM353.723 17.256V18.328H366.747V17.256H353.723ZM380.436 12.76C378.324 12.12 376.932 10.536 376.932 8.792V8.568H380.1V7.512H376.932V5.768H375.62V7.512H372.436V8.568H375.62V8.792C375.62 10.696 374.164 12.36 372.036 13.016L372.676 14.04C374.372 13.496 375.668 12.344 376.292 10.84C376.932 12.2 378.18 13.256 379.812 13.768L380.436 12.76ZM375.444 16.04H381.876V18.936H375.444V16.04ZM374.164 19.992H383.172V15H374.164V19.992ZM385.3 9.464H383.172V5.832H381.86V14.328H383.172V10.552H385.3V9.464ZM394.002 13.576C394.098 13.08 394.162 12.536 394.162 11.944C394.162 11.288 394.082 10.68 393.954 10.12H397.266V13.576H394.002ZM390.594 15.784C389.218 15.784 388.258 14.28 388.258 11.944C388.258 9.624 389.218 8.12 390.594 8.12C391.954 8.12 392.93 9.624 392.93 11.944C392.93 14.28 391.954 15.784 390.594 15.784ZM397.266 5.832V9.048H393.586C392.978 7.704 391.922 6.936 390.594 6.936C388.498 6.936 387.01 8.888 387.01 11.944C387.01 15 388.498 16.952 390.594 16.952C391.97 16.952 393.09 16.104 393.682 14.648H397.266V20.216H398.578V5.832H397.266ZM406.305 8.392H409.489V7.304H401.729V8.392H405.009V10.216C405.009 12.648 403.281 15.368 401.233 16.392L402.001 17.432C403.617 16.6 405.009 14.776 405.665 12.68C406.321 14.6 407.665 16.28 409.265 17.08L410.017 16.024C407.937 15.048 406.305 12.504 406.305 10.216V8.392ZM414.881 11.624H412.513V5.848H411.201V20.184H412.513V12.728H414.881V11.624ZM422.57 8.072H429.914V12.728H422.57V8.072ZM426.922 17.256V13.768H431.194V7.032H421.306V13.768H425.594V17.256H419.77V18.344H432.778V17.256H426.922ZM445.865 11.176H437.609V7.752H445.689V6.68H436.265V12.232H445.865V11.176ZM447.497 14.104H434.489V15.176H440.297V20.12H441.609V15.176H447.497V14.104ZM456.61 15.784C455.218 15.784 454.242 14.28 454.242 11.944C454.242 9.624 455.218 8.12 456.61 8.12C457.986 8.12 458.962 9.624 458.962 11.944C458.962 14.28 457.986 15.784 456.61 15.784ZM456.61 6.936C454.498 6.936 452.993 8.888 452.993 11.944C452.993 15 454.498 16.952 456.61 16.952C458.722 16.952 460.21 15 460.21 11.944C460.21 8.888 458.722 6.936 456.61 6.936ZM466.194 11.56H463.826V5.848H462.514V20.184H463.826V12.664H466.194V11.56ZM469.248 12.44H473.328V7.4H467.936V8.472H472.048V11.368H467.984V16.744H468.928C470.704 16.744 472.32 16.68 474.304 16.344L474.208 15.256C472.384 15.576 470.88 15.64 469.248 15.656V12.44ZM478.432 5.832V11.496H476.4V6.152H475.168V19.448H476.4V12.568H478.432V20.168H479.696V5.832H478.432ZM496.297 9.544V11.464H492.537V12.536H496.297V14.424H497.625V5.848H496.297V8.472H493.049C493.145 7.976 493.209 7.448 493.209 6.92H486.729V7.976H491.785C491.545 10.456 489.417 12.36 485.993 13.384L486.521 14.424C489.609 13.528 491.785 11.848 492.713 9.544H496.297ZM492.937 19.096C490.825 19.096 489.481 18.44 489.481 17.352C489.481 16.28 490.825 15.624 492.937 15.624C495.049 15.624 496.393 16.28 496.393 17.352C496.393 18.44 495.049 19.096 492.937 19.096ZM492.937 14.584C490.041 14.584 488.185 15.624 488.185 17.352C488.185 19.08 490.041 20.12 492.937 20.12C495.833 20.12 497.689 19.08 497.689 17.352C497.689 15.624 495.833 14.584 492.937 14.584ZM508.776 10.36H505.208V7.352H508.776V10.36ZM503.896 10.36H501.784V11.416H512.2V10.36H510.088V7.352H512.264V6.296H501.736V7.352H503.896V10.36ZM510.632 18.936H503.4V16.552H510.632V18.936ZM513.496 13.832V12.776H500.52V13.832H506.36V15.512H502.12V19.992H511.912V15.512H507.672V13.832H513.496ZM520.017 11.688C522.369 11.4 524.529 10.344 525.313 8.76C526.113 10.344 528.257 11.4 530.609 11.688L531.073 10.648C528.561 10.36 526.273 9.128 526.161 7.544H530.625V6.488H520.017V7.544H524.465C524.353 9.128 522.065 10.36 519.553 10.648L520.017 11.688ZM528.881 17.64C528.881 18.6 527.537 19.16 525.297 19.16C523.041 19.16 521.713 18.6 521.713 17.64C521.713 16.68 523.041 16.136 525.297 16.136C527.537 16.136 528.881 16.68 528.881 17.64ZM531.793 13.608V12.552H518.817V13.608H524.641V15.144C521.969 15.272 520.385 16.152 520.385 17.64C520.385 19.272 522.241 20.168 525.313 20.168C528.369 20.168 530.209 19.272 530.209 17.64C530.209 16.152 528.641 15.272 525.969 15.144V13.608H531.793ZM537.674 19H544.106V17.784H541.754V7.272H540.634C539.994 7.64 539.242 7.912 538.202 8.104V9.032H540.282V17.784H537.674V19ZM546.533 7.688V8.76H550.837C550.645 11.736 549.285 14.328 545.989 16.168L546.757 17.112C550.837 14.808 552.133 11.384 552.133 7.688H546.533ZM556.901 5.832V11.608H554.949V6.216H553.717V19.464H554.949V12.68H556.901V20.184H558.165V5.832H556.901ZM565.486 11.784C567.838 11.496 569.982 10.456 570.782 8.888C571.566 10.456 573.726 11.496 576.078 11.784L576.542 10.744C573.998 10.472 571.694 9.224 571.63 7.624H576.094V6.568H565.486V7.624H569.934C569.87 9.224 567.566 10.472 565.022 10.744L565.486 11.784ZM570.766 19.128C568.51 19.128 567.182 18.568 567.182 17.56C567.182 16.568 568.51 15.992 570.766 15.992C573.006 15.992 574.35 16.568 574.35 17.56C574.35 18.568 573.006 19.128 570.766 19.128ZM570.766 14.968C567.694 14.968 565.854 15.896 565.854 17.56C565.854 19.24 567.694 20.168 570.766 20.168C573.822 20.168 575.678 19.24 575.678 17.56C575.678 15.896 573.822 14.968 570.766 14.968ZM564.286 12.664V13.72H577.262V12.664H564.286ZM586.668 9.56V10.632H589.5V14.392H590.828V5.848H589.5V9.56H586.668ZM587.468 12.824C585.388 12.088 583.98 10.28 583.98 8.44V7.944H587.132V6.888H579.468V7.944H582.668V8.44C582.668 10.504 581.196 12.44 579.052 13.224L579.74 14.264C581.42 13.624 582.748 12.28 583.356 10.616C583.98 12.088 585.212 13.272 586.812 13.848L587.468 12.824ZM586.092 19.16C583.932 19.16 582.62 18.552 582.62 17.512C582.62 16.472 583.932 15.848 586.092 15.848C588.252 15.848 589.564 16.472 589.564 17.512C589.564 18.552 588.252 19.16 586.092 19.16ZM586.092 14.84C583.148 14.84 581.308 15.816 581.308 17.512C581.308 19.208 583.148 20.184 586.092 20.184C589.036 20.184 590.86 19.208 590.86 17.512C590.86 15.816 589.036 14.84 586.092 14.84Z" fill="#8EAEC9"/>
<path d="M40.824 70.72H39.512V74.864H49.384V73.792H40.824V70.72ZM40.632 64.128C40.632 62.992 42.072 62.32 44.344 62.32C46.584 62.32 48.024 62.992 48.024 64.128C48.024 65.264 46.584 65.92 44.344 65.92C42.072 65.92 40.632 65.264 40.632 64.128ZM45 68.464V66.96C47.672 66.816 49.368 65.776 49.368 64.128C49.368 62.336 47.4 61.264 44.344 61.264C41.256 61.264 39.288 62.336 39.288 64.128C39.288 65.792 40.984 66.816 43.688 66.96V68.464H37.848V69.536H50.808V68.464H45ZM54.4388 67.312H59.6068V62.16H53.1108V63.232H58.3108V66.24H53.1588V71.728H54.2948C57.0308 71.728 58.9508 71.616 61.1908 71.216L61.0468 70.128C58.9028 70.544 57.0468 70.64 54.4388 70.64V67.312ZM65.9748 66.528H63.6228V60.816H62.3108V75.2H63.6228V67.632H65.9748V66.528ZM79.0615 60.848H77.7495V71.328H79.0615V60.848ZM68.9015 65.36C68.9015 63.968 69.9575 62.976 71.3495 62.976C72.7735 62.976 73.8295 63.968 73.8295 65.36C73.8295 66.784 72.7735 67.776 71.3495 67.776C69.9575 67.776 68.9015 66.784 68.9015 65.36ZM75.1095 65.36C75.1095 63.296 73.4935 61.84 71.3495 61.84C69.2215 61.84 67.6215 63.296 67.6215 65.36C67.6215 67.44 69.2215 68.912 71.3495 68.912C73.4935 68.912 75.1095 67.44 75.1095 65.36ZM71.1415 73.792V70.256H69.8295V74.864H79.4935V73.792H71.1415ZM96.0144 60.832V75.216H97.3264V60.832H96.0144ZM89.7584 61.936C87.6304 61.936 86.1104 63.888 86.1104 66.944C86.1104 70 87.6304 71.952 89.7584 71.952C91.8864 71.952 93.4064 70 93.4064 66.944C93.4064 63.888 91.8864 61.936 89.7584 61.936ZM89.7584 63.12C91.1504 63.12 92.1424 64.624 92.1424 66.944C92.1424 69.28 91.1504 70.784 89.7584 70.784C88.3504 70.784 87.3584 69.28 87.3584 66.944C87.3584 64.624 88.3504 63.12 89.7584 63.12ZM112.413 60.848H111.149V71.712H112.413V60.848ZM105.277 67.952H102.189V65.44H105.277V67.952ZM106.509 66.064H108.429V71.296H109.661V61.12H108.429V64.992H106.509V61.984H105.277V64.4H102.189V61.984H100.941V69.008H106.509V66.064ZM104.365 73.792V70.272H103.053V74.864H112.829V73.792H104.365ZM126.54 68.576H118.012V66.304H126.076V65.264H118.012V63.136H126.396V62.08H116.684V69.632H126.54V68.576ZM115.004 72.256V73.328H128.028V72.256H115.004ZM141.717 67.76C139.605 67.12 138.213 65.536 138.213 63.792V63.568H141.381V62.512H138.213V60.768H136.901V62.512H133.717V63.568H136.901V63.792C136.901 65.696 135.445 67.36 133.317 68.016L133.957 69.04C135.653 68.496 136.949 67.344 137.573 65.84C138.213 67.2 139.461 68.256 141.093 68.768L141.717 67.76ZM136.725 71.04H143.157V73.936H136.725V71.04ZM135.445 74.992H144.453V70H135.445V74.992ZM146.581 64.464H144.453V60.832H143.141V69.328H144.453V65.552H146.581V64.464ZM155.284 68.576C155.38 68.08 155.444 67.536 155.444 66.944C155.444 66.288 155.364 65.68 155.236 65.12H158.548V68.576H155.284ZM151.876 70.784C150.5 70.784 149.539 69.28 149.539 66.944C149.539 64.624 150.5 63.12 151.876 63.12C153.236 63.12 154.212 64.624 154.212 66.944C154.212 69.28 153.236 70.784 151.876 70.784ZM158.548 60.832V64.048H154.868C154.26 62.704 153.204 61.936 151.876 61.936C149.78 61.936 148.292 63.888 148.292 66.944C148.292 70 149.78 71.952 151.876 71.952C153.252 71.952 154.372 71.104 154.964 69.648H158.548V75.216H159.86V60.832H158.548ZM167.586 63.392H170.77V62.304H163.01V63.392H166.29V65.216C166.29 67.648 164.562 70.368 162.514 71.392L163.282 72.432C164.898 71.6 166.29 69.776 166.946 67.68C167.602 69.6 168.946 71.28 170.546 72.08L171.298 71.024C169.218 70.048 167.586 67.504 167.586 65.216V63.392ZM176.162 66.624H173.794V60.848H172.482V75.184H173.794V67.728H176.162V66.624ZM182.251 66.688C184.603 66.4 186.763 65.344 187.547 63.76C188.347 65.344 190.491 66.4 192.843 66.688L193.307 65.648C190.795 65.36 188.507 64.128 188.395 62.544H192.859V61.488H182.251V62.544H186.699C186.587 64.128 184.299 65.36 181.787 65.648L182.251 66.688ZM191.115 72.64C191.115 73.6 189.771 74.16 187.531 74.16C185.275 74.16 183.947 73.6 183.947 72.64C183.947 71.68 185.275 71.136 187.531 71.136C189.771 71.136 191.115 71.68 191.115 72.64ZM194.027 68.608V67.552H181.051V68.608H186.875V70.144C184.203 70.272 182.619 71.152 182.619 72.64C182.619 74.272 184.475 75.168 187.547 75.168C190.603 75.168 192.443 74.272 192.443 72.64C192.443 71.152 190.875 70.272 188.203 70.144V68.608H194.027ZM200.644 68.416C202.868 68.08 204.932 66.976 205.844 65.424C206.756 66.976 208.804 68.08 211.028 68.416L211.492 67.36C208.932 67.008 206.5 65.424 206.5 63.664H211.076V62.608H206.5V60.848H205.188V62.608H200.612V63.664H205.172C205.172 65.44 202.756 67.008 200.164 67.36L200.644 68.416ZM212.34 69.504H199.364V70.576H205.188V75.2H206.5V70.576H212.34V69.504ZM222.579 67.792C220.451 67.184 218.963 65.648 218.963 63.84V63.568H222.131V62.512H218.963V60.768H217.651V62.512H214.467V63.568H217.651V63.84C217.651 65.744 216.195 67.408 214.067 68.08L214.707 69.104C216.403 68.56 217.715 67.392 218.323 65.888C218.979 67.28 220.307 68.336 221.955 68.832L222.579 67.792ZM217.843 71.12H224.611V73.936H217.843V71.12ZM216.563 74.992H225.891V70.08H216.563V74.992ZM224.563 60.832V64.832H221.731V65.92H224.563V69.328H225.891V60.832H224.563ZM235.266 62.064C237.618 62.064 238.962 62.608 238.962 63.568C238.962 64.528 237.618 65.072 235.266 65.072C232.914 65.072 231.57 64.528 231.57 63.568C231.57 62.608 232.914 62.064 235.266 62.064ZM235.266 66.048C238.418 66.048 240.306 65.184 240.306 63.568C240.306 61.952 238.418 61.072 235.266 61.072C232.114 61.072 230.226 61.952 230.226 63.568C230.226 65.184 232.114 66.048 235.266 66.048ZM231.666 72.544H240.098V69.312H230.338V70.304H238.802V71.584H230.386V75.024H240.53V74H231.666V72.544ZM228.77 67.024V68.08H241.762V67.024H228.77ZM253.562 74.176C251.258 74.176 249.962 73.728 249.962 72.864C249.962 72.016 251.258 71.552 253.562 71.552C255.882 71.552 257.162 72.016 257.162 72.864C257.162 73.728 255.882 74.176 253.562 74.176ZM253.562 70.576C250.442 70.576 248.65 71.376 248.65 72.864C248.65 74.368 250.442 75.168 253.562 75.168C256.682 75.168 258.474 74.368 258.474 72.864C258.474 71.376 256.682 70.576 253.562 70.576ZM254.218 68.432V67.024H258.538V66H250.09V64.592H258.074V63.6H250.09V62.272H258.458V61.248H248.778V67.024H252.906V68.432H247.066V69.488H260.058V68.432H254.218ZM265.353 70.768C264.233 70.768 263.449 69.856 263.449 68.576C263.449 67.328 264.233 66.416 265.353 66.416C266.457 66.416 267.257 67.328 267.257 68.576C267.257 69.856 266.457 70.768 265.353 70.768ZM265.353 65.312C263.577 65.312 262.281 66.656 262.281 68.576C262.281 70.528 263.577 71.856 265.353 71.856C267.129 71.856 268.425 70.528 268.425 68.576C268.425 66.656 267.129 65.312 265.353 65.312ZM265.993 61.248H264.697V63.28H261.785V64.352H268.905V63.28H265.993V61.248ZM272.697 60.816V66.88H270.857V61.152H269.625V74.48H270.857V67.952H272.697V75.168H273.961V60.816H272.697ZM281.17 62.32V63.392H286.434C286.37 64.272 286.242 65.104 285.97 65.904L280.434 66.272L280.658 67.424L285.554 66.96C284.674 68.88 283.026 70.528 280.386 71.808L281.09 72.848C286.242 70.304 287.73 66.48 287.73 62.32H281.17ZM290.562 60.832V75.184H291.874V60.832H290.562ZM306.337 68.576H297.809V66.304H305.873V65.264H297.809V63.136H306.193V62.08H296.481V69.632H306.337V68.576ZM294.801 72.256V73.328H307.825V72.256H294.801ZM314.314 66.784C316.666 66.496 318.81 65.456 319.61 63.888C320.394 65.456 322.554 66.496 324.906 66.784L325.37 65.744C322.826 65.472 320.522 64.224 320.458 62.624H324.922V61.568H314.314V62.624H318.762C318.698 64.224 316.394 65.472 313.85 65.744L314.314 66.784ZM319.594 74.128C317.338 74.128 316.01 73.568 316.01 72.56C316.01 71.568 317.338 70.992 319.594 70.992C321.834 70.992 323.178 71.568 323.178 72.56C323.178 73.568 321.834 74.128 319.594 74.128ZM319.594 69.968C316.522 69.968 314.682 70.896 314.682 72.56C314.682 74.24 316.522 75.168 319.594 75.168C322.65 75.168 324.506 74.24 324.506 72.56C324.506 70.896 322.65 69.968 319.594 69.968ZM313.114 67.664V68.72H326.09V67.664H313.114ZM335.496 64.56V65.632H338.328V69.392H339.656V60.848H338.328V64.56H335.496ZM336.296 67.824C334.216 67.088 332.808 65.28 332.808 63.44V62.944H335.96V61.888H328.296V62.944H331.496V63.44C331.496 65.504 330.024 67.44 327.88 68.224L328.568 69.264C330.248 68.624 331.576 67.28 332.184 65.616C332.808 67.088 334.04 68.272 335.64 68.848L336.296 67.824ZM334.92 74.16C332.76 74.16 331.448 73.552 331.448 72.512C331.448 71.472 332.76 70.848 334.92 70.848C337.08 70.848 338.392 71.472 338.392 72.512C338.392 73.552 337.08 74.16 334.92 74.16ZM334.92 69.84C331.976 69.84 330.136 70.816 330.136 72.512C330.136 74.208 331.976 75.184 334.92 75.184C337.864 75.184 339.688 74.208 339.688 72.512C339.688 70.816 337.864 69.84 334.92 69.84Z" fill="#8EAEC9"/>
<path d="M28.674 254.064H33.168V253.14H28.674V250.55H33.63V249.612H27.54V258.012H28.534C30.928 258.012 32.608 257.928 34.568 257.592L34.456 256.654C32.58 256.99 30.956 257.074 28.674 257.074V254.064ZM35.898 248.478V261.022H37.046V248.478H35.898ZM49.9809 248.492H48.8889V257.004H49.9809V248.492ZM46.4109 253.084V255.884H47.4889V248.702H46.4109V252.16H44.5209C44.7869 251.348 44.9129 250.466 44.9129 249.542H40.0409V250.48H43.7789C43.7369 250.984 43.6389 251.46 43.4989 251.922L39.4529 252.188L39.6349 253.126L43.1209 252.762C42.4629 253.98 41.2869 255.002 39.4669 255.786L40.0269 256.626C42.0569 255.73 43.3729 254.54 44.1289 253.084H46.4109ZM46.3409 256.276H45.1929V256.668C45.1929 258.348 43.1349 259.734 40.9229 260.084L41.3709 260.994C43.2609 260.658 44.9969 259.678 45.7669 258.264C46.5369 259.678 48.3009 260.658 50.1769 260.994L50.6389 260.084C48.4129 259.734 46.3409 258.348 46.3409 256.668V256.276Z" fill="#2454A6"/>
<path d="M156 258.502V255.282H159.822V254.358H152.332V250.424H159.696V249.486H151.184V255.282H154.838V258.502H149.728V259.454H161.138V258.502H156ZM163.601 258.222H171.189V260.924H172.337V257.284H163.601V258.222ZM168.613 255.38V254.064H172.533V253.168H164.931V251.852H172.267V248.8H163.769V249.696H171.133V250.998H163.797V254.064H167.451V255.38H162.327V256.318H173.723V255.38H168.613Z" fill="#2454A6"/>
<path d="M248.94 259.944H243.186V258.32H248.94V259.944ZM248.94 257.424H243.186V255.842H242.052V260.868H250.088V255.842H248.94V257.424ZM246.238 252.93C246.336 252.636 246.392 252.314 246.392 251.978C246.392 251.628 246.336 251.32 246.238 251.026H248.926V252.93H246.238ZM243.172 253.938C241.94 253.938 241.03 253.112 241.03 251.978C241.03 250.83 241.94 250.004 243.172 250.004C244.404 250.004 245.3 250.83 245.3 251.978C245.3 253.112 244.404 253.938 243.172 253.938ZM248.926 248.492V250.088H245.692C245.118 249.444 244.222 249.052 243.172 249.052C241.31 249.052 239.938 250.242 239.938 251.978C239.938 253.7 241.31 254.89 243.172 254.89C244.222 254.89 245.104 254.512 245.678 253.868H248.926V255.226H250.088V248.492H248.926ZM256.737 249.556H255.589V251.81C255.589 254.134 254.161 256.556 252.341 257.466L253.041 258.376C254.455 257.62 255.617 256.038 256.163 254.176C256.737 255.94 257.885 257.438 259.313 258.152L259.985 257.242C258.165 256.374 256.737 254.092 256.737 251.81V249.556ZM261.539 248.478V252.734H258.627V253.672H261.539V261.05H262.687V248.478H261.539ZM270.745 260.182C272.565 260.182 274.035 259.09 274.035 257.256C274.035 255.856 273.069 254.932 271.851 254.652V254.596C272.943 254.19 273.685 253.364 273.685 252.118C273.685 250.466 272.425 249.542 270.703 249.542C269.513 249.542 268.603 250.06 267.833 250.774L268.519 251.586C269.093 251.012 269.821 250.592 270.647 250.564C271.711 250.592 272.383 251.222 272.383 252.216C272.383 253.322 271.655 254.176 269.541 254.176V255.156C271.907 255.156 272.733 255.982 272.733 257.214C272.733 258.39 271.865 259.118 270.647 259.118C269.485 259.118 268.701 258.572 268.099 257.942L267.455 258.782C268.127 259.51 269.135 260.182 270.745 260.182ZM276.326 253.56C278.384 253.322 280.26 252.412 280.96 251.04C281.66 252.412 283.536 253.322 285.608 253.56L286.014 252.65C283.816 252.426 281.8 251.362 281.702 249.976H285.608V249.052H276.326V249.976H280.218C280.12 251.362 278.118 252.426 275.906 252.65L276.326 253.56ZM280.946 260.14C278.958 260.14 277.81 259.678 277.81 258.852C277.81 258.04 278.958 257.578 280.946 257.578C282.92 257.578 284.082 258.04 284.082 258.852C284.082 259.678 282.92 260.14 280.946 260.14ZM280.946 256.696C278.258 256.696 276.648 257.466 276.648 258.852C276.648 260.252 278.258 261.022 280.946 261.022C283.634 261.022 285.244 260.252 285.244 258.852C285.244 257.466 283.634 256.696 280.946 256.696ZM281.52 254.736V252.93H280.372V254.736H275.276V255.66H286.63V254.736H281.52ZM294.45 249.668H293.344V252.062C293.344 254.218 292.308 256.472 290.586 257.48L291.3 258.348C292.546 257.578 293.456 256.15 293.904 254.484C294.352 256.01 295.192 257.34 296.382 258.068L297.04 257.172C295.388 256.164 294.45 254.036 294.45 252.02V249.668ZM297.754 252.986H295.682V253.938H297.754V260.42H298.832V248.758H297.754V252.986ZM300.302 248.478V261.036H301.394V248.478H300.302ZM313.405 255.254H305.943V253.266H312.999V252.356H305.943V250.494H313.279V249.57H304.781V256.178H313.405V255.254ZM303.311 258.474V259.412H314.707V258.474H303.311Z" fill="#2454A6"/>
<path d="M371 258.474V255.114H374.836V254.19H367.276V249.556H366.128V255.114H369.852V258.474H364.728V259.412H376.138V258.474H371ZM387.421 255.254H379.959V253.266H387.015V252.356H379.959V250.494H387.295V249.57H378.797V256.178H387.421V255.254ZM377.327 258.474V259.412H388.723V258.474H377.327ZM390.948 257.27C390.948 256.472 391.508 255.856 392.236 255.268C392.964 256.374 393.93 257.452 394.938 258.334C394.35 258.838 393.678 259.16 392.978 259.16C391.83 259.16 390.948 258.404 390.948 257.27ZM392.152 251.95C392.152 251.096 392.642 250.466 393.412 250.466C394.112 250.466 394.392 250.998 394.392 251.6C394.392 252.51 393.58 253.14 392.642 253.77C392.334 253.14 392.152 252.51 392.152 251.95ZM398.48 259.118C397.906 258.964 397.248 258.628 396.562 258.138C397.374 257.074 397.962 255.828 398.354 254.47H397.178C396.856 255.646 396.366 256.668 395.722 257.508C394.742 256.71 393.79 255.674 393.118 254.61C394.252 253.784 395.428 252.916 395.428 251.572C395.428 250.382 394.686 249.542 393.412 249.542C391.998 249.542 391.046 250.606 391.046 251.978C391.046 252.72 391.298 253.546 391.718 254.372C390.668 255.1 389.702 255.968 389.702 257.34C389.702 258.992 390.962 260.182 392.824 260.182C394.042 260.182 395.008 259.72 395.792 259.006C396.618 259.594 397.416 259.986 398.13 260.182L398.48 259.118ZM401.695 258.796H409.073V255.996H400.533V256.864H407.939V257.956H400.575V260.896H409.451V260.014H401.695V258.796ZM401.807 250.732H407.911V251.936H401.807V250.732ZM405.419 254.022V252.818H409.045V248.674H407.911V249.864H401.807V248.674H400.673V252.818H404.271V254.022H399.161V254.946H410.529V254.022H405.419ZM422.414 248.492H421.308V257.886H422.414V248.492ZM417.36 252.132V253.07H418.984V257.578H420.062V248.744H418.984V252.132H417.36ZM414.056 250.62H415.652V254.708C415.12 254.736 414.574 254.75 414.056 254.764V250.62ZM418.06 254.512C417.64 254.568 417.192 254.61 416.702 254.638V250.62H417.78V249.682H411.928V250.62H413.006V254.778C412.53 254.778 412.096 254.778 411.718 254.778L411.844 255.744C413.524 255.744 416.128 255.716 418.13 255.366L418.06 254.512ZM415.386 259.818V256.794H414.238V260.756H422.764V259.818H415.386Z" fill="#2454A6"/>
<path d="M486.9 256.752H484.268V250.844H486.9V256.752ZM489.826 253.21H487.964V249.934H483.19V257.662H487.964V254.162H489.826V260.406H490.918V248.758H489.826V253.21ZM492.318 248.478V261.022H493.41V248.478H492.318ZM497.791 250.438H504.217V254.512H497.791V250.438ZM501.599 258.474V255.422H505.337V249.528H496.685V255.422H500.437V258.474H495.341V259.426H506.723V258.474H501.599ZM512.42 250.718H515.374V249.766H508.36V250.718H511.272V252.314C511.272 254.484 509.746 256.85 507.94 257.704L508.612 258.628C510.04 257.9 511.272 256.318 511.846 254.484C512.448 256.206 513.68 257.648 515.136 258.32L515.78 257.396C513.932 256.612 512.42 254.442 512.42 252.314V250.718ZM517.068 248.492V261.036H518.216V248.492H517.068Z" fill="#2454A6"/>
<path d="M586.658 254.022C585.09 254.288 583.788 254.358 581.52 254.358V252.636H585.65V251.726H581.52V250.158H585.986V249.22H580.372V255.296H581.31C583.732 255.296 585.104 255.24 586.756 254.946L586.658 254.022ZM583.046 257.48H588.968V259.944H583.046V257.48ZM581.926 260.868H590.088V256.57H581.926V260.868ZM588.926 248.492V251.628H586.518V252.566H588.926V255.912H590.088V248.492H588.926ZM601.077 251.964H594.973V250.76H601.077V251.964ZM602.211 248.702H601.077V249.892H594.973V248.702H593.839V252.846H602.211V248.702ZM594.861 258.768H602.239V255.968H593.699V256.836H601.105V257.942H593.741V260.896H602.617V260.014H594.861V258.768ZM592.327 253.91V254.82H603.695V253.91H592.327ZM606.536 254.036H610.988V249.64H605.374V250.578H609.868V253.112H605.402V258.026H606.368C608.636 258.026 610.232 257.956 612.122 257.62L612.01 256.668C610.204 256.99 608.678 257.074 606.536 257.074V254.036ZM614.124 248.464V253.308H611.73V254.246H614.124V261.05H615.272V248.464H614.124Z" fill="#2454A6"/>
<path d="M678.4 260H684.182V258.894H679.702V249.738H678.4V260ZM689.278 250.718H692.064V249.766H685.274V250.718H688.144V252.314C688.144 254.442 686.632 256.822 684.84 257.718L685.512 258.628C686.926 257.9 688.144 256.304 688.718 254.47C689.292 256.15 690.468 257.62 691.868 258.32L692.526 257.396C690.706 256.542 689.278 254.316 689.278 252.314V250.718ZM696.782 253.546H694.71V248.492H693.562V261.036H694.71V254.512H696.782V253.546ZM703.925 250.76H705.983V256.864C705.297 256.892 704.597 256.92 703.925 256.934V250.76ZM707.103 250.76H708.447V249.836H701.461V250.76H702.805V256.948C702.217 256.962 701.657 256.962 701.139 256.962L701.279 257.928C703.491 257.928 706.473 257.886 709.105 257.466L709.021 256.612C708.405 256.696 707.761 256.752 707.103 256.794V250.76ZM713.025 253.504H710.953V248.492H709.805V261.036H710.953V254.456H713.025V253.504ZM724.196 248.478H723.048V254.918H724.196V248.478ZM715.292 251.726C715.292 250.634 716.202 249.864 717.42 249.864C718.652 249.864 719.548 250.634 719.548 251.726C719.548 252.804 718.652 253.574 717.42 253.574C716.202 253.574 715.292 252.804 715.292 251.726ZM720.668 251.726C720.668 250.06 719.296 248.926 717.42 248.926C715.544 248.926 714.186 250.06 714.186 251.726C714.186 253.378 715.544 254.498 717.42 254.498C719.296 254.498 720.668 253.378 720.668 251.726ZM717.224 259.958V258.572H724.196V255.534H716.062V256.444H723.062V257.718H716.09V260.868H724.616V259.958H717.224Z" fill="#2454A6"/>
<rect x="124.5" y="129.5" width="74" height="99" stroke="#2454A6" stroke-linejoin="round"/>
<rect x="124.5" y="185.5" width="74" height="29" stroke="#2454A6" stroke-linejoin="round"/>
<rect x="124.5" y="129.5" width="3" height="99" stroke="#2454A6" stroke-linejoin="round"/>
<rect x="1.5" y="199.5" width="74" height="29" stroke="#2454A6" stroke-linejoin="round"/>
<path d="M20 200.967V201.467H21V200.967H20ZM21 206.867V206.367H20V206.867H21ZM20 210.8V211.3H21V210.8H20ZM21 216.7V216.2H20V216.7H21ZM20 220.633V221.133H21V220.633H20ZM21 226.533V226.033H20V226.533H21ZM20 199V200.967H21V199H20ZM20 206.867V210.8H21V206.867H20ZM20 216.7V220.633H21V216.7H20ZM20 226.533V228.5H21V226.533H20Z" fill="#2454A6"/>
<mask id="path-15-inside-1_650_59" fill="white">
<path fill-rule="evenodd" clip-rule="evenodd" d="M297 152H247V217H254V159H297V152Z"/>
</mask>
<path d="M247 152V151H246V152H247ZM297 152H298V151H297V152ZM247 217H246V218H247V217ZM254 217V218H255V217H254ZM254 159V158H253V159H254ZM297 159V160H298V159H297ZM247 153H297V151H247V153ZM248 217V152H246V217H248ZM254 216H247V218H254V216ZM255 217V159H253V217H255ZM254 160H297V158H254V160ZM296 152V159H298V152H296Z" fill="#2454A6" mask="url(#path-15-inside-1_650_59)"/>
<mask id="path-17-inside-2_650_59" fill="white">
<path fill-rule="evenodd" clip-rule="evenodd" d="M303 158H253V223H260V165H303V158Z"/>
</mask>
<path d="M253 158V157H252V158H253ZM303 158H304V157H303V158ZM253 223H252V224H253V223ZM260 223V224H261V223H260ZM260 165V164H259V165H260ZM303 165V166H304V165H303ZM253 159H303V157H253V159ZM254 223V158H252V223H254ZM260 222H253V224H260V222ZM261 223V165H259V223H261ZM260 166H303V164H260V166ZM302 158V165H304V158H302Z" fill="#2454A6" mask="url(#path-17-inside-2_650_59)"/>
<rect x="259.5" y="164.5" width="49" height="64" stroke="#2454A6"/>
<rect x="357.5" y="147.5" width="55" height="81" stroke="#2454A6"/>
<path d="M357.5 209H412.5" stroke="#2454A6" stroke-linecap="square"/>
<rect x="420.5" y="170.5" width="7" height="49" stroke="#2454A6" stroke-linejoin="round"/>
<rect x="420.5" y="200.5" width="7" height="19" stroke="#2454A6" stroke-linejoin="round"/>
<path d="M424 229L420.536 219.25L427.464 219.25L424 229Z" stroke="#2454A6" stroke-linejoin="round"/>
<rect x="422.5" y="165.5" width="3" height="5" stroke="#2454A6" stroke-linejoin="round"/>
<path d="M427.5 170.5C428.5 171.694 430.5 175.514 430.5 181.244C430.5 186.974 428.5 191.136 427.5 192.5" stroke="#2454A6" stroke-linecap="round"/>
<rect x="479.5" y="184.5" width="45" height="44" stroke="#2454A6"/>
<rect x="483.5" y="189.5" width="37" height="34" stroke="#2454A6"/>
<path d="M507.5 189.5V223.5" stroke="#2454A6" stroke-linecap="round"/>
<rect x="573.5" y="160.5" width="51" height="4" stroke="#2454A6"/>
<mask id="path-31-inside-3_650_59" fill="white">
<path fill-rule="evenodd" clip-rule="evenodd" d="M599.5 164H576L581.385 229H599.5H617.615L623 164H599.5Z"/>
</mask>
<path d="M576 164V163H574.914L575.003 164.083L576 164ZM581.385 229L580.389 229.083L580.465 230H581.385V229ZM617.615 229V230H618.535L618.611 229.083L617.615 229ZM623 164L623.997 164.083L624.086 163H623V164ZM576 165H599.5V163H576V165ZM582.382 228.917L576.997 163.917L575.003 164.083L580.389 229.083L582.382 228.917ZM599.5 228H581.385V230H599.5V228ZM599.5 230H617.615V228H599.5V230ZM618.611 229.083L623.997 164.083L622.003 163.917L616.618 228.917L618.611 229.083ZM623 163H599.5V165H623V163Z" fill="#2454A6" mask="url(#path-31-inside-3_650_59)"/>
<path d="M578 183H620" stroke="#2454A6" stroke-linecap="round"/>
<path d="M580 204H619" stroke="#2454A6" stroke-linecap="round"/>
<rect x="673.5" y="147.5" width="55" height="81" stroke="#2454A6"/>
<rect x="723.5" y="153.5" width="5" height="21" stroke="#2454A6"/>
<path d="M1 90H426" stroke="#8EAEC9" stroke-linecap="round"/>
<path d="M1 90V105" stroke="#8EAEC9" stroke-linecap="round"/>
<path d="M426 90V105" stroke="#8EAEC9" stroke-linecap="round"/>
<path d="M124 35L729 35.0001" stroke="#8EAEC9" stroke-linecap="round"/>
<path d="M124 35V50" stroke="#8EAEC9" stroke-linecap="round"/>
<path d="M729 35V50" stroke="#8EAEC9" stroke-linecap="round"/>
</svg>
