<svg width="150" height="102" viewBox="0 0 150 102" fill="none" xmlns="http://www.w3.org/2000/svg">
<g clip-path="url(#clip0_55_536)">
<path d="M98.9747 65.6832C98.9565 65.8753 98.9565 66.0688 98.9747 66.2609C99.0071 66.4169 99.0768 66.5627 99.1776 66.6858C99.2971 66.8103 99.441 66.9087 99.6001 66.9748C99.8056 67.0502 100.024 67.0847 100.242 67.0766C100.541 67.083 100.833 66.987 101.071 66.8046C101.197 66.7083 101.297 66.5815 101.362 66.436C101.427 66.2905 101.455 66.131 101.442 65.9719C101.444 65.7873 101.415 65.6037 101.358 65.4282C101.288 65.2758 101.184 65.1419 101.054 65.0374C100.889 64.9052 100.707 64.7964 100.513 64.7144C100.238 64.5976 99.956 64.5011 99.6677 64.4256C99.2651 64.311 98.8745 64.1573 98.5015 63.9667C98.201 63.8281 97.9265 63.6383 97.6902 63.4058C97.4724 63.1972 97.3048 62.9416 97.2001 62.6581C97.0935 62.3466 97.042 62.0187 97.048 61.6893C97.0199 61.3148 97.0785 60.9388 97.2193 60.5909C97.36 60.2429 97.5791 59.9326 97.8593 59.6841C98.5176 59.2113 99.3162 58.9775 100.124 59.0213C100.545 59.0209 100.964 59.0664 101.375 59.1572C101.726 59.2328 102.059 59.3771 102.355 59.582C102.626 59.7828 102.846 60.0449 102.997 60.3469C103.16 60.6917 103.241 61.0699 103.234 61.4516V61.7063H101.29C101.308 61.3595 101.219 61.0155 101.037 60.7207C100.939 60.5967 100.812 60.4993 100.668 60.437C100.523 60.3746 100.365 60.3495 100.209 60.3639C100.024 60.3329 99.8354 60.3329 99.6508 60.3639C99.5191 60.421 99.3988 60.5016 99.2958 60.6019C99.2113 60.7011 99.148 60.8168 99.1099 60.9417C99.0923 61.0714 99.0923 61.2028 99.1099 61.3325C99.1025 61.5805 99.1735 61.8245 99.3127 62.0293C99.531 62.2833 99.8192 62.4665 100.141 62.5561L101.696 63.1678C102.024 63.2879 102.336 63.4477 102.625 63.6437C102.848 63.788 103.048 63.9658 103.217 64.1706C103.348 64.3642 103.451 64.576 103.521 64.7994C103.578 65.0503 103.606 65.3068 103.606 65.5641C103.637 65.9604 103.568 66.3582 103.405 66.7206C103.243 67.0831 102.992 67.3983 102.676 67.6374C101.915 68.1181 101.021 68.3442 100.124 68.2831C99.26 68.3629 98.3962 68.1277 97.6902 67.6203C97.4358 67.3732 97.2375 67.0737 97.1091 66.7422C96.9808 66.4107 96.9253 66.0553 96.9466 65.7002V65.3261H98.9747V65.6832Z" fill="#2454A6"/>
<path d="M108.473 63.3887C108.449 63.2414 108.403 63.0983 108.338 62.9639C108.283 62.8358 108.196 62.7246 108.084 62.6411C107.949 62.5538 107.789 62.5121 107.628 62.522C107.433 62.516 107.241 62.5631 107.07 62.6581C106.913 62.7693 106.791 62.9223 106.715 63.1C106.637 63.3301 106.591 63.5704 106.58 63.8136C106.561 64.1589 106.561 64.5052 106.58 64.8504C106.56 65.207 106.56 65.5643 106.58 65.9209C106.591 66.1752 106.637 66.4268 106.715 66.6688C106.774 66.8414 106.887 66.9903 107.037 67.0936C107.195 67.1883 107.377 67.2354 107.561 67.2295C107.703 67.2356 107.846 67.2044 107.973 67.1388C108.1 67.0733 108.209 66.9758 108.287 66.8557C108.452 66.47 108.528 66.0515 108.507 65.6321H110.349C110.377 66.0002 110.332 66.3702 110.216 66.7204C110.1 67.0706 109.915 67.3939 109.673 67.6714C109.375 67.9336 109.025 68.1311 108.647 68.251C108.269 68.3709 107.87 68.4108 107.476 68.3682C107.048 68.3823 106.621 68.3308 106.208 68.2153C105.862 68.1202 105.55 67.9251 105.313 67.6543C105.056 67.3316 104.876 66.9537 104.789 66.5499C104.649 65.9947 104.587 65.4228 104.603 64.8504C104.589 64.276 104.663 63.7028 104.823 63.151C104.942 62.735 105.163 62.3554 105.465 62.0463C105.721 61.7692 106.049 61.569 106.411 61.4684C106.814 61.3633 107.229 61.3119 107.645 61.3155C108.013 61.2855 108.382 61.3319 108.731 61.4518C109.08 61.5717 109.401 61.7625 109.673 62.0123C109.907 62.2712 110.087 62.5744 110.203 62.9041C110.319 63.2339 110.369 63.5835 110.349 63.9327H108.507C108.506 63.7509 108.495 63.5692 108.473 63.3887Z" fill="#2454A6"/>
<path d="M113.51 59.2251V62.1311C113.904 61.67 114.454 61.3729 115.054 61.2975C115.654 61.2221 116.26 61.3738 116.755 61.7232C116.939 61.9195 117.079 62.1529 117.166 62.4078C117.254 62.6627 117.286 62.9332 117.262 63.2017V68.3H115.335V63.6096C115.364 63.3488 115.291 63.0872 115.132 62.8789C115.051 62.797 114.953 62.7346 114.845 62.6964C114.737 62.6581 114.621 62.645 114.507 62.658C113.831 62.658 113.493 63.0489 113.493 63.7797V68.3H111.566V59.2251H113.51Z" fill="#2454A6"/>
<path d="M118.665 63.2868C118.757 62.8826 118.93 62.5011 119.172 62.1652C119.415 61.8659 119.729 61.6322 120.084 61.4853C120.535 61.3257 121.01 61.2508 121.487 61.2644C121.974 61.2373 122.461 61.3008 122.924 61.4515C123.287 61.594 123.603 61.8351 123.837 62.1481C124.071 62.4847 124.232 62.8668 124.31 63.2698C124.412 63.7844 124.457 64.3088 124.445 64.8334C124.452 65.3529 124.401 65.8715 124.293 66.3797C124.208 66.7864 124.035 67.1694 123.786 67.5014C123.542 67.796 123.228 68.024 122.873 68.1642C122.426 68.3121 121.957 68.3811 121.487 68.3681C121.001 68.3953 120.514 68.3319 120.051 68.1812C119.685 68.0625 119.365 67.8305 119.138 67.5184C118.895 67.1872 118.733 66.8028 118.665 66.3967C118.563 65.8821 118.517 65.3579 118.53 64.8334C118.528 64.3148 118.573 63.7971 118.665 63.2868ZM120.473 65.802C120.486 66.056 120.531 66.3075 120.608 66.5498C120.667 66.7371 120.772 66.9064 120.913 67.0425C121.077 67.1698 121.28 67.2359 121.487 67.2294C121.665 67.2383 121.841 67.1882 121.987 67.0869C122.134 66.9856 122.243 66.8387 122.299 66.6687C122.592 65.4628 122.592 64.2037 122.299 62.9979C122.243 62.8294 122.133 62.6846 121.986 62.5861C121.839 62.4876 121.663 62.4412 121.487 62.4541C121.282 62.4428 121.079 62.5028 120.913 62.624C120.772 62.7601 120.667 62.9296 120.608 63.1169C120.533 63.3596 120.488 63.6107 120.473 63.8646C120.473 64.1705 120.473 64.4935 120.473 64.8334C120.473 65.1733 120.456 65.4961 120.473 65.802Z" fill="#2454A6"/>
<path d="M125.611 63.2869C125.697 62.8802 125.87 62.4972 126.118 62.1652C126.362 61.8659 126.675 61.6323 127.031 61.4854C127.481 61.3242 127.957 61.2493 128.434 61.2645C128.92 61.2385 129.407 61.302 129.87 61.4516C130.233 61.5941 130.549 61.8352 130.783 62.1482C131.01 62.4887 131.17 62.8693 131.256 63.2699C131.35 63.7856 131.395 64.3092 131.392 64.8334C131.398 65.353 131.347 65.8716 131.239 66.3798C131.154 66.7865 130.981 67.1694 130.732 67.5015C130.488 67.7961 130.175 68.0241 129.82 68.1643C129.372 68.3096 128.904 68.3785 128.434 68.3682C127.942 68.3951 127.449 68.3318 126.98 68.1813C126.621 68.0574 126.309 67.8261 126.084 67.5185C125.835 67.1889 125.667 66.8044 125.594 66.3968C125.501 65.881 125.455 65.3577 125.459 64.8334C125.454 64.3139 125.505 63.7953 125.611 63.2869ZM127.42 65.802C127.432 66.0561 127.478 66.3076 127.555 66.5499C127.607 66.7403 127.712 66.9114 127.859 67.0426C128.023 67.1699 128.227 67.236 128.434 67.2295C128.611 67.2384 128.787 67.1883 128.934 67.087C129.08 66.9856 129.19 66.8387 129.245 66.6688C129.538 65.4629 129.538 64.2038 129.245 62.9979C129.189 62.8295 129.079 62.6846 128.932 62.5861C128.785 62.4876 128.61 62.4413 128.434 62.4542C128.229 62.4429 128.026 62.5028 127.859 62.6241C127.712 62.7553 127.607 62.9266 127.555 63.117C127.479 63.3597 127.434 63.6108 127.42 63.8646C127.42 64.1705 127.42 64.4936 127.42 64.8334C127.42 65.1733 127.403 65.4961 127.42 65.802Z" fill="#2454A6"/>
<path d="M139.251 63.2868C139.336 62.8801 139.509 62.4972 139.758 62.1652C139.997 61.8621 140.312 61.6276 140.67 61.4853C141.114 61.3239 141.585 61.2489 142.056 61.2644C142.543 61.2373 143.03 61.3008 143.493 61.4515C143.858 61.589 144.176 61.8311 144.406 62.1481C144.646 62.4809 144.808 62.8646 144.879 63.2698C144.981 63.7844 145.026 64.3088 145.014 64.8334C145.029 65.3533 144.978 65.8728 144.862 66.3797C144.775 66.7828 144.608 67.1643 144.372 67.5014C144.125 67.8001 143.804 68.0286 143.442 68.1642C142.995 68.3121 142.527 68.3811 142.056 68.3681C141.57 68.3953 141.083 68.3319 140.62 68.1812C140.254 68.0625 139.934 67.8305 139.707 67.5184C139.47 67.1834 139.309 66.8006 139.234 66.3967C139.043 65.3689 139.043 64.3147 139.234 63.2868H139.251ZM141.059 65.802C141.063 66.0569 141.109 66.3096 141.194 66.5498C141.24 66.7428 141.347 66.9156 141.499 67.0425C141.608 67.1257 141.734 67.1826 141.869 67.2089C142.004 67.2351 142.142 67.2301 142.274 67.194C142.407 67.1578 142.529 67.0917 142.632 67.0006C142.735 66.9095 142.815 66.796 142.868 66.6687C143.161 65.4628 143.161 64.2037 142.868 62.9979C142.812 62.8294 142.702 62.6846 142.555 62.5861C142.408 62.4876 142.232 62.4412 142.056 62.4541C141.856 62.4394 141.657 62.4999 141.499 62.624C141.347 62.7509 141.24 62.9239 141.194 63.1169C141.111 63.3576 141.065 63.6098 141.059 63.8646C141.014 64.5096 141.014 65.157 141.059 65.802Z" fill="#2454A6"/>
<path d="M134.62 59.2251V68.2492H132.693V59.2251H134.62Z" fill="#2454A6"/>
<path d="M145.977 62.6241V61.4346H146.958V60.6527C146.947 60.3909 146.993 60.13 147.093 59.888C147.178 59.6879 147.311 59.5124 147.482 59.3781C147.679 59.2512 147.896 59.1594 148.124 59.1063C148.405 59.0778 148.688 59.0778 148.969 59.1063H150V60.3299H149.594C149.395 60.3107 149.195 60.3521 149.02 60.4488C148.963 60.503 148.918 60.5691 148.889 60.6425C148.859 60.7159 148.846 60.7947 148.851 60.8736V61.4684H149.983V62.6581H148.851V68.2661H146.941V62.6241H145.977Z" fill="#2454A6"/>
<path d="M100.377 73.6704L101.814 80.0433L103.268 73.6704H106.242V82.7113H104.383V75.4887L102.608 82.7113H101.037L99.3464 75.4887V82.7113H97.5042V73.6704H100.377Z" fill="#2454A6"/>
<path d="M107.814 77.8171C107.804 77.4771 107.874 77.1396 108.017 76.8315C108.15 76.57 108.348 76.3475 108.592 76.1857C108.84 76.0097 109.122 75.8881 109.42 75.8289C109.758 75.7513 110.104 75.717 110.451 75.7269C110.923 75.7146 111.395 75.7662 111.854 75.88C112.158 75.9439 112.438 76.0909 112.665 76.3048C112.861 76.4849 113.006 76.7132 113.087 76.9674C113.148 77.241 113.182 77.5201 113.189 77.8003V81.3181C113.158 81.5663 113.158 81.8174 113.189 82.0657C113.216 82.268 113.279 82.4638 113.375 82.6437H111.532C111.465 82.5329 111.413 82.4125 111.38 82.2866L111.279 81.9298C111.099 82.2386 110.827 82.4825 110.501 82.6267C110.134 82.7379 109.752 82.7895 109.369 82.7795C109.074 82.7877 108.781 82.7357 108.507 82.6267C108.288 82.5274 108.097 82.3757 107.949 82.1848C107.809 81.9939 107.701 81.7816 107.628 81.556C107.575 81.3275 107.547 81.0938 107.544 80.8592C107.539 80.5838 107.573 80.3091 107.645 80.0435C107.718 79.8212 107.839 79.6181 108 79.4487C108.164 79.2656 108.366 79.1207 108.592 79.0239C108.866 78.9071 109.148 78.8104 109.437 78.7349L110.535 78.4799C110.76 78.4405 110.97 78.3408 111.144 78.1912C111.253 78.045 111.307 77.864 111.296 77.6812C111.304 77.5708 111.291 77.46 111.256 77.3549C111.221 77.2499 111.166 77.1528 111.093 77.0695C111.001 76.9821 110.892 76.9155 110.772 76.8745C110.653 76.8334 110.526 76.8188 110.4 76.8315C110.278 76.8237 110.156 76.8425 110.043 76.8865C109.929 76.9305 109.826 76.9987 109.741 77.0865C109.664 77.1741 109.604 77.2762 109.567 77.3871C109.529 77.4979 109.513 77.6154 109.521 77.7323V77.9192H107.831L107.814 77.8171ZM110.924 79.5166C110.788 79.5747 110.646 79.6204 110.501 79.6526C110.193 79.6852 109.903 79.8161 109.673 80.0265C109.585 80.1222 109.518 80.2347 109.474 80.3574C109.431 80.48 109.412 80.6103 109.42 80.7403C109.409 80.9786 109.468 81.2149 109.589 81.4201C109.65 81.5103 109.734 81.5826 109.832 81.6303C109.93 81.678 110.038 81.6992 110.147 81.6919H110.552C110.689 81.6465 110.82 81.5837 110.941 81.505C111.054 81.4141 111.151 81.3051 111.228 81.1822C111.299 81.0279 111.334 80.8592 111.33 80.6893V79.3637C111.201 79.4307 111.065 79.4819 110.924 79.5166Z" fill="#2454A6"/>
<path d="M116.552 75.8971V76.6957C116.742 76.3767 117.017 76.1175 117.346 75.9479C117.698 75.7936 118.079 75.7182 118.462 75.727C118.976 75.6913 119.484 75.8556 119.882 76.1858C120.065 76.3817 120.204 76.6155 120.289 76.8708C120.374 77.1262 120.402 77.3969 120.372 77.6643V82.7626H118.445V78.0552C118.475 77.7969 118.409 77.5367 118.259 77.3245C118.174 77.2503 118.074 77.1938 117.967 77.1588C117.86 77.1238 117.746 77.1109 117.634 77.1206C116.941 77.1206 116.603 77.4943 116.603 78.2421V82.7626H114.676V75.9649L116.552 75.8971Z" fill="#2454A6"/>
<path d="M123.837 73.6704V76.5934C124.037 76.2987 124.311 76.063 124.632 75.9107C124.953 75.7583 125.308 75.6948 125.662 75.7267C126.181 75.6918 126.694 75.8558 127.099 76.1855C127.282 76.3814 127.421 76.6152 127.506 76.8705C127.59 77.1259 127.619 77.3966 127.589 77.664V82.7623H125.662V78.0549C125.689 77.7943 125.616 77.5333 125.459 77.3242C125.375 77.2482 125.276 77.1907 125.168 77.1556C125.06 77.1205 124.946 77.1085 124.834 77.1203C124.158 77.1203 123.82 77.494 123.82 78.2418V82.7623H121.876V73.7214L123.837 73.6704Z" fill="#2454A6"/>
<path d="M130.394 75.897L131.273 80.7403L132.203 75.897H134.383L135.38 80.7403L136.276 75.897H138.135L136.445 82.6947H134.383L133.386 77.8512L132.456 82.6947H130.225L128.535 75.897H130.394Z" fill="#2454A6"/>
<path d="M138.946 77.8168C138.933 77.4746 139.009 77.135 139.166 76.8312C139.29 76.569 139.483 76.3457 139.724 76.1854C139.977 76.0062 140.265 75.8845 140.569 75.8286C140.901 75.7502 141.242 75.7158 141.583 75.7265C142.055 75.7143 142.527 75.7659 142.986 75.8796C143.294 75.947 143.579 76.0934 143.814 76.3045C144 76.4865 144.134 76.7152 144.203 76.9671C144.278 77.2384 144.317 77.5185 144.321 77.8V81.3177C144.299 81.5665 144.299 81.8166 144.321 82.0654C144.348 82.2676 144.411 82.4635 144.507 82.6433H142.648C142.593 82.5285 142.547 82.4089 142.513 82.2863C142.505 82.1675 142.505 82.0483 142.513 81.9295C142.339 82.243 142.065 82.4885 141.735 82.6263C141.368 82.7376 140.986 82.7892 140.603 82.7792C140.308 82.7873 140.015 82.7354 139.741 82.6263C139.522 82.5271 139.33 82.3753 139.183 82.1845C139.048 81.9929 138.946 81.7805 138.879 81.5557C138.812 81.3295 138.778 81.0948 138.777 80.8588C138.769 80.5821 138.809 80.306 138.896 80.0432C138.957 79.8194 139.073 79.6148 139.234 79.4484C139.4 79.275 139.594 79.1314 139.808 79.0235C140.094 78.9072 140.388 78.8106 140.687 78.7346L141.769 78.4796C141.994 78.4402 142.204 78.3405 142.377 78.1908C142.493 78.047 142.553 77.8658 142.546 77.6809C142.553 77.5693 142.536 77.4576 142.498 77.3525C142.461 77.2474 142.402 77.1511 142.327 77.0691C142.236 76.9798 142.127 76.912 142.007 76.8708C141.887 76.8296 141.76 76.8161 141.634 76.8312C141.512 76.8234 141.39 76.8422 141.276 76.8862C141.163 76.9302 141.06 76.9984 140.975 77.0862C140.897 77.1738 140.838 77.2759 140.8 77.3867C140.763 77.4976 140.747 77.615 140.755 77.7319V77.9189H139.065L138.946 77.8168ZM142.039 79.5162C141.914 79.574 141.784 79.6196 141.651 79.6523C141.335 79.6775 141.037 79.8092 140.806 80.0261C140.718 80.1219 140.65 80.2344 140.607 80.357C140.563 80.4797 140.544 80.61 140.552 80.74C140.55 80.9773 140.608 81.2114 140.721 81.4198C140.784 81.5088 140.868 81.5803 140.965 81.6279C141.063 81.6754 141.171 81.6972 141.279 81.6916H141.685C141.821 81.6462 141.952 81.5834 142.073 81.5046C142.186 81.4138 142.283 81.3048 142.361 81.1818C142.437 81.029 142.478 80.8602 142.479 80.6889V79.3633C142.339 79.4307 142.191 79.4819 142.039 79.5162Z" fill="#2454A6"/>
<path d="M101.358 89.8152C101.253 89.6635 101.111 89.5427 100.944 89.465C100.778 89.3873 100.594 89.3556 100.411 89.3733C100.187 89.3591 99.9657 89.4254 99.7859 89.5602C99.5946 89.7099 99.4579 89.919 99.3971 90.155C99.2959 90.5038 99.2336 90.8629 99.2112 91.2256C99.2112 91.6675 99.2112 92.2113 99.2112 92.9251C99.1787 93.4911 99.1787 94.0585 99.2112 94.6245C99.2439 94.9626 99.3236 95.2945 99.4478 95.6103C99.5214 95.8087 99.6661 95.9724 99.8535 96.0692C100.027 96.1527 100.219 96.1934 100.411 96.1881C100.579 96.2137 100.75 96.2137 100.918 96.1881C101.083 96.1157 101.223 95.9979 101.324 95.8482C101.448 95.6324 101.534 95.3967 101.577 95.1514C101.653 94.7654 101.687 94.3721 101.679 93.9787H103.69C103.695 94.4403 103.655 94.9014 103.572 95.3553C103.494 95.7743 103.333 96.1731 103.099 96.5279C102.848 96.8619 102.516 97.1254 102.135 97.2927C101.624 97.492 101.078 97.5846 100.53 97.5647C99.9102 97.5951 99.2921 97.4847 98.7211 97.2417C98.2886 97.0381 97.9288 96.706 97.6901 96.2901C97.4384 95.8341 97.283 95.3306 97.2337 94.8114C97.0761 93.5531 97.0761 92.28 97.2337 91.0217C97.2854 90.4977 97.4406 89.9892 97.6901 89.5262C97.9334 89.1099 98.2915 88.7735 98.7211 88.5576C99.2906 88.3083 99.9089 88.1921 100.53 88.2178C101.11 88.1892 101.69 88.2998 102.22 88.5406C102.599 88.7122 102.921 88.9893 103.149 89.3393C103.35 89.6583 103.477 90.0182 103.521 90.3929C103.581 90.7409 103.609 91.0935 103.606 91.4466H101.594C101.664 90.8912 101.582 90.3274 101.358 89.8152Z" fill="#2454A6"/>
<path d="M104.958 92.2283C105.04 91.8205 105.213 91.4368 105.465 91.1066C105.696 90.7951 106.014 90.5587 106.377 90.4268C106.82 90.2579 107.29 90.1771 107.763 90.1888C108.25 90.1747 108.736 90.2436 109.2 90.3927C109.564 90.5247 109.881 90.7611 110.113 91.0726C110.353 91.4118 110.515 91.8009 110.586 92.2113C110.688 92.7201 110.734 93.2386 110.721 93.7576C110.736 94.2831 110.685 94.8085 110.569 95.3211C110.486 95.7202 110.318 96.0968 110.079 96.4258C109.838 96.7308 109.515 96.9607 109.149 97.0886C108.705 97.25 108.235 97.325 107.763 97.3096C107.277 97.3356 106.79 97.2722 106.327 97.1227C105.966 96.9928 105.65 96.7629 105.414 96.4598C105.176 96.1254 105.015 95.7424 104.941 95.3382C104.833 94.8184 104.782 94.2884 104.789 93.7576C104.787 93.243 104.844 92.73 104.958 92.2283ZM106.749 94.7264C106.769 94.9852 106.814 95.2413 106.885 95.4911C106.953 95.6777 107.063 95.8464 107.206 95.984C107.364 96.1081 107.563 96.1686 107.763 96.1539C107.94 96.1668 108.115 96.1204 108.262 96.0219C108.409 95.9234 108.519 95.7785 108.575 95.6101C108.755 95.0103 108.829 94.3832 108.794 93.7576C108.829 93.1432 108.754 92.5276 108.575 91.9393C108.522 91.8128 108.441 91.7 108.338 91.609C108.236 91.5181 108.115 91.4513 107.983 91.4138C107.852 91.3763 107.714 91.369 107.579 91.3922C107.445 91.4155 107.317 91.4689 107.206 91.5485C107.059 91.6897 106.949 91.8645 106.885 92.0582C106.814 92.3021 106.769 92.5528 106.749 92.806C106.749 93.1119 106.749 93.4347 106.749 93.7576C106.749 94.0805 106.732 94.4375 106.749 94.7264Z" fill="#2454A6"/>
<path d="M113.814 90.3757V91.1576C114.004 90.8431 114.28 90.5895 114.609 90.4268C114.958 90.265 115.339 90.1837 115.724 90.1888C116.238 90.1514 116.747 90.3159 117.144 90.6477C117.328 90.844 117.468 91.0774 117.555 91.3323C117.643 91.5872 117.675 91.8577 117.651 92.1262V97.2245H115.792V92.534C115.824 92.2702 115.758 92.0038 115.606 91.7864C115.518 91.7108 115.416 91.6538 115.305 91.6188C115.195 91.5837 115.079 91.5714 114.963 91.5825C114.287 91.5825 113.949 91.9562 113.949 92.7039V97.2245H112.023V90.4268L113.814 90.3757Z" fill="#2454A6"/>
<path d="M121.555 88.4217V90.3759H122.67V91.5486H121.555V95.2363C121.532 95.4388 121.58 95.643 121.69 95.8142C121.775 95.9332 121.961 95.9841 122.248 95.9841H122.67V97.1906H121.42C121.111 97.2219 120.799 97.2219 120.49 97.1906C120.288 97.1527 120.101 97.0586 119.949 96.9189C119.822 96.7546 119.735 96.5623 119.696 96.3579C119.666 96.0755 119.666 95.7907 119.696 95.5082V91.5146H118.715V90.3421H119.696V88.3877L121.555 88.4217Z" fill="#2454A6"/>
<path d="M125.29 94.5739C125.273 94.7718 125.273 94.9707 125.29 95.1686C125.319 95.3465 125.376 95.5185 125.459 95.6783C125.526 95.8184 125.624 95.9408 125.747 96.0353C125.886 96.1145 126.043 96.1554 126.203 96.1542C126.337 96.1651 126.472 96.1428 126.595 96.0895C126.719 96.0362 126.828 95.9536 126.913 95.8484C127.092 95.5556 127.196 95.2228 127.217 94.8796H128.907C128.913 95.5552 128.658 96.2069 128.197 96.6982C127.629 97.1532 126.91 97.3721 126.186 97.3099C125.605 97.3461 125.023 97.235 124.496 96.9869C124.129 96.8073 123.827 96.5159 123.634 96.1542C123.441 95.7974 123.326 95.4036 123.296 94.9987C123.271 94.5686 123.271 94.1373 123.296 93.7071C123.295 93.2633 123.329 92.82 123.397 92.3815C123.474 91.9864 123.617 91.6071 123.82 91.2598C124.05 90.9232 124.365 90.6537 124.732 90.4782C125.682 90.1271 126.724 90.1271 127.673 90.4782C128.015 90.6337 128.307 90.8807 128.518 91.192C128.732 91.5152 128.876 91.8797 128.941 92.2624C129.011 92.735 129.045 93.2124 129.042 93.6901V94.081H125.223L125.29 94.5739ZM127.217 92.3135C127.191 92.1369 127.14 91.9653 127.065 91.8038C127.002 91.6705 126.902 91.5583 126.778 91.4808C126.625 91.4075 126.457 91.3726 126.287 91.3789C126.122 91.3755 125.959 91.4165 125.814 91.4978C125.684 91.5743 125.579 91.6864 125.51 91.8208C125.426 91.9499 125.369 92.0942 125.341 92.2456C125.324 92.4095 125.324 92.5745 125.341 92.7383V92.9933H127.318C127.268 92.7384 127.234 92.5004 127.217 92.3135Z" fill="#2454A6"/>
<path d="M132.203 90.3758V91.1577C132.388 90.8393 132.665 90.5846 132.997 90.4268C133.347 90.265 133.728 90.1837 134.113 90.1889C134.627 90.1532 135.135 90.3175 135.532 90.6477C135.713 90.8455 135.85 91.0794 135.935 91.3342C136.019 91.589 136.049 91.859 136.023 92.1262V97.2245H134.096V92.5341C134.123 92.2681 134.051 92.0015 133.893 91.7864C133.809 91.7104 133.709 91.6529 133.602 91.6178C133.494 91.5827 133.38 91.5707 133.268 91.5825C132.592 91.5825 132.254 91.9562 132.254 92.704V97.2245H130.327V90.4268L132.203 90.3758Z" fill="#2454A6"/>
<path d="M139.927 88.4217V90.3759H141.042V91.5486H139.927V95.2363C139.912 95.4383 139.959 95.6402 140.062 95.8142C140.146 95.9332 140.332 95.9841 140.62 95.9841H141.042V97.1907H139.792C139.488 97.2213 139.182 97.2213 138.879 97.1907C138.671 97.1567 138.477 97.0623 138.321 96.9189C138.194 96.7546 138.107 96.5623 138.068 96.3579C138.037 96.0755 138.037 95.7907 138.068 95.5082V91.5146H137.087V90.3421H138.068V88.3877L139.927 88.4217Z" fill="#2454A6"/>
<path d="M143.544 95.1681C143.535 95.2996 143.555 95.4314 143.602 95.5546C143.648 95.6777 143.721 95.7893 143.814 95.8817C143.911 95.9793 144.027 96.0542 144.156 96.1012C144.284 96.1482 144.422 96.1662 144.558 96.1537C144.808 96.1698 145.057 96.1043 145.268 95.9668C145.357 95.893 145.428 95.7991 145.475 95.6929C145.522 95.5867 145.543 95.4711 145.538 95.355C145.545 95.2585 145.529 95.1615 145.491 95.0727C145.453 94.9838 145.393 94.9057 145.318 94.8451C145.173 94.7348 145.014 94.6435 144.845 94.5733L143.476 94.1315C143.016 94.0154 142.599 93.7674 142.276 93.4176C141.999 93.0922 141.854 92.6734 141.87 92.2451C141.867 91.9713 141.919 91.6994 142.023 91.4462C142.134 91.1907 142.301 90.964 142.513 90.7834C142.771 90.5886 143.063 90.4445 143.375 90.3586C143.785 90.2334 144.213 90.1761 144.642 90.1887C145.328 90.1377 146.012 90.3171 146.586 90.6986C146.796 90.869 146.962 91.0875 147.071 91.3359C147.18 91.5842 147.228 91.8552 147.211 92.126V92.415H145.521C145.535 92.1385 145.476 91.8634 145.352 91.6163C145.263 91.5303 145.157 91.4645 145.04 91.4234C144.923 91.3824 144.799 91.367 144.676 91.3784C144.449 91.3773 144.226 91.4422 144.034 91.5653C143.948 91.6267 143.878 91.7084 143.831 91.8032C143.784 91.8981 143.761 92.003 143.763 92.109C143.766 92.28 143.832 92.4439 143.949 92.5679C144.132 92.743 144.361 92.861 144.608 92.9077L145.758 93.2647C146.247 93.3795 146.693 93.633 147.042 93.9954C147.318 94.3406 147.457 94.7769 147.431 95.2191C147.441 95.5447 147.365 95.867 147.211 96.1537C147.077 96.419 146.88 96.6467 146.637 96.8165C146.37 97.0002 146.072 97.1327 145.758 97.2073C145.384 97.278 145.005 97.3123 144.625 97.3094C144.171 97.3151 143.718 97.2694 143.273 97.1733C142.967 97.0967 142.679 96.9579 142.428 96.7655C142.222 96.5845 142.069 96.349 141.989 96.0857C141.905 95.7931 141.865 95.4896 141.87 95.1851V94.9131H143.561L143.544 95.1681Z" fill="#2454A6"/>
<path d="M1.82545 83.1362C0.656632 81.9249 0.00292969 80.3037 0.00292969 78.6159C0.00292969 76.9281 0.656632 75.3067 1.82545 74.0953L18.1184 57.7468C18.7573 56.9784 19.5784 56.3841 20.5059 56.0187C21.4334 55.6534 22.4375 55.5289 23.4254 55.6565H44.9916C46.6546 55.6565 48.2496 56.3209 49.4255 57.5033C50.6014 58.6857 51.2621 60.2892 51.2621 61.9614C51.2621 63.6335 50.6014 65.2373 49.4255 66.4197C48.2496 67.6021 46.6546 68.2662 44.9916 68.2662H25.4029L15.0761 78.6159L25.4029 88.9654H44.9916C45.8436 88.9209 46.6956 89.0513 47.4959 89.3485C48.2961 89.6457 49.0279 90.1034 49.6466 90.6941C50.2652 91.2847 50.7579 91.9957 51.0945 92.7839C51.4312 93.5721 51.6048 94.4209 51.6048 95.2787C51.6048 96.1365 51.4312 96.9853 51.0945 97.7735C50.7579 98.5617 50.2652 99.2728 49.6466 99.8634C49.0279 100.454 48.2961 100.912 47.4959 101.209C46.6956 101.506 45.8436 101.637 44.9916 101.592H23.4254C22.4361 101.716 21.4316 101.588 20.5043 101.22C19.5769 100.852 18.7565 100.255 18.1184 99.4848L1.82545 83.1362Z" fill="#2454A6"/>
<path d="M67.8253 100.012L48.3549 80.4344C47.8783 79.9266 47.6128 79.2548 47.6128 78.5565C47.6128 77.8583 47.8783 77.1865 48.3549 76.6787L67.8084 57.1182C68.4062 56.4555 69.1317 55.9216 69.9407 55.5491C70.7498 55.1765 71.6256 54.973 72.5152 54.9508C73.4048 54.9286 74.2896 55.0881 75.116 55.4198C75.9424 55.7516 76.6933 56.2486 77.3231 56.8807C77.9529 57.5128 78.4485 58.2669 78.7799 59.0973C79.1113 59.9277 79.2717 60.8171 79.2512 61.7116C79.2308 62.6061 79.0299 63.487 78.6609 64.3012C78.2918 65.1153 77.7622 65.8458 77.1042 66.4481L65.0197 78.5651L77.1042 90.682C77.7157 91.2914 78.201 92.0168 78.5317 92.8161C78.8625 93.6154 79.0321 94.4727 79.0309 95.3385C79.0305 96.6456 78.6447 97.9234 77.9222 99.0101C77.1997 100.097 76.1731 100.944 74.972 101.444C73.7709 101.944 72.4493 102.075 71.1742 101.82C69.8992 101.565 68.7279 100.936 67.8084 100.012" fill="#2454A6"/>
<path d="M103.961 20.8856L123.989 0.764409C124.502 0.268 125.186 -0.00927734 125.899 -0.00927734C126.611 -0.00927734 127.295 0.268 127.808 0.764409L147.904 20.8856C149.12 22.1697 149.788 23.8806 149.767 25.6533C149.746 27.4259 149.037 29.12 147.792 30.3746C146.546 31.6293 144.863 32.345 143.1 32.3693C141.337 32.3935 139.634 31.7244 138.355 30.5045L125.983 18.0137L113.594 30.5045C112.327 31.7686 110.613 32.4773 108.828 32.4759C107.494 32.4736 106.19 32.0743 105.081 31.3283C103.972 30.5822 103.107 29.5228 102.595 28.2835C102.084 27.0442 101.949 25.6804 102.207 24.364C102.465 23.0475 103.104 21.8372 104.045 20.8856" fill="#2454A6"/>
</g>
<defs>
<clipPath id="clip0_55_536">
<rect width="150" height="102" fill="white"/>
</clipPath>
</defs>
</svg>
