<svg width="246" height="35" viewBox="0 0 246 35" fill="none" xmlns="http://www.w3.org/2000/svg">
<g clip-path="url(#clip0_55_504)">
<path d="M1.38995 20.8747C0.499937 19.9774 0.000488281 18.7642 0.000488281 17.4998C0.000488281 16.2355 0.499937 15.0223 1.38995 14.125L13.6122 1.87661C14.6486 0.847686 15.2572 0.304409 17.6096 0.304409H33.8456C34.4816 0.277824 35.1164 0.380234 35.7119 0.605488C36.3073 0.830743 36.8511 1.17419 37.3106 1.61517C37.77 2.05615 38.1355 2.58555 38.3853 3.17155C38.635 3.75756 38.7637 4.38806 38.7637 5.02513C38.7637 5.6622 38.635 6.29269 38.3853 6.87869C38.1355 7.4647 37.77 7.9941 37.3106 8.43508C36.8511 8.87606 36.3073 9.21951 35.7119 9.44477C35.1164 9.67002 34.4816 9.77243 33.8456 9.74585H19.1147L11.3421 17.4998L19.1147 25.2456H33.8456C35.0977 25.2456 36.2986 25.7434 37.1839 26.6295C38.0693 27.5156 38.5667 28.7173 38.5667 29.9704C38.5667 31.2235 38.0693 32.4253 37.1839 33.3114C36.2986 34.1975 35.0977 34.6953 33.8456 34.6953H17.626C15.3066 34.6953 14.6568 34.1602 13.6287 33.1231L1.38995 20.8747Z" fill="#2454A6"/>
<path d="M51.0933 33.5514L36.4529 18.8912C36.0924 18.513 35.8912 18.0104 35.8912 17.4877C35.8912 16.9651 36.0924 16.4625 36.4529 16.0843L51.0768 1.44882C51.5354 0.989951 52.0797 0.625955 52.6788 0.377616C53.2778 0.129278 53.9199 0.00146486 54.5684 0.00146484C55.2168 0.00146483 55.8589 0.129278 56.4579 0.377616C57.057 0.625955 57.6013 0.989951 58.0598 1.44882C58.5184 1.90769 58.8821 2.45244 59.1302 3.05199C59.3784 3.65153 59.5061 4.29412 59.5061 4.94306C59.5061 5.592 59.3784 6.23458 59.1302 6.83412C58.8821 7.43367 58.5184 7.97843 58.0598 8.4373L49.0124 17.4919L58.0598 26.5464C58.752 27.2367 59.2237 28.117 59.4154 29.0759C59.6071 30.0348 59.5101 31.029 59.1366 31.9326C58.7631 32.8363 58.1299 33.6086 57.3174 34.1517C56.5049 34.6949 55.5496 34.9844 54.5724 34.9836C53.2693 34.9847 52.0186 34.4698 51.0933 33.5514Z" fill="#2454A6"/>
<path d="M81.427 20.7021C79.5721 21.5022 77.5817 21.9408 75.5626 21.9945C68.9826 21.9945 66.5151 16.7593 66.5151 10.882C66.5151 5.39992 68.7277 0.592773 75.0033 0.592773C79.8971 0.592773 82.2659 2.92226 82.2659 6.56878H77.7669C77.7669 4.9225 77.2405 2.56831 74.7154 2.56831C71.2527 2.56831 70.6029 7.45777 70.6029 10.2318C70.6029 12.6353 70.7016 19.5086 76.2288 19.5086C78.1285 19.4378 79.945 18.7106 81.3694 17.4507L81.427 20.7021Z" fill="#2454A6"/>
<path d="M86.6992 0.880859H90.639V9.58148H97.844V0.880859H101.784V21.6323H97.844V11.9604H90.639V21.6323H86.6992V0.880859Z" fill="#2454A6"/>
<path d="M122.099 14.5779C122.099 18.2656 121.326 21.9862 114.565 21.9862C107.804 21.9862 107.114 18.2821 107.114 14.5779V0.880859H111.045V14.5779C111.045 17.8294 111.555 19.9778 114.565 19.9778C117.748 19.9778 118.168 17.8294 118.168 14.5779V0.880859H122.099V14.5779Z" fill="#2454A6"/>
<path d="M127.429 0.880859H131.731L139.75 16.2983H139.808V0.880859H143.024V21.6323H139.117L130.703 5.49046H130.645V21.6323H127.429V0.880859Z" fill="#2454A6"/>
<path d="M163.438 20.0434C161.419 21.2813 159.102 21.947 156.735 21.9696C150.22 21.9696 147.506 17.1624 147.506 11.0876C147.506 5.01285 149.464 0.567871 155.863 0.567871C160.37 0.567871 163.265 2.37055 163.265 6.32986H158.996C158.906 5.07869 158.758 2.53518 155.871 2.53518C151.668 2.53518 151.668 7.97615 151.668 10.7666C151.668 15.7548 152.606 20.0023 157.08 20.0023C157.526 20.0401 157.974 19.9866 158.399 19.8451C158.823 19.7035 159.214 19.4769 159.548 19.1791V11.9684H155.813V9.49897H163.479L163.438 20.0434Z" fill="#2454A6"/>
<path d="M169.607 0.880859H173.538V9.93542H173.604L180.274 0.880859H184.387L176.984 10.24L185.209 21.6323H180.398L173.612 11.5817H173.546V21.6323H169.615L169.607 0.880859Z" fill="#2454A6"/>
<path d="M196.905 4.37071H196.963L199.759 13.557H194.051L196.905 4.37071ZM188.014 21.6567H191.493L193.36 15.7548H200.417L202.227 21.6567H206.397L199.184 0.905273H195.162L188.014 21.6567Z" fill="#2454A6"/>
<path d="M210.049 0.880859H214.35L222.37 16.2983H222.427V0.880859H225.643V21.6323H221.704L213.289 5.49046H213.232V21.6323H210.016L210.049 0.880859Z" fill="#2454A6"/>
<path d="M246 20.0434C243.981 21.2813 241.664 21.947 239.297 21.9696C232.782 21.9696 230.076 17.1624 230.076 11.0876C230.076 5.01285 232.026 0.567871 238.425 0.567871C242.94 0.567871 245.827 2.37055 245.827 6.32986H241.558C241.476 5.07869 241.32 2.53518 238.433 2.53518C234.23 2.53518 234.23 7.97615 234.23 10.7666C234.23 15.7548 235.159 20.0023 239.642 20.0023C240.081 20.0393 240.523 19.9853 240.941 19.8436C241.358 19.702 241.742 19.4758 242.068 19.1791V11.9684H238.351V9.49897H246.008L246 20.0434Z" fill="#2454A6"/>
<path d="M118.834 29.8553C118.834 27.7069 118.834 25.6655 121.631 25.6655C124.427 25.6655 124.419 27.7069 124.419 29.8553C124.419 32.0037 124.419 34.0451 121.631 34.0451C118.842 34.0451 118.834 31.979 118.834 29.8553ZM122.708 29.8553C122.708 27.7728 122.585 26.8755 121.631 26.8755C120.676 26.8755 120.553 27.7728 120.553 29.8553C120.553 31.9379 120.676 32.8269 121.631 32.8269C122.585 32.8269 122.708 31.9296 122.708 29.8553Z" fill="#2454A6"/>
<path d="M125.784 33.8721V25.7642H128.071L130.226 31.3862V25.7642H131.805V33.8721H129.584L127.38 27.9455V33.8721H125.784Z" fill="#2454A6"/>
<path d="M133.269 33.8721V25.7642H134.963V32.5304H137.497V33.8721H133.269Z" fill="#2454A6"/>
<path d="M138.903 31.0984L136.781 25.7974H138.632L139.841 29.2216L141.132 25.7974H142.859L140.597 31.0984V33.8724H138.903V31.0984Z" fill="#2454A6"/>
<path d="M146.955 29.8553C146.955 27.7069 146.955 25.6655 149.752 25.6655C152.548 25.6655 152.548 27.7069 152.548 29.8553C152.548 32.0037 152.548 34.0451 149.752 34.0451C146.955 34.0451 146.955 31.979 146.955 29.8553ZM150.829 29.8553C150.829 27.7728 150.706 26.8755 149.752 26.8755C148.797 26.8755 148.674 27.7728 148.674 29.8553C148.674 31.9379 148.797 32.8269 149.752 32.8269C150.706 32.8269 150.829 31.9296 150.829 29.8553Z" fill="#2454A6"/>
<path d="M153.905 33.8721V25.7642H156.192L158.371 31.4027V25.7806H159.951V33.8721H157.722L155.509 27.9455V33.8721H153.905Z" fill="#2454A6"/>
<path d="M161.382 33.8721V25.7642H165.774V27.0153H163.051V29.0156H165.519V30.2585H163.051V32.6292H165.864V33.8721H161.382Z" fill="#2454A6"/>
<path d="M167.024 32.4238H168.496L167.674 35.0003H166.596L167.024 32.4238Z" fill="#2454A6"/>
<path d="M172.798 29.8553C172.798 27.7069 172.798 25.6655 175.586 25.6655C178.374 25.6655 178.383 27.7069 178.383 29.8553C178.383 32.0037 178.383 34.0451 175.586 34.0451C172.79 34.0451 172.798 31.979 172.798 29.8553ZM176.664 29.8553C176.664 27.7728 176.54 26.8755 175.586 26.8755C174.632 26.8755 174.509 27.7728 174.509 29.8553C174.509 31.9379 174.632 32.8269 175.586 32.8269C176.54 32.8269 176.664 31.9296 176.664 29.8553Z" fill="#2454A6"/>
<path d="M179.756 33.8721V25.7642H182.051L184.198 31.3862V25.7642H185.785V33.8721H183.548L181.335 27.9455V33.8721H179.756Z" fill="#2454A6"/>
<path d="M187.224 33.8721V25.7642H188.919V32.5304H191.46V33.8721H187.224Z" fill="#2454A6"/>
<path d="M192.859 31.0984L190.737 25.7974H192.595L193.804 29.2216L195.096 25.7974H196.823L194.561 31.0984V33.8724H192.867L192.859 31.0984Z" fill="#2454A6"/>
<path d="M205.821 25.7971V27.147H203.938V33.8721H202.243V27.1141H200.36V25.7642L205.821 25.7971Z" fill="#2454A6"/>
<path d="M210.304 29.0485V25.7971H211.998V33.8721H210.304V30.2585H208.363V33.8721H206.668V25.7642H208.363V29.0156L210.304 29.0485Z" fill="#2454A6"/>
<path d="M213.479 33.8721V25.7642H217.895V27.0153H215.173V29.0156H217.681V30.2585H215.173V32.6292H217.986V33.8721H213.479Z" fill="#2454A6"/>
<path d="M222.526 33.8721V25.7642H225.528C226.819 25.7642 227.889 26.1346 227.889 27.8632C227.929 28.2811 227.809 28.6988 227.552 29.0309C227.295 29.3629 226.921 29.5842 226.507 29.6494C227.708 29.8222 228.02 30.596 228.02 31.7072C228.02 33.7651 226.235 33.8474 225.553 33.8474L222.526 33.8721ZM224.22 29.0814H225.355C225.484 29.0793 225.611 29.0497 225.727 28.9947C225.843 28.9396 225.947 28.8604 226.03 28.7622C226.113 28.664 226.175 28.5492 226.21 28.4254C226.246 28.3016 226.254 28.1717 226.235 28.0443C226.243 27.9119 226.224 27.7794 226.179 27.6549C226.134 27.5303 226.063 27.4163 225.972 27.3199C225.881 27.2235 225.772 27.1468 225.65 27.0944C225.528 27.042 225.397 27.0151 225.265 27.0153H224.171L224.22 29.0814ZM224.22 32.6292H225.158C225.315 32.6573 225.477 32.6474 225.63 32.6003C225.783 32.5532 225.922 32.4702 226.037 32.3582C226.151 32.2463 226.237 32.1086 226.287 31.9567C226.337 31.8048 226.351 31.6431 226.326 31.485C226.326 30.7689 226.055 30.3244 225.207 30.3244H224.171L224.22 32.6292Z" fill="#2454A6"/>
<path d="M229.328 33.8721V25.7642H233.745V27.0153H231.022V29.0156H233.531V30.2585H231.022V32.6292H233.835V33.8721H229.328Z" fill="#2454A6"/>
<path d="M237.134 34.0451C235.036 34.0451 234.666 32.8104 234.732 31.4028H236.426C236.426 32.1766 236.467 32.8269 237.397 32.8269C237.513 32.8276 237.628 32.8037 237.734 32.7568C237.84 32.7099 237.935 32.641 238.013 32.5547C238.09 32.4684 238.149 32.3666 238.185 32.2561C238.22 32.1455 238.232 32.0286 238.219 31.9132C238.219 30.448 234.806 30.3574 234.806 27.9456C234.806 26.678 235.406 25.6655 237.471 25.6655C239.116 25.6655 239.938 26.4064 239.831 28.135H238.186C238.186 27.5258 238.088 26.9085 237.405 26.9085C237.289 26.9001 237.172 26.9167 237.062 26.9569C236.953 26.9972 236.853 27.0603 236.77 27.142C236.687 27.2237 236.622 27.3222 236.58 27.431C236.537 27.5397 236.519 27.6562 236.525 27.7728C236.525 29.312 239.938 29.1803 239.938 31.7321C239.963 33.7982 238.425 34.0451 237.134 34.0451Z" fill="#2454A6"/>
<path d="M246 25.7971V27.147H244.117V33.8721H242.422V27.1141H240.539V25.7642L246 25.7971Z" fill="#2454A6"/>
</g>
<defs>
<clipPath id="clip0_55_504">
<rect width="246" height="35" fill="white"/>
</clipPath>
</defs>
</svg>
